G04 #@! TF.GenerationSoftware,KiCad,Pcbnew,(5.1.7)-1*
G04 #@! TF.CreationDate,2020-12-19T00:30:41-03:00*
G04 #@! TF.ProjectId,Sorting Hat,536f7274-696e-4672-9048-61742e6b6963,rev?*
G04 #@! TF.SameCoordinates,Original*
G04 #@! TF.FileFunction,Soldermask,Top*
G04 #@! TF.FilePolarity,Negative*
%FSLAX46Y46*%
G04 Gerber Fmt 4.6, Leading zero omitted, Abs format (unit mm)*
G04 Created by KiCad (PCBNEW (5.1.7)-1) date 2020-12-19 00:30:41*
%MOMM*%
%LPD*%
G01*
G04 APERTURE LIST*
%ADD10C,0.010000*%
G04 APERTURE END LIST*
D10*
G36*
X153266055Y-67284208D02*
G01*
X153701600Y-67342105D01*
X154126884Y-67439851D01*
X154543242Y-67577655D01*
X154952007Y-67755727D01*
X155354512Y-67974278D01*
X155557924Y-68101467D01*
X155818270Y-68276515D01*
X156062059Y-68451526D01*
X156296273Y-68632279D01*
X156527889Y-68824555D01*
X156763887Y-69034134D01*
X157011247Y-69266798D01*
X157258760Y-69510112D01*
X157389258Y-69641265D01*
X157508155Y-69762380D01*
X157618789Y-69877286D01*
X157724501Y-69989812D01*
X157828631Y-70103787D01*
X157934518Y-70223039D01*
X158045502Y-70351397D01*
X158164923Y-70492690D01*
X158296121Y-70650747D01*
X158442435Y-70829396D01*
X158607205Y-71032467D01*
X158793772Y-71263788D01*
X158856824Y-71342166D01*
X159216591Y-71788081D01*
X159553496Y-72202420D01*
X159869733Y-72587731D01*
X160167497Y-72946559D01*
X160448981Y-73281450D01*
X160716380Y-73594952D01*
X160971888Y-73889609D01*
X161217700Y-74167969D01*
X161456010Y-74432577D01*
X161689012Y-74685981D01*
X161918900Y-74930725D01*
X162147870Y-75169357D01*
X162210652Y-75233925D01*
X162453917Y-75469929D01*
X162686229Y-75667225D01*
X162909825Y-75827333D01*
X163126938Y-75951773D01*
X163339804Y-76042065D01*
X163449000Y-76075874D01*
X163600637Y-76103695D01*
X163776190Y-76114452D01*
X163961012Y-76108546D01*
X164140456Y-76086378D01*
X164284966Y-76052941D01*
X164356836Y-76030769D01*
X164426382Y-76007470D01*
X164495867Y-75981690D01*
X164567550Y-75952076D01*
X164643694Y-75917273D01*
X164726560Y-75875927D01*
X164818409Y-75826683D01*
X164921501Y-75768188D01*
X165038100Y-75699088D01*
X165170464Y-75618027D01*
X165320857Y-75523653D01*
X165491538Y-75414610D01*
X165684770Y-75289545D01*
X165902813Y-75147104D01*
X166147930Y-74985932D01*
X166422380Y-74804675D01*
X166728425Y-74601979D01*
X166920333Y-74474699D01*
X167257530Y-74251074D01*
X167561581Y-74049662D01*
X167834535Y-73869152D01*
X168078440Y-73708230D01*
X168295345Y-73565585D01*
X168487297Y-73439904D01*
X168656347Y-73329874D01*
X168804541Y-73234184D01*
X168933929Y-73151520D01*
X169046560Y-73080571D01*
X169144481Y-73020024D01*
X169229741Y-72968567D01*
X169304388Y-72924887D01*
X169370472Y-72887672D01*
X169430040Y-72855610D01*
X169485142Y-72827387D01*
X169513250Y-72813530D01*
X169655323Y-72746080D01*
X169769050Y-72697010D01*
X169862960Y-72663909D01*
X169945581Y-72644370D01*
X170025445Y-72635982D01*
X170111081Y-72636335D01*
X170136045Y-72637602D01*
X170284382Y-72657919D01*
X170416418Y-72703506D01*
X170541744Y-72779057D01*
X170669955Y-72889260D01*
X170688904Y-72907944D01*
X170819029Y-73061976D01*
X170907692Y-73222079D01*
X170954710Y-73387655D01*
X170959900Y-73558103D01*
X170932023Y-73703836D01*
X170901885Y-73794871D01*
X170856096Y-73916217D01*
X170797900Y-74060302D01*
X170730538Y-74219553D01*
X170657252Y-74386396D01*
X170581284Y-74553261D01*
X170505877Y-74712572D01*
X170461485Y-74802916D01*
X170283798Y-75141404D01*
X170105608Y-75444717D01*
X169922100Y-75719795D01*
X169728458Y-75973577D01*
X169519867Y-76213003D01*
X169387464Y-76350715D01*
X169202326Y-76529656D01*
X169028159Y-76681753D01*
X168853612Y-76816132D01*
X168667333Y-76941918D01*
X168599015Y-76984530D01*
X168359273Y-77134397D01*
X168142755Y-77275883D01*
X167952176Y-77407037D01*
X167790250Y-77525909D01*
X167659691Y-77630548D01*
X167563213Y-77719004D01*
X167534914Y-77749257D01*
X167466980Y-77844803D01*
X167415969Y-77952478D01*
X167388718Y-78056447D01*
X167386000Y-78094262D01*
X167403493Y-78206867D01*
X167455622Y-78342263D01*
X167541856Y-78499666D01*
X167661669Y-78678293D01*
X167814530Y-78877363D01*
X167999912Y-79096093D01*
X168217286Y-79333700D01*
X168238433Y-79356017D01*
X168331536Y-79455210D01*
X168398873Y-79530497D01*
X168444819Y-79587697D01*
X168473753Y-79632628D01*
X168490050Y-79671109D01*
X168496607Y-79699199D01*
X168504213Y-79768353D01*
X168493549Y-79808524D01*
X168457788Y-79825616D01*
X168390102Y-79825533D01*
X168354356Y-79822201D01*
X168218765Y-79797636D01*
X168052577Y-79748943D01*
X167855004Y-79675826D01*
X167625257Y-79577990D01*
X167362548Y-79455137D01*
X167311916Y-79430450D01*
X167141715Y-79345918D01*
X166983507Y-79264757D01*
X166831848Y-79183753D01*
X166681295Y-79099696D01*
X166526405Y-79009371D01*
X166361735Y-78909568D01*
X166181842Y-78797074D01*
X165981282Y-78668677D01*
X165754612Y-78521164D01*
X165608000Y-78424901D01*
X165375211Y-78273081D01*
X165172185Y-78143981D01*
X164994598Y-78035215D01*
X164838123Y-77944401D01*
X164698435Y-77869155D01*
X164571209Y-77807094D01*
X164452120Y-77755835D01*
X164336843Y-77712994D01*
X164284659Y-77695699D01*
X163979720Y-77613150D01*
X163680820Y-77563797D01*
X163382287Y-77547806D01*
X163078451Y-77565346D01*
X162763639Y-77616582D01*
X162432181Y-77701682D01*
X162263666Y-77755225D01*
X161899137Y-77887382D01*
X161524192Y-78042784D01*
X161136798Y-78222565D01*
X160734922Y-78427861D01*
X160316529Y-78659808D01*
X159879588Y-78919541D01*
X159422064Y-79208195D01*
X158941924Y-79526905D01*
X158437135Y-79876806D01*
X158337250Y-79947635D01*
X158077073Y-80131274D01*
X157846193Y-80290655D01*
X157640764Y-80427854D01*
X157456941Y-80544952D01*
X157290878Y-80644026D01*
X157138730Y-80727156D01*
X156996652Y-80796420D01*
X156860797Y-80853897D01*
X156727321Y-80901666D01*
X156592377Y-80941805D01*
X156452121Y-80976394D01*
X156421666Y-80983139D01*
X156346923Y-80994737D01*
X156239347Y-81005275D01*
X156108431Y-81014392D01*
X155963668Y-81021727D01*
X155814553Y-81026918D01*
X155670580Y-81029604D01*
X155541242Y-81029423D01*
X155436032Y-81026015D01*
X155389791Y-81022415D01*
X155335183Y-81013552D01*
X155303940Y-81002482D01*
X155301001Y-80998241D01*
X155318082Y-80983128D01*
X155365990Y-80947076D01*
X155440599Y-80893028D01*
X155537782Y-80823925D01*
X155653413Y-80742712D01*
X155783366Y-80652330D01*
X155867209Y-80594432D01*
X156240506Y-80337135D01*
X156598504Y-80089978D01*
X156939776Y-79853959D01*
X157262897Y-79630076D01*
X157566441Y-79419327D01*
X157848982Y-79222709D01*
X158109092Y-79041221D01*
X158345347Y-78875861D01*
X158556320Y-78727625D01*
X158740585Y-78597512D01*
X158896715Y-78486520D01*
X159023285Y-78395647D01*
X159118869Y-78325890D01*
X159182040Y-78278247D01*
X159207865Y-78257106D01*
X159322376Y-78129339D01*
X159398319Y-77990961D01*
X159434165Y-77845106D01*
X159436950Y-77787416D01*
X159418178Y-77625149D01*
X159366067Y-77477004D01*
X159287894Y-77357069D01*
X159254078Y-77320278D01*
X159216786Y-77286671D01*
X159172707Y-77255091D01*
X159118531Y-77224384D01*
X159050944Y-77193396D01*
X158966636Y-77160970D01*
X158862294Y-77125952D01*
X158734608Y-77087188D01*
X158580265Y-77043521D01*
X158395953Y-76993798D01*
X158178362Y-76936863D01*
X157924179Y-76871561D01*
X157818666Y-76844658D01*
X157603790Y-76789689D01*
X157395642Y-76735945D01*
X157198924Y-76684671D01*
X157018337Y-76637116D01*
X156858582Y-76594527D01*
X156724361Y-76558152D01*
X156620375Y-76529238D01*
X156551325Y-76509033D01*
X156538083Y-76504842D01*
X156383838Y-76447485D01*
X156212016Y-76372034D01*
X156034797Y-76284733D01*
X155864363Y-76191828D01*
X155712893Y-76099561D01*
X155615578Y-76031927D01*
X155384213Y-75835917D01*
X155166755Y-75608619D01*
X154971202Y-75359757D01*
X154805554Y-75099057D01*
X154731429Y-74956937D01*
X154693491Y-74877932D01*
X154642397Y-74771463D01*
X154583285Y-74648240D01*
X154521295Y-74518975D01*
X154479837Y-74432500D01*
X154326713Y-74130574D01*
X154171469Y-73861645D01*
X154007997Y-73616564D01*
X153830186Y-73386185D01*
X153631927Y-73161357D01*
X153628411Y-73157601D01*
X153348711Y-72887081D01*
X153036300Y-72635772D01*
X152698238Y-72408385D01*
X152341587Y-72209628D01*
X151973406Y-72044213D01*
X151939217Y-72030841D01*
X151745991Y-71951666D01*
X151591164Y-71877193D01*
X151471470Y-71804624D01*
X151383643Y-71731161D01*
X151324419Y-71654006D01*
X151290532Y-71570359D01*
X151278717Y-71477423D01*
X151278631Y-71464718D01*
X151284806Y-71388643D01*
X151304331Y-71313328D01*
X151339900Y-71235294D01*
X151394209Y-71151063D01*
X151469950Y-71057158D01*
X151569817Y-70950101D01*
X151696505Y-70826413D01*
X151852708Y-70682616D01*
X151955803Y-70590481D01*
X152137880Y-70426288D01*
X152288406Y-70283777D01*
X152409942Y-70159561D01*
X152505048Y-70050251D01*
X152576288Y-69952462D01*
X152626220Y-69862806D01*
X152657408Y-69777897D01*
X152672411Y-69694345D01*
X152674701Y-69639771D01*
X152658505Y-69531991D01*
X152609075Y-69427031D01*
X152523355Y-69319372D01*
X152465668Y-69262564D01*
X152428093Y-69229495D01*
X152386370Y-69196960D01*
X152336426Y-69162667D01*
X152274188Y-69124326D01*
X152195584Y-69079646D01*
X152096541Y-69026336D01*
X151972987Y-68962105D01*
X151820849Y-68884663D01*
X151636054Y-68791720D01*
X151568026Y-68757664D01*
X151385767Y-68665718D01*
X151217997Y-68579561D01*
X151068627Y-68501294D01*
X150941566Y-68433020D01*
X150840725Y-68376842D01*
X150770014Y-68334860D01*
X150733342Y-68309178D01*
X150732716Y-68308592D01*
X150665377Y-68217378D01*
X150632337Y-68110006D01*
X150632645Y-67993769D01*
X150665357Y-67875959D01*
X150729523Y-67763871D01*
X150815382Y-67672193D01*
X150880338Y-67623881D01*
X150958153Y-67581234D01*
X151055560Y-67541634D01*
X151179292Y-67502462D01*
X151336081Y-67461099D01*
X151394583Y-67446913D01*
X151884512Y-67347512D01*
X152358845Y-67287122D01*
X152818914Y-67265950D01*
X153266055Y-67284208D01*
G37*
X153266055Y-67284208D02*
X153701600Y-67342105D01*
X154126884Y-67439851D01*
X154543242Y-67577655D01*
X154952007Y-67755727D01*
X155354512Y-67974278D01*
X155557924Y-68101467D01*
X155818270Y-68276515D01*
X156062059Y-68451526D01*
X156296273Y-68632279D01*
X156527889Y-68824555D01*
X156763887Y-69034134D01*
X157011247Y-69266798D01*
X157258760Y-69510112D01*
X157389258Y-69641265D01*
X157508155Y-69762380D01*
X157618789Y-69877286D01*
X157724501Y-69989812D01*
X157828631Y-70103787D01*
X157934518Y-70223039D01*
X158045502Y-70351397D01*
X158164923Y-70492690D01*
X158296121Y-70650747D01*
X158442435Y-70829396D01*
X158607205Y-71032467D01*
X158793772Y-71263788D01*
X158856824Y-71342166D01*
X159216591Y-71788081D01*
X159553496Y-72202420D01*
X159869733Y-72587731D01*
X160167497Y-72946559D01*
X160448981Y-73281450D01*
X160716380Y-73594952D01*
X160971888Y-73889609D01*
X161217700Y-74167969D01*
X161456010Y-74432577D01*
X161689012Y-74685981D01*
X161918900Y-74930725D01*
X162147870Y-75169357D01*
X162210652Y-75233925D01*
X162453917Y-75469929D01*
X162686229Y-75667225D01*
X162909825Y-75827333D01*
X163126938Y-75951773D01*
X163339804Y-76042065D01*
X163449000Y-76075874D01*
X163600637Y-76103695D01*
X163776190Y-76114452D01*
X163961012Y-76108546D01*
X164140456Y-76086378D01*
X164284966Y-76052941D01*
X164356836Y-76030769D01*
X164426382Y-76007470D01*
X164495867Y-75981690D01*
X164567550Y-75952076D01*
X164643694Y-75917273D01*
X164726560Y-75875927D01*
X164818409Y-75826683D01*
X164921501Y-75768188D01*
X165038100Y-75699088D01*
X165170464Y-75618027D01*
X165320857Y-75523653D01*
X165491538Y-75414610D01*
X165684770Y-75289545D01*
X165902813Y-75147104D01*
X166147930Y-74985932D01*
X166422380Y-74804675D01*
X166728425Y-74601979D01*
X166920333Y-74474699D01*
X167257530Y-74251074D01*
X167561581Y-74049662D01*
X167834535Y-73869152D01*
X168078440Y-73708230D01*
X168295345Y-73565585D01*
X168487297Y-73439904D01*
X168656347Y-73329874D01*
X168804541Y-73234184D01*
X168933929Y-73151520D01*
X169046560Y-73080571D01*
X169144481Y-73020024D01*
X169229741Y-72968567D01*
X169304388Y-72924887D01*
X169370472Y-72887672D01*
X169430040Y-72855610D01*
X169485142Y-72827387D01*
X169513250Y-72813530D01*
X169655323Y-72746080D01*
X169769050Y-72697010D01*
X169862960Y-72663909D01*
X169945581Y-72644370D01*
X170025445Y-72635982D01*
X170111081Y-72636335D01*
X170136045Y-72637602D01*
X170284382Y-72657919D01*
X170416418Y-72703506D01*
X170541744Y-72779057D01*
X170669955Y-72889260D01*
X170688904Y-72907944D01*
X170819029Y-73061976D01*
X170907692Y-73222079D01*
X170954710Y-73387655D01*
X170959900Y-73558103D01*
X170932023Y-73703836D01*
X170901885Y-73794871D01*
X170856096Y-73916217D01*
X170797900Y-74060302D01*
X170730538Y-74219553D01*
X170657252Y-74386396D01*
X170581284Y-74553261D01*
X170505877Y-74712572D01*
X170461485Y-74802916D01*
X170283798Y-75141404D01*
X170105608Y-75444717D01*
X169922100Y-75719795D01*
X169728458Y-75973577D01*
X169519867Y-76213003D01*
X169387464Y-76350715D01*
X169202326Y-76529656D01*
X169028159Y-76681753D01*
X168853612Y-76816132D01*
X168667333Y-76941918D01*
X168599015Y-76984530D01*
X168359273Y-77134397D01*
X168142755Y-77275883D01*
X167952176Y-77407037D01*
X167790250Y-77525909D01*
X167659691Y-77630548D01*
X167563213Y-77719004D01*
X167534914Y-77749257D01*
X167466980Y-77844803D01*
X167415969Y-77952478D01*
X167388718Y-78056447D01*
X167386000Y-78094262D01*
X167403493Y-78206867D01*
X167455622Y-78342263D01*
X167541856Y-78499666D01*
X167661669Y-78678293D01*
X167814530Y-78877363D01*
X167999912Y-79096093D01*
X168217286Y-79333700D01*
X168238433Y-79356017D01*
X168331536Y-79455210D01*
X168398873Y-79530497D01*
X168444819Y-79587697D01*
X168473753Y-79632628D01*
X168490050Y-79671109D01*
X168496607Y-79699199D01*
X168504213Y-79768353D01*
X168493549Y-79808524D01*
X168457788Y-79825616D01*
X168390102Y-79825533D01*
X168354356Y-79822201D01*
X168218765Y-79797636D01*
X168052577Y-79748943D01*
X167855004Y-79675826D01*
X167625257Y-79577990D01*
X167362548Y-79455137D01*
X167311916Y-79430450D01*
X167141715Y-79345918D01*
X166983507Y-79264757D01*
X166831848Y-79183753D01*
X166681295Y-79099696D01*
X166526405Y-79009371D01*
X166361735Y-78909568D01*
X166181842Y-78797074D01*
X165981282Y-78668677D01*
X165754612Y-78521164D01*
X165608000Y-78424901D01*
X165375211Y-78273081D01*
X165172185Y-78143981D01*
X164994598Y-78035215D01*
X164838123Y-77944401D01*
X164698435Y-77869155D01*
X164571209Y-77807094D01*
X164452120Y-77755835D01*
X164336843Y-77712994D01*
X164284659Y-77695699D01*
X163979720Y-77613150D01*
X163680820Y-77563797D01*
X163382287Y-77547806D01*
X163078451Y-77565346D01*
X162763639Y-77616582D01*
X162432181Y-77701682D01*
X162263666Y-77755225D01*
X161899137Y-77887382D01*
X161524192Y-78042784D01*
X161136798Y-78222565D01*
X160734922Y-78427861D01*
X160316529Y-78659808D01*
X159879588Y-78919541D01*
X159422064Y-79208195D01*
X158941924Y-79526905D01*
X158437135Y-79876806D01*
X158337250Y-79947635D01*
X158077073Y-80131274D01*
X157846193Y-80290655D01*
X157640764Y-80427854D01*
X157456941Y-80544952D01*
X157290878Y-80644026D01*
X157138730Y-80727156D01*
X156996652Y-80796420D01*
X156860797Y-80853897D01*
X156727321Y-80901666D01*
X156592377Y-80941805D01*
X156452121Y-80976394D01*
X156421666Y-80983139D01*
X156346923Y-80994737D01*
X156239347Y-81005275D01*
X156108431Y-81014392D01*
X155963668Y-81021727D01*
X155814553Y-81026918D01*
X155670580Y-81029604D01*
X155541242Y-81029423D01*
X155436032Y-81026015D01*
X155389791Y-81022415D01*
X155335183Y-81013552D01*
X155303940Y-81002482D01*
X155301001Y-80998241D01*
X155318082Y-80983128D01*
X155365990Y-80947076D01*
X155440599Y-80893028D01*
X155537782Y-80823925D01*
X155653413Y-80742712D01*
X155783366Y-80652330D01*
X155867209Y-80594432D01*
X156240506Y-80337135D01*
X156598504Y-80089978D01*
X156939776Y-79853959D01*
X157262897Y-79630076D01*
X157566441Y-79419327D01*
X157848982Y-79222709D01*
X158109092Y-79041221D01*
X158345347Y-78875861D01*
X158556320Y-78727625D01*
X158740585Y-78597512D01*
X158896715Y-78486520D01*
X159023285Y-78395647D01*
X159118869Y-78325890D01*
X159182040Y-78278247D01*
X159207865Y-78257106D01*
X159322376Y-78129339D01*
X159398319Y-77990961D01*
X159434165Y-77845106D01*
X159436950Y-77787416D01*
X159418178Y-77625149D01*
X159366067Y-77477004D01*
X159287894Y-77357069D01*
X159254078Y-77320278D01*
X159216786Y-77286671D01*
X159172707Y-77255091D01*
X159118531Y-77224384D01*
X159050944Y-77193396D01*
X158966636Y-77160970D01*
X158862294Y-77125952D01*
X158734608Y-77087188D01*
X158580265Y-77043521D01*
X158395953Y-76993798D01*
X158178362Y-76936863D01*
X157924179Y-76871561D01*
X157818666Y-76844658D01*
X157603790Y-76789689D01*
X157395642Y-76735945D01*
X157198924Y-76684671D01*
X157018337Y-76637116D01*
X156858582Y-76594527D01*
X156724361Y-76558152D01*
X156620375Y-76529238D01*
X156551325Y-76509033D01*
X156538083Y-76504842D01*
X156383838Y-76447485D01*
X156212016Y-76372034D01*
X156034797Y-76284733D01*
X155864363Y-76191828D01*
X155712893Y-76099561D01*
X155615578Y-76031927D01*
X155384213Y-75835917D01*
X155166755Y-75608619D01*
X154971202Y-75359757D01*
X154805554Y-75099057D01*
X154731429Y-74956937D01*
X154693491Y-74877932D01*
X154642397Y-74771463D01*
X154583285Y-74648240D01*
X154521295Y-74518975D01*
X154479837Y-74432500D01*
X154326713Y-74130574D01*
X154171469Y-73861645D01*
X154007997Y-73616564D01*
X153830186Y-73386185D01*
X153631927Y-73161357D01*
X153628411Y-73157601D01*
X153348711Y-72887081D01*
X153036300Y-72635772D01*
X152698238Y-72408385D01*
X152341587Y-72209628D01*
X151973406Y-72044213D01*
X151939217Y-72030841D01*
X151745991Y-71951666D01*
X151591164Y-71877193D01*
X151471470Y-71804624D01*
X151383643Y-71731161D01*
X151324419Y-71654006D01*
X151290532Y-71570359D01*
X151278717Y-71477423D01*
X151278631Y-71464718D01*
X151284806Y-71388643D01*
X151304331Y-71313328D01*
X151339900Y-71235294D01*
X151394209Y-71151063D01*
X151469950Y-71057158D01*
X151569817Y-70950101D01*
X151696505Y-70826413D01*
X151852708Y-70682616D01*
X151955803Y-70590481D01*
X152137880Y-70426288D01*
X152288406Y-70283777D01*
X152409942Y-70159561D01*
X152505048Y-70050251D01*
X152576288Y-69952462D01*
X152626220Y-69862806D01*
X152657408Y-69777897D01*
X152672411Y-69694345D01*
X152674701Y-69639771D01*
X152658505Y-69531991D01*
X152609075Y-69427031D01*
X152523355Y-69319372D01*
X152465668Y-69262564D01*
X152428093Y-69229495D01*
X152386370Y-69196960D01*
X152336426Y-69162667D01*
X152274188Y-69124326D01*
X152195584Y-69079646D01*
X152096541Y-69026336D01*
X151972987Y-68962105D01*
X151820849Y-68884663D01*
X151636054Y-68791720D01*
X151568026Y-68757664D01*
X151385767Y-68665718D01*
X151217997Y-68579561D01*
X151068627Y-68501294D01*
X150941566Y-68433020D01*
X150840725Y-68376842D01*
X150770014Y-68334860D01*
X150733342Y-68309178D01*
X150732716Y-68308592D01*
X150665377Y-68217378D01*
X150632337Y-68110006D01*
X150632645Y-67993769D01*
X150665357Y-67875959D01*
X150729523Y-67763871D01*
X150815382Y-67672193D01*
X150880338Y-67623881D01*
X150958153Y-67581234D01*
X151055560Y-67541634D01*
X151179292Y-67502462D01*
X151336081Y-67461099D01*
X151394583Y-67446913D01*
X151884512Y-67347512D01*
X152358845Y-67287122D01*
X152818914Y-67265950D01*
X153266055Y-67284208D01*
M02*
