G04 #@! TF.GenerationSoftware,KiCad,Pcbnew,(5.1.7)-1*
G04 #@! TF.CreationDate,2020-12-19T00:30:41-03:00*
G04 #@! TF.ProjectId,Sorting Hat,536f7274-696e-4672-9048-61742e6b6963,rev?*
G04 #@! TF.SameCoordinates,Original*
G04 #@! TF.FileFunction,Legend,Bot*
G04 #@! TF.FilePolarity,Positive*
%FSLAX46Y46*%
G04 Gerber Fmt 4.6, Leading zero omitted, Abs format (unit mm)*
G04 Created by KiCad (PCBNEW (5.1.7)-1) date 2020-12-19 00:30:41*
%MOMM*%
%LPD*%
G01*
G04 APERTURE LIST*
%ADD10C,0.300000*%
%ADD11C,0.152400*%
%ADD12C,0.120000*%
%ADD13C,0.150000*%
G04 APERTURE END LIST*
D10*
X190690476Y-95654761D02*
X190690476Y-97083333D01*
X190785714Y-97369047D01*
X190976190Y-97559523D01*
X191261904Y-97654761D01*
X191452380Y-97654761D01*
X188785714Y-97654761D02*
X189738095Y-97654761D01*
X189738095Y-95654761D01*
X186976190Y-97464285D02*
X187071428Y-97559523D01*
X187357142Y-97654761D01*
X187547619Y-97654761D01*
X187833333Y-97559523D01*
X188023809Y-97369047D01*
X188119047Y-97178571D01*
X188214285Y-96797619D01*
X188214285Y-96511904D01*
X188119047Y-96130952D01*
X188023809Y-95940476D01*
X187833333Y-95750000D01*
X187547619Y-95654761D01*
X187357142Y-95654761D01*
X187071428Y-95750000D01*
X186976190Y-95845238D01*
X186119047Y-97654761D02*
X186119047Y-95654761D01*
X185357142Y-95654761D01*
X185166666Y-95750000D01*
X185071428Y-95845238D01*
X184976190Y-96035714D01*
X184976190Y-96321428D01*
X185071428Y-96511904D01*
X185166666Y-96607142D01*
X185357142Y-96702380D01*
X186119047Y-96702380D01*
X182976190Y-97464285D02*
X183071428Y-97559523D01*
X183357142Y-97654761D01*
X183547619Y-97654761D01*
X183833333Y-97559523D01*
X184023809Y-97369047D01*
X184119047Y-97178571D01*
X184214285Y-96797619D01*
X184214285Y-96511904D01*
X184119047Y-96130952D01*
X184023809Y-95940476D01*
X183833333Y-95750000D01*
X183547619Y-95654761D01*
X183357142Y-95654761D01*
X183071428Y-95750000D01*
X182976190Y-95845238D01*
X181452380Y-96607142D02*
X181166666Y-96702380D01*
X181071428Y-96797619D01*
X180976190Y-96988095D01*
X180976190Y-97273809D01*
X181071428Y-97464285D01*
X181166666Y-97559523D01*
X181357142Y-97654761D01*
X182119047Y-97654761D01*
X182119047Y-95654761D01*
X181452380Y-95654761D01*
X181261904Y-95750000D01*
X181166666Y-95845238D01*
X181071428Y-96035714D01*
X181071428Y-96226190D01*
X181166666Y-96416666D01*
X181261904Y-96511904D01*
X181452380Y-96607142D01*
X182119047Y-96607142D01*
X180119047Y-97464285D02*
X180023809Y-97559523D01*
X180119047Y-97654761D01*
X180214285Y-97559523D01*
X180119047Y-97464285D01*
X180119047Y-97654761D01*
X178023809Y-97464285D02*
X178119047Y-97559523D01*
X178404761Y-97654761D01*
X178595238Y-97654761D01*
X178880952Y-97559523D01*
X179071428Y-97369047D01*
X179166666Y-97178571D01*
X179261904Y-96797619D01*
X179261904Y-96511904D01*
X179166666Y-96130952D01*
X179071428Y-95940476D01*
X178880952Y-95750000D01*
X178595238Y-95654761D01*
X178404761Y-95654761D01*
X178119047Y-95750000D01*
X178023809Y-95845238D01*
X176785714Y-95654761D02*
X176404761Y-95654761D01*
X176214285Y-95750000D01*
X176023809Y-95940476D01*
X175928571Y-96321428D01*
X175928571Y-96988095D01*
X176023809Y-97369047D01*
X176214285Y-97559523D01*
X176404761Y-97654761D01*
X176785714Y-97654761D01*
X176976190Y-97559523D01*
X177166666Y-97369047D01*
X177261904Y-96988095D01*
X177261904Y-96321428D01*
X177166666Y-95940476D01*
X176976190Y-95750000D01*
X176785714Y-95654761D01*
X175071428Y-97654761D02*
X175071428Y-95654761D01*
X174404761Y-97083333D01*
X173738095Y-95654761D01*
X173738095Y-97654761D01*
X138642857Y-104260714D02*
X138714285Y-104332142D01*
X138928571Y-104403571D01*
X139071428Y-104403571D01*
X139285714Y-104332142D01*
X139428571Y-104189285D01*
X139500000Y-104046428D01*
X139571428Y-103760714D01*
X139571428Y-103546428D01*
X139500000Y-103260714D01*
X139428571Y-103117857D01*
X139285714Y-102975000D01*
X139071428Y-102903571D01*
X138928571Y-102903571D01*
X138714285Y-102975000D01*
X138642857Y-103046428D01*
X137142857Y-104260714D02*
X137214285Y-104332142D01*
X137428571Y-104403571D01*
X137571428Y-104403571D01*
X137785714Y-104332142D01*
X137928571Y-104189285D01*
X138000000Y-104046428D01*
X138071428Y-103760714D01*
X138071428Y-103546428D01*
X138000000Y-103260714D01*
X137928571Y-103117857D01*
X137785714Y-102975000D01*
X137571428Y-102903571D01*
X137428571Y-102903571D01*
X137214285Y-102975000D01*
X137142857Y-103046428D01*
X135785714Y-104403571D02*
X136500000Y-104403571D01*
X136500000Y-102903571D01*
X134357142Y-102903571D02*
X133857142Y-104403571D01*
X133357142Y-102903571D01*
X132071428Y-104403571D02*
X132928571Y-104403571D01*
X132500000Y-104403571D02*
X132500000Y-102903571D01*
X132642857Y-103117857D01*
X132785714Y-103260714D01*
X132928571Y-103332142D01*
X131428571Y-104260714D02*
X131357142Y-104332142D01*
X131428571Y-104403571D01*
X131500000Y-104332142D01*
X131428571Y-104260714D01*
X131428571Y-104403571D01*
X130428571Y-102903571D02*
X130285714Y-102903571D01*
X130142857Y-102975000D01*
X130071428Y-103046428D01*
X130000000Y-103189285D01*
X129928571Y-103475000D01*
X129928571Y-103832142D01*
X130000000Y-104117857D01*
X130071428Y-104260714D01*
X130142857Y-104332142D01*
X130285714Y-104403571D01*
X130428571Y-104403571D01*
X130571428Y-104332142D01*
X130642857Y-104260714D01*
X130714285Y-104117857D01*
X130785714Y-103832142D01*
X130785714Y-103475000D01*
X130714285Y-103189285D01*
X130642857Y-103046428D01*
X130571428Y-102975000D01*
X130428571Y-102903571D01*
X140250000Y-105453571D02*
X139321428Y-105453571D01*
X139821428Y-106025000D01*
X139607142Y-106025000D01*
X139464285Y-106096428D01*
X139392857Y-106167857D01*
X139321428Y-106310714D01*
X139321428Y-106667857D01*
X139392857Y-106810714D01*
X139464285Y-106882142D01*
X139607142Y-106953571D01*
X140035714Y-106953571D01*
X140178571Y-106882142D01*
X140250000Y-106810714D01*
X137892857Y-106953571D02*
X138750000Y-106953571D01*
X138321428Y-106953571D02*
X138321428Y-105453571D01*
X138464285Y-105667857D01*
X138607142Y-105810714D01*
X138750000Y-105882142D01*
X136464285Y-106953571D02*
X137321428Y-106953571D01*
X136892857Y-106953571D02*
X136892857Y-105453571D01*
X137035714Y-105667857D01*
X137178571Y-105810714D01*
X137321428Y-105882142D01*
X135535714Y-105453571D02*
X135392857Y-105453571D01*
X135250000Y-105525000D01*
X135178571Y-105596428D01*
X135107142Y-105739285D01*
X135035714Y-106025000D01*
X135035714Y-106382142D01*
X135107142Y-106667857D01*
X135178571Y-106810714D01*
X135250000Y-106882142D01*
X135392857Y-106953571D01*
X135535714Y-106953571D01*
X135678571Y-106882142D01*
X135750000Y-106810714D01*
X135821428Y-106667857D01*
X135892857Y-106382142D01*
X135892857Y-106025000D01*
X135821428Y-105739285D01*
X135750000Y-105596428D01*
X135678571Y-105525000D01*
X135535714Y-105453571D01*
X134464285Y-105596428D02*
X134392857Y-105525000D01*
X134250000Y-105453571D01*
X133892857Y-105453571D01*
X133750000Y-105525000D01*
X133678571Y-105596428D01*
X133607142Y-105739285D01*
X133607142Y-105882142D01*
X133678571Y-106096428D01*
X134535714Y-106953571D01*
X133607142Y-106953571D01*
X132678571Y-105453571D02*
X132535714Y-105453571D01*
X132392857Y-105525000D01*
X132321428Y-105596428D01*
X132250000Y-105739285D01*
X132178571Y-106025000D01*
X132178571Y-106382142D01*
X132250000Y-106667857D01*
X132321428Y-106810714D01*
X132392857Y-106882142D01*
X132535714Y-106953571D01*
X132678571Y-106953571D01*
X132821428Y-106882142D01*
X132892857Y-106810714D01*
X132964285Y-106667857D01*
X133035714Y-106382142D01*
X133035714Y-106025000D01*
X132964285Y-105739285D01*
X132892857Y-105596428D01*
X132821428Y-105525000D01*
X132678571Y-105453571D01*
X131607142Y-105596428D02*
X131535714Y-105525000D01*
X131392857Y-105453571D01*
X131035714Y-105453571D01*
X130892857Y-105525000D01*
X130821428Y-105596428D01*
X130750000Y-105739285D01*
X130750000Y-105882142D01*
X130821428Y-106096428D01*
X131678571Y-106953571D01*
X130750000Y-106953571D01*
X129821428Y-105453571D02*
X129678571Y-105453571D01*
X129535714Y-105525000D01*
X129464285Y-105596428D01*
X129392857Y-105739285D01*
X129321428Y-106025000D01*
X129321428Y-106382142D01*
X129392857Y-106667857D01*
X129464285Y-106810714D01*
X129535714Y-106882142D01*
X129678571Y-106953571D01*
X129821428Y-106953571D01*
X129964285Y-106882142D01*
X130035714Y-106810714D01*
X130107142Y-106667857D01*
X130178571Y-106382142D01*
X130178571Y-106025000D01*
X130107142Y-105739285D01*
X130035714Y-105596428D01*
X129964285Y-105525000D01*
X129821428Y-105453571D01*
D11*
X162773001Y-49383000D02*
X169226999Y-49383000D01*
X169226999Y-49383000D02*
X169226999Y-53117000D01*
X169226999Y-53117000D02*
X162773001Y-53117000D01*
X162773001Y-53117000D02*
X162773001Y-49383000D01*
D12*
X162090000Y-68147936D02*
X162090000Y-69352064D01*
X163910000Y-68147936D02*
X163910000Y-69352064D01*
X159590000Y-68147936D02*
X159590000Y-69352064D01*
X161410000Y-68147936D02*
X161410000Y-69352064D01*
X168910000Y-68147936D02*
X168910000Y-69352064D01*
X167090000Y-68147936D02*
X167090000Y-69352064D01*
X166410000Y-68147936D02*
X166410000Y-69352064D01*
X164590000Y-68147936D02*
X164590000Y-69352064D01*
X157501000Y-72064765D02*
X160110718Y-75174905D01*
X160110718Y-75174905D02*
X158371797Y-76634033D01*
X158371797Y-76634033D02*
X155762079Y-73523893D01*
X164732297Y-76464014D02*
X167974757Y-74020645D01*
X166098417Y-78276916D02*
X164732297Y-76464014D01*
X169340877Y-75833547D02*
X166098417Y-78276916D01*
X159830000Y-63010000D02*
X158900000Y-63010000D01*
X156670000Y-63010000D02*
X157600000Y-63010000D01*
X156670000Y-63010000D02*
X156670000Y-60850000D01*
X159830000Y-63010000D02*
X159830000Y-61550000D01*
X168080000Y-57010000D02*
X168080000Y-55550000D01*
X164920000Y-57010000D02*
X164920000Y-54850000D01*
X164920000Y-57010000D02*
X165850000Y-57010000D01*
X168080000Y-57010000D02*
X167150000Y-57010000D01*
X162010000Y-54740000D02*
X162010000Y-55940000D01*
X162010000Y-59260000D02*
X162010000Y-58060000D01*
X158554437Y-59260000D02*
X162010000Y-59260000D01*
X158554437Y-54740000D02*
X162010000Y-54740000D01*
X157490000Y-55804437D02*
X157490000Y-55940000D01*
X157490000Y-58195563D02*
X157490000Y-58060000D01*
X157490000Y-58195563D02*
X158554437Y-59260000D01*
X157490000Y-55804437D02*
X158554437Y-54740000D01*
X156750000Y-58560000D02*
X157250000Y-58560000D01*
X157000000Y-58810000D02*
X157000000Y-58310000D01*
X166500000Y-60190000D02*
X166500000Y-60690000D01*
X166750000Y-60440000D02*
X166250000Y-60440000D01*
X166010000Y-63195563D02*
X164945563Y-64260000D01*
X166010000Y-60804437D02*
X164945563Y-59740000D01*
X166010000Y-60804437D02*
X166010000Y-60940000D01*
X166010000Y-63195563D02*
X166010000Y-63060000D01*
X164945563Y-64260000D02*
X161490000Y-64260000D01*
X164945563Y-59740000D02*
X161490000Y-59740000D01*
X161490000Y-59740000D02*
X161490000Y-60940000D01*
X161490000Y-64260000D02*
X161490000Y-63060000D01*
D13*
X167333333Y-48904761D02*
X167190476Y-48952380D01*
X166952380Y-48952380D01*
X166857142Y-48904761D01*
X166809523Y-48857142D01*
X166761904Y-48761904D01*
X166761904Y-48666666D01*
X166809523Y-48571428D01*
X166857142Y-48523809D01*
X166952380Y-48476190D01*
X167142857Y-48428571D01*
X167238095Y-48380952D01*
X167285714Y-48333333D01*
X167333333Y-48238095D01*
X167333333Y-48142857D01*
X167285714Y-48047619D01*
X167238095Y-48000000D01*
X167142857Y-47952380D01*
X166904761Y-47952380D01*
X166761904Y-48000000D01*
X166428571Y-47952380D02*
X166190476Y-48952380D01*
X166000000Y-48238095D01*
X165809523Y-48952380D01*
X165571428Y-47952380D01*
X164666666Y-48952380D02*
X165238095Y-48952380D01*
X164952380Y-48952380D02*
X164952380Y-47952380D01*
X165047619Y-48095238D01*
X165142857Y-48190476D01*
X165238095Y-48238095D01*
X173369047Y-50702380D02*
X173178571Y-50702380D01*
X173083333Y-50750000D01*
X172988095Y-50845238D01*
X172940476Y-51035714D01*
X172940476Y-51369047D01*
X172988095Y-51559523D01*
X173083333Y-51654761D01*
X173178571Y-51702380D01*
X173369047Y-51702380D01*
X173464285Y-51654761D01*
X173559523Y-51559523D01*
X173607142Y-51369047D01*
X173607142Y-51035714D01*
X173559523Y-50845238D01*
X173464285Y-50750000D01*
X173369047Y-50702380D01*
X172511904Y-51702380D02*
X172511904Y-50702380D01*
X171940476Y-51702380D01*
X171940476Y-50702380D01*
X159952380Y-50702380D02*
X159761904Y-50702380D01*
X159666666Y-50750000D01*
X159571428Y-50845238D01*
X159523809Y-51035714D01*
X159523809Y-51369047D01*
X159571428Y-51559523D01*
X159666666Y-51654761D01*
X159761904Y-51702380D01*
X159952380Y-51702380D01*
X160047619Y-51654761D01*
X160142857Y-51559523D01*
X160190476Y-51369047D01*
X160190476Y-51035714D01*
X160142857Y-50845238D01*
X160047619Y-50750000D01*
X159952380Y-50702380D01*
X158761904Y-51178571D02*
X159095238Y-51178571D01*
X159095238Y-51702380D02*
X159095238Y-50702380D01*
X158619047Y-50702380D01*
X157904761Y-51178571D02*
X158238095Y-51178571D01*
X158238095Y-51702380D02*
X158238095Y-50702380D01*
X157761904Y-50702380D01*
X161535714Y-101928571D02*
X161392857Y-101976190D01*
X161345238Y-102023809D01*
X161297619Y-102119047D01*
X161297619Y-102261904D01*
X161345238Y-102357142D01*
X161392857Y-102404761D01*
X161488095Y-102452380D01*
X161869047Y-102452380D01*
X161869047Y-101452380D01*
X161535714Y-101452380D01*
X161440476Y-101500000D01*
X161392857Y-101547619D01*
X161345238Y-101642857D01*
X161345238Y-101738095D01*
X161392857Y-101833333D01*
X161440476Y-101880952D01*
X161535714Y-101928571D01*
X161869047Y-101928571D01*
X161011904Y-101452380D02*
X160440476Y-101452380D01*
X160726190Y-102452380D02*
X160726190Y-101452380D01*
X159583333Y-102452380D02*
X160154761Y-102452380D01*
X159869047Y-102452380D02*
X159869047Y-101452380D01*
X159964285Y-101595238D01*
X160059523Y-101690476D01*
X160154761Y-101738095D01*
X163166666Y-65952380D02*
X163500000Y-65476190D01*
X163738095Y-65952380D02*
X163738095Y-64952380D01*
X163357142Y-64952380D01*
X163261904Y-65000000D01*
X163214285Y-65047619D01*
X163166666Y-65142857D01*
X163166666Y-65285714D01*
X163214285Y-65380952D01*
X163261904Y-65428571D01*
X163357142Y-65476190D01*
X163738095Y-65476190D01*
X162214285Y-65952380D02*
X162785714Y-65952380D01*
X162500000Y-65952380D02*
X162500000Y-64952380D01*
X162595238Y-65095238D01*
X162690476Y-65190476D01*
X162785714Y-65238095D01*
X160666666Y-65952380D02*
X161000000Y-65476190D01*
X161238095Y-65952380D02*
X161238095Y-64952380D01*
X160857142Y-64952380D01*
X160761904Y-65000000D01*
X160714285Y-65047619D01*
X160666666Y-65142857D01*
X160666666Y-65285714D01*
X160714285Y-65380952D01*
X160761904Y-65428571D01*
X160857142Y-65476190D01*
X161238095Y-65476190D01*
X160333333Y-64952380D02*
X159714285Y-64952380D01*
X160047619Y-65333333D01*
X159904761Y-65333333D01*
X159809523Y-65380952D01*
X159761904Y-65428571D01*
X159714285Y-65523809D01*
X159714285Y-65761904D01*
X159761904Y-65857142D01*
X159809523Y-65904761D01*
X159904761Y-65952380D01*
X160190476Y-65952380D01*
X160285714Y-65904761D01*
X160333333Y-65857142D01*
X168166666Y-65952380D02*
X168500000Y-65476190D01*
X168738095Y-65952380D02*
X168738095Y-64952380D01*
X168357142Y-64952380D01*
X168261904Y-65000000D01*
X168214285Y-65047619D01*
X168166666Y-65142857D01*
X168166666Y-65285714D01*
X168214285Y-65380952D01*
X168261904Y-65428571D01*
X168357142Y-65476190D01*
X168738095Y-65476190D01*
X167309523Y-65285714D02*
X167309523Y-65952380D01*
X167547619Y-64904761D02*
X167785714Y-65619047D01*
X167166666Y-65619047D01*
X165666666Y-65952380D02*
X166000000Y-65476190D01*
X166238095Y-65952380D02*
X166238095Y-64952380D01*
X165857142Y-64952380D01*
X165761904Y-65000000D01*
X165714285Y-65047619D01*
X165666666Y-65142857D01*
X165666666Y-65285714D01*
X165714285Y-65380952D01*
X165761904Y-65428571D01*
X165857142Y-65476190D01*
X166238095Y-65476190D01*
X165285714Y-65047619D02*
X165238095Y-65000000D01*
X165142857Y-64952380D01*
X164904761Y-64952380D01*
X164809523Y-65000000D01*
X164761904Y-65047619D01*
X164714285Y-65142857D01*
X164714285Y-65238095D01*
X164761904Y-65380952D01*
X165333333Y-65952380D01*
X164714285Y-65952380D01*
X154787894Y-77276198D02*
X155553939Y-76633411D01*
X155400894Y-76451019D01*
X155272589Y-76372193D01*
X155138414Y-76360454D01*
X155034849Y-76385194D01*
X154858327Y-76471151D01*
X154748892Y-76562978D01*
X154633587Y-76721892D01*
X154591240Y-76819588D01*
X154579501Y-76953763D01*
X154634849Y-77093807D01*
X154787894Y-77276198D01*
X153808408Y-76108892D02*
X154175715Y-76546632D01*
X153992062Y-76327762D02*
X154758106Y-75684975D01*
X154709889Y-75849758D01*
X154698150Y-75983932D01*
X154722890Y-76087498D01*
X170181718Y-77717090D02*
X169579903Y-76918455D01*
X169389752Y-77061744D01*
X169304319Y-77185748D01*
X169285574Y-77319124D01*
X169304860Y-77423842D01*
X169381461Y-77604621D01*
X169467434Y-77718712D01*
X169620096Y-77842175D01*
X169715442Y-77889578D01*
X169848818Y-77908323D01*
X169991567Y-77860379D01*
X170181718Y-77717090D01*
X168876614Y-77567672D02*
X168809926Y-77558300D01*
X168705207Y-77577585D01*
X168515056Y-77720875D01*
X168467653Y-77816221D01*
X168458281Y-77882909D01*
X168477566Y-77987627D01*
X168534882Y-78063688D01*
X168658886Y-78149121D01*
X169459143Y-78261589D01*
X168964750Y-78634142D01*
X157345238Y-60297619D02*
X157440476Y-60250000D01*
X157535714Y-60154761D01*
X157678571Y-60011904D01*
X157773809Y-59964285D01*
X157869047Y-59964285D01*
X157821428Y-60202380D02*
X157916666Y-60154761D01*
X158011904Y-60059523D01*
X158059523Y-59869047D01*
X158059523Y-59535714D01*
X158011904Y-59345238D01*
X157916666Y-59250000D01*
X157821428Y-59202380D01*
X157630952Y-59202380D01*
X157535714Y-59250000D01*
X157440476Y-59345238D01*
X157392857Y-59535714D01*
X157392857Y-59869047D01*
X157440476Y-60059523D01*
X157535714Y-60154761D01*
X157630952Y-60202380D01*
X157821428Y-60202380D01*
X156440476Y-60202380D02*
X157011904Y-60202380D01*
X156726190Y-60202380D02*
X156726190Y-59202380D01*
X156821428Y-59345238D01*
X156916666Y-59440476D01*
X157011904Y-59488095D01*
X169547619Y-55904761D02*
X169500000Y-55809523D01*
X169404761Y-55714285D01*
X169261904Y-55571428D01*
X169214285Y-55476190D01*
X169214285Y-55380952D01*
X169452380Y-55428571D02*
X169404761Y-55333333D01*
X169309523Y-55238095D01*
X169119047Y-55190476D01*
X168785714Y-55190476D01*
X168595238Y-55238095D01*
X168500000Y-55333333D01*
X168452380Y-55428571D01*
X168452380Y-55619047D01*
X168500000Y-55714285D01*
X168595238Y-55809523D01*
X168785714Y-55857142D01*
X169119047Y-55857142D01*
X169309523Y-55809523D01*
X169404761Y-55714285D01*
X169452380Y-55619047D01*
X169452380Y-55428571D01*
X168547619Y-56238095D02*
X168500000Y-56285714D01*
X168452380Y-56380952D01*
X168452380Y-56619047D01*
X168500000Y-56714285D01*
X168547619Y-56761904D01*
X168642857Y-56809523D01*
X168738095Y-56809523D01*
X168880952Y-56761904D01*
X169452380Y-56190476D01*
X169452380Y-56809523D01*
X159666666Y-54357142D02*
X159714285Y-54404761D01*
X159857142Y-54452380D01*
X159952380Y-54452380D01*
X160095238Y-54404761D01*
X160190476Y-54309523D01*
X160238095Y-54214285D01*
X160285714Y-54023809D01*
X160285714Y-53880952D01*
X160238095Y-53690476D01*
X160190476Y-53595238D01*
X160095238Y-53500000D01*
X159952380Y-53452380D01*
X159857142Y-53452380D01*
X159714285Y-53500000D01*
X159666666Y-53547619D01*
X158714285Y-54452380D02*
X159285714Y-54452380D01*
X159000000Y-54452380D02*
X159000000Y-53452380D01*
X159095238Y-53595238D01*
X159190476Y-53690476D01*
X159285714Y-53738095D01*
X163916666Y-59357142D02*
X163964285Y-59404761D01*
X164107142Y-59452380D01*
X164202380Y-59452380D01*
X164345238Y-59404761D01*
X164440476Y-59309523D01*
X164488095Y-59214285D01*
X164535714Y-59023809D01*
X164535714Y-58880952D01*
X164488095Y-58690476D01*
X164440476Y-58595238D01*
X164345238Y-58500000D01*
X164202380Y-58452380D01*
X164107142Y-58452380D01*
X163964285Y-58500000D01*
X163916666Y-58547619D01*
X163535714Y-58547619D02*
X163488095Y-58500000D01*
X163392857Y-58452380D01*
X163154761Y-58452380D01*
X163059523Y-58500000D01*
X163011904Y-58547619D01*
X162964285Y-58642857D01*
X162964285Y-58738095D01*
X163011904Y-58880952D01*
X163583333Y-59452380D01*
X162964285Y-59452380D01*
M02*
