G04 #@! TF.GenerationSoftware,KiCad,Pcbnew,(5.1.7)-1*
G04 #@! TF.CreationDate,2020-12-19T00:30:41-03:00*
G04 #@! TF.ProjectId,Sorting Hat,536f7274-696e-4672-9048-61742e6b6963,rev?*
G04 #@! TF.SameCoordinates,Original*
G04 #@! TF.FileFunction,Legend,Top*
G04 #@! TF.FilePolarity,Positive*
%FSLAX46Y46*%
G04 Gerber Fmt 4.6, Leading zero omitted, Abs format (unit mm)*
G04 Created by KiCad (PCBNEW (5.1.7)-1) date 2020-12-19 00:30:41*
%MOMM*%
%LPD*%
G01*
G04 APERTURE LIST*
%ADD10C,0.010000*%
G04 APERTURE END LIST*
D10*
G36*
X166969171Y-46275566D02*
G01*
X167073777Y-46279464D01*
X167160053Y-46287461D01*
X167239987Y-46300793D01*
X167325565Y-46320695D01*
X167354179Y-46328145D01*
X167535060Y-46386307D01*
X167713576Y-46462485D01*
X167876032Y-46550160D01*
X167999306Y-46635190D01*
X168045062Y-46674682D01*
X168114660Y-46738619D01*
X168202164Y-46821359D01*
X168301635Y-46917261D01*
X168407136Y-47020684D01*
X168453500Y-47066685D01*
X168691379Y-47294720D01*
X168918587Y-47492595D01*
X169144767Y-47667291D01*
X169379563Y-47825790D01*
X169632617Y-47975074D01*
X169906546Y-48118624D01*
X170083985Y-48204676D01*
X170258793Y-48284124D01*
X170435055Y-48358225D01*
X170616854Y-48428234D01*
X170808275Y-48495407D01*
X171013401Y-48561001D01*
X171236316Y-48626271D01*
X171481105Y-48692474D01*
X171751852Y-48760865D01*
X172052640Y-48832702D01*
X172387554Y-48909238D01*
X172708000Y-48980218D01*
X173402959Y-49137597D01*
X174059524Y-49297323D01*
X174681618Y-49460695D01*
X175273169Y-49629012D01*
X175838101Y-49803574D01*
X176380339Y-49985680D01*
X176903809Y-50176629D01*
X177412436Y-50377722D01*
X177910146Y-50590256D01*
X178400864Y-50815532D01*
X178719333Y-50970100D01*
X179087852Y-51157783D01*
X179419619Y-51337852D01*
X179718898Y-51513156D01*
X179989957Y-51686543D01*
X180237062Y-51860861D01*
X180464481Y-52038958D01*
X180676479Y-52223683D01*
X180856410Y-52396739D01*
X181060518Y-52615708D01*
X181227004Y-52823959D01*
X181355463Y-53020759D01*
X181445488Y-53205373D01*
X181496674Y-53377068D01*
X181508617Y-53535110D01*
X181505545Y-53571374D01*
X181469935Y-53714221D01*
X181400395Y-53857161D01*
X181303554Y-53988149D01*
X181242580Y-54049367D01*
X181125235Y-54138309D01*
X180970289Y-54229738D01*
X180782271Y-54322012D01*
X180565712Y-54413487D01*
X180325141Y-54502519D01*
X180065089Y-54587465D01*
X179790084Y-54666681D01*
X179504658Y-54738525D01*
X179213339Y-54801351D01*
X179121500Y-54818933D01*
X178961948Y-54847850D01*
X178808156Y-54874100D01*
X178657104Y-54897886D01*
X178505771Y-54919412D01*
X178351137Y-54938883D01*
X178190181Y-54956501D01*
X178019883Y-54972472D01*
X177837222Y-54987000D01*
X177639178Y-55000287D01*
X177422731Y-55012539D01*
X177184860Y-55023959D01*
X176922544Y-55034752D01*
X176632764Y-55045121D01*
X176312498Y-55055271D01*
X175958727Y-55065405D01*
X175568429Y-55075728D01*
X175173916Y-55085580D01*
X174639040Y-55098773D01*
X174145187Y-55111209D01*
X173691054Y-55122933D01*
X173275340Y-55133989D01*
X172896741Y-55144421D01*
X172553955Y-55154275D01*
X172245678Y-55163594D01*
X171970610Y-55172422D01*
X171727447Y-55180805D01*
X171514885Y-55188787D01*
X171331624Y-55196412D01*
X171176360Y-55203725D01*
X171047791Y-55210770D01*
X170944614Y-55217591D01*
X170865526Y-55224233D01*
X170809225Y-55230740D01*
X170781833Y-55235417D01*
X170631512Y-55280868D01*
X170516672Y-55346147D01*
X170457225Y-55402895D01*
X170413634Y-55466083D01*
X170382355Y-55539986D01*
X170363591Y-55628250D01*
X170357542Y-55734518D01*
X170364409Y-55862433D01*
X170384393Y-56015638D01*
X170417694Y-56197777D01*
X170464513Y-56412493D01*
X170525052Y-56663430D01*
X170527149Y-56671827D01*
X170586525Y-56915586D01*
X170633595Y-57124423D01*
X170669096Y-57303690D01*
X170693761Y-57458738D01*
X170708325Y-57594921D01*
X170713522Y-57717591D01*
X170710087Y-57832100D01*
X170700177Y-57932945D01*
X170648685Y-58193722D01*
X170563270Y-58430798D01*
X170442189Y-58647977D01*
X170283700Y-58849064D01*
X170277402Y-58855913D01*
X170196455Y-58938570D01*
X170106299Y-59020331D01*
X170003439Y-59103514D01*
X169884378Y-59190436D01*
X169745622Y-59283416D01*
X169583673Y-59384769D01*
X169395036Y-59496815D01*
X169176216Y-59621869D01*
X168923717Y-59762249D01*
X168845083Y-59805396D01*
X168612753Y-59936143D01*
X168416527Y-60054918D01*
X168252867Y-60164606D01*
X168118237Y-60268090D01*
X168009098Y-60368252D01*
X167921914Y-60467978D01*
X167853146Y-60570149D01*
X167813253Y-60646412D01*
X167778723Y-60725473D01*
X167758570Y-60791070D01*
X167749183Y-60860838D01*
X167746951Y-60952418D01*
X167747015Y-60970000D01*
X167749959Y-61051956D01*
X167759064Y-61131547D01*
X167776196Y-61213798D01*
X167803224Y-61303731D01*
X167842014Y-61406373D01*
X167894432Y-61526747D01*
X167962345Y-61669877D01*
X168047621Y-61840788D01*
X168131240Y-62004079D01*
X168275800Y-62286184D01*
X168415159Y-62562345D01*
X168550930Y-62836100D01*
X168684726Y-63110986D01*
X168818157Y-63390539D01*
X168952838Y-63678298D01*
X169090379Y-63977798D01*
X169232394Y-64292578D01*
X169380494Y-64626173D01*
X169536292Y-64982122D01*
X169701400Y-65363961D01*
X169877430Y-65775227D01*
X170065994Y-66219457D01*
X170231302Y-66611280D01*
X170386187Y-66978995D01*
X170526047Y-67310265D01*
X170652129Y-67607727D01*
X170765678Y-67874018D01*
X170867939Y-68111777D01*
X170960159Y-68323639D01*
X171043583Y-68512242D01*
X171119457Y-68680223D01*
X171189026Y-68830220D01*
X171253537Y-68964869D01*
X171314234Y-69086807D01*
X171372364Y-69198673D01*
X171429172Y-69303102D01*
X171485904Y-69402731D01*
X171543806Y-69500200D01*
X171604123Y-69598143D01*
X171668102Y-69699199D01*
X171736987Y-69806004D01*
X171749449Y-69825191D01*
X171953058Y-70125151D01*
X172162788Y-70406216D01*
X172388611Y-70681046D01*
X172640496Y-70962300D01*
X172668981Y-70992848D01*
X172806527Y-71145239D01*
X172917935Y-71281824D01*
X173010668Y-71412551D01*
X173092188Y-71547367D01*
X173111883Y-71583232D01*
X173214512Y-71799226D01*
X173285106Y-72011630D01*
X173326105Y-72231489D01*
X173339948Y-72469846D01*
X173337270Y-72603672D01*
X173329596Y-72735098D01*
X173317077Y-72850139D01*
X173297299Y-72958978D01*
X173267849Y-73071799D01*
X173226314Y-73198786D01*
X173170278Y-73350123D01*
X173144733Y-73416000D01*
X173034117Y-73721766D01*
X172950325Y-74008813D01*
X172891051Y-74289142D01*
X172853991Y-74574750D01*
X172836839Y-74877639D01*
X172835000Y-75028318D01*
X172838772Y-75240514D01*
X172850927Y-75443616D01*
X172872722Y-75645209D01*
X172905413Y-75852877D01*
X172950256Y-76074203D01*
X173008509Y-76316772D01*
X173081427Y-76588166D01*
X173110428Y-76690607D01*
X173409978Y-77679335D01*
X173742147Y-78665614D01*
X174107715Y-79651114D01*
X174507460Y-80637503D01*
X174942162Y-81626451D01*
X175412599Y-82619626D01*
X175919553Y-83618699D01*
X176463800Y-84625337D01*
X177046122Y-85641211D01*
X177667296Y-86667989D01*
X178057948Y-87288379D01*
X178403925Y-87822717D01*
X178764060Y-88365136D01*
X179131284Y-88905302D01*
X179498531Y-89432877D01*
X179858733Y-89937528D01*
X180035310Y-90179836D01*
X180198777Y-90407834D01*
X180338325Y-90615933D01*
X180457447Y-90811829D01*
X180559634Y-91003216D01*
X180648378Y-91197788D01*
X180727170Y-91403240D01*
X180799503Y-91627266D01*
X180868867Y-91877559D01*
X180938754Y-92161816D01*
X180943070Y-92180250D01*
X180993155Y-92387952D01*
X181038773Y-92561382D01*
X181082292Y-92708045D01*
X181126081Y-92835445D01*
X181172508Y-92951088D01*
X181216941Y-93048083D01*
X181328838Y-93243411D01*
X181460512Y-93409343D01*
X181607592Y-93540539D01*
X181636658Y-93560924D01*
X181759186Y-93633249D01*
X181879472Y-93680412D01*
X182011297Y-93706298D01*
X182168442Y-93714789D01*
X182182788Y-93714833D01*
X182338247Y-93704858D01*
X182523401Y-93674762D01*
X182739014Y-93624290D01*
X182985850Y-93553185D01*
X183264673Y-93461191D01*
X183576248Y-93348052D01*
X183921339Y-93213513D01*
X184300710Y-93057317D01*
X184715126Y-92879208D01*
X184836500Y-92825838D01*
X185064395Y-92725443D01*
X185260531Y-92639742D01*
X185431692Y-92565921D01*
X185584662Y-92501168D01*
X185726226Y-92442667D01*
X185863166Y-92387604D01*
X186002268Y-92333167D01*
X186150315Y-92276541D01*
X186265250Y-92233212D01*
X187096199Y-91943706D01*
X187946399Y-91691481D01*
X188814561Y-91476798D01*
X189699398Y-91299921D01*
X190599624Y-91161111D01*
X191513952Y-91060630D01*
X192287166Y-91006289D01*
X192435559Y-90999854D01*
X192609381Y-90994592D01*
X192802643Y-90990498D01*
X193009351Y-90987568D01*
X193223516Y-90985799D01*
X193439145Y-90985186D01*
X193650247Y-90985726D01*
X193850830Y-90987415D01*
X194034905Y-90990248D01*
X194196478Y-90994222D01*
X194329559Y-90999332D01*
X194428157Y-91005576D01*
X194450628Y-91007724D01*
X194815190Y-91067933D01*
X195171552Y-91168468D01*
X195517147Y-91307695D01*
X195849411Y-91483984D01*
X196165778Y-91695703D01*
X196463683Y-91941219D01*
X196740560Y-92218902D01*
X196993843Y-92527119D01*
X197119687Y-92705355D01*
X197192813Y-92823995D01*
X197273467Y-92970206D01*
X197355643Y-93131684D01*
X197433330Y-93296126D01*
X197500522Y-93451228D01*
X197551208Y-93584687D01*
X197555815Y-93598416D01*
X197611189Y-93776563D01*
X197652690Y-93937291D01*
X197682086Y-94092327D01*
X197701145Y-94253397D01*
X197711636Y-94432230D01*
X197715327Y-94640553D01*
X197715376Y-94656750D01*
X197714856Y-94820535D01*
X197712098Y-94950399D01*
X197706569Y-95054721D01*
X197697736Y-95141878D01*
X197685066Y-95220249D01*
X197677041Y-95259142D01*
X197595741Y-95562816D01*
X197488656Y-95844218D01*
X197352374Y-96109373D01*
X197183483Y-96364312D01*
X196978572Y-96615061D01*
X196807283Y-96795925D01*
X196494778Y-97088115D01*
X196164723Y-97355467D01*
X195812935Y-97600556D01*
X195435229Y-97825955D01*
X195027420Y-98034237D01*
X194585324Y-98227975D01*
X194295386Y-98340722D01*
X194220317Y-98368266D01*
X194141698Y-98396247D01*
X194057483Y-98425266D01*
X193965624Y-98455925D01*
X193864073Y-98488825D01*
X193750783Y-98524566D01*
X193623706Y-98563752D01*
X193480794Y-98606982D01*
X193319999Y-98654858D01*
X193139275Y-98707982D01*
X192936573Y-98766954D01*
X192709846Y-98832376D01*
X192457046Y-98904848D01*
X192176125Y-98984974D01*
X191865037Y-99073353D01*
X191521732Y-99170587D01*
X191144164Y-99277277D01*
X190730285Y-99394024D01*
X190278048Y-99521431D01*
X190191666Y-99545753D01*
X189780492Y-99661539D01*
X189340783Y-99785404D01*
X188878465Y-99915677D01*
X188399465Y-100050687D01*
X187909711Y-100188761D01*
X187415128Y-100328227D01*
X186921645Y-100467415D01*
X186435189Y-100604652D01*
X185961685Y-100738267D01*
X185507062Y-100866588D01*
X185077246Y-100987944D01*
X184678164Y-101100662D01*
X184423750Y-101172547D01*
X184088511Y-101267175D01*
X183761300Y-101359324D01*
X183444772Y-101448256D01*
X183141582Y-101533234D01*
X182854385Y-101613521D01*
X182585836Y-101688380D01*
X182338590Y-101757072D01*
X182115302Y-101818862D01*
X181918628Y-101873012D01*
X181751222Y-101918785D01*
X181615740Y-101955442D01*
X181514836Y-101982248D01*
X181451166Y-101998465D01*
X181439250Y-102001261D01*
X181273422Y-102035193D01*
X181076162Y-102070066D01*
X180858293Y-102104265D01*
X180630637Y-102136174D01*
X180404017Y-102164177D01*
X180211583Y-102184542D01*
X180131268Y-102190347D01*
X180017211Y-102195514D01*
X179868326Y-102200059D01*
X179683526Y-102203999D01*
X179461723Y-102207351D01*
X179201831Y-102210132D01*
X178902764Y-102212358D01*
X178563433Y-102214045D01*
X178221916Y-102215120D01*
X177848973Y-102216287D01*
X177514015Y-102217964D01*
X177212696Y-102220270D01*
X176940672Y-102223325D01*
X176693596Y-102227248D01*
X176467122Y-102232157D01*
X176256904Y-102238172D01*
X176058597Y-102245410D01*
X175867854Y-102253993D01*
X175680330Y-102264037D01*
X175491679Y-102275663D01*
X175297555Y-102288989D01*
X175163333Y-102298848D01*
X174440752Y-102361535D01*
X173703564Y-102442350D01*
X172949933Y-102541674D01*
X172178025Y-102659887D01*
X171386005Y-102797372D01*
X170572039Y-102954508D01*
X169734290Y-103131677D01*
X168870925Y-103329259D01*
X167980108Y-103547636D01*
X167060005Y-103787188D01*
X166108781Y-104048297D01*
X165124601Y-104331343D01*
X164548250Y-104502616D01*
X164232897Y-104598002D01*
X163906073Y-104698118D01*
X163565246Y-104803778D01*
X163207887Y-104915794D01*
X162831462Y-105034979D01*
X162433443Y-105162147D01*
X162011296Y-105298109D01*
X161562491Y-105443680D01*
X161084498Y-105599671D01*
X160574784Y-105766896D01*
X160030819Y-105946168D01*
X159450072Y-106138299D01*
X159288333Y-106191921D01*
X158859508Y-106333880D01*
X158466489Y-106463365D01*
X158105059Y-106581700D01*
X157771002Y-106690204D01*
X157460100Y-106790201D01*
X157168136Y-106883012D01*
X156890895Y-106969958D01*
X156624158Y-107052361D01*
X156363709Y-107131543D01*
X156105332Y-107208825D01*
X155844809Y-107285529D01*
X155577924Y-107362977D01*
X155300460Y-107442491D01*
X155277250Y-107449103D01*
X153880793Y-107830128D01*
X152460627Y-108185024D01*
X151024099Y-108512302D01*
X149578558Y-108810474D01*
X148131352Y-109078052D01*
X146689830Y-109313547D01*
X145261340Y-109515471D01*
X144768000Y-109577670D01*
X144277277Y-109636651D01*
X143820411Y-109689509D01*
X143389478Y-109736959D01*
X142976556Y-109779715D01*
X142573724Y-109818495D01*
X142173061Y-109854012D01*
X141766643Y-109886984D01*
X141346550Y-109918125D01*
X140904859Y-109948151D01*
X140433648Y-109977777D01*
X140153666Y-109994476D01*
X140086904Y-109997192D01*
X139981460Y-109999907D01*
X139840987Y-110002602D01*
X139669136Y-110005257D01*
X139469559Y-110007850D01*
X139245909Y-110010363D01*
X139001836Y-110012774D01*
X138740993Y-110015063D01*
X138467032Y-110017211D01*
X138183605Y-110019196D01*
X137894363Y-110020999D01*
X137602958Y-110022599D01*
X137313043Y-110023977D01*
X137028269Y-110025112D01*
X136752288Y-110025983D01*
X136488751Y-110026571D01*
X136241312Y-110026855D01*
X136013621Y-110026815D01*
X135809331Y-110026431D01*
X135632094Y-110025683D01*
X135485561Y-110024550D01*
X135373383Y-110023012D01*
X135306500Y-110021327D01*
X134470439Y-109985472D01*
X133670536Y-109938866D01*
X132901851Y-109880905D01*
X132159443Y-109810990D01*
X131438371Y-109728517D01*
X130733696Y-109632885D01*
X130040476Y-109523493D01*
X129353772Y-109399738D01*
X128668643Y-109261020D01*
X128183916Y-109153909D01*
X127535138Y-108998048D01*
X126925828Y-108835554D01*
X126353486Y-108665363D01*
X125815615Y-108486414D01*
X125309716Y-108297642D01*
X124833293Y-108097985D01*
X124383845Y-107886380D01*
X123958876Y-107661764D01*
X123555887Y-107423074D01*
X123172379Y-107169246D01*
X122805856Y-106899219D01*
X122712333Y-106825669D01*
X122551175Y-106692004D01*
X122386148Y-106545608D01*
X122222979Y-106392264D01*
X122067392Y-106237754D01*
X121925114Y-106087860D01*
X121801870Y-105948365D01*
X121703386Y-105825049D01*
X121659068Y-105762004D01*
X121520559Y-105523187D01*
X121420191Y-105285268D01*
X121357941Y-105045509D01*
X121333785Y-104801169D01*
X121334132Y-104794884D01*
X121699116Y-104794884D01*
X121722986Y-105007088D01*
X121783986Y-105214899D01*
X121882418Y-105421477D01*
X122018586Y-105629982D01*
X122192793Y-105843576D01*
X122363083Y-106023576D01*
X122739357Y-106373635D01*
X123149173Y-106703683D01*
X123593153Y-107014047D01*
X124071920Y-107305052D01*
X124586099Y-107577025D01*
X125136311Y-107830293D01*
X125723179Y-108065181D01*
X126347328Y-108282017D01*
X127009379Y-108481127D01*
X127104416Y-108507412D01*
X128086441Y-108757325D01*
X129097420Y-108977473D01*
X130136021Y-109167668D01*
X131200914Y-109327723D01*
X132290766Y-109457451D01*
X133404245Y-109556665D01*
X134540021Y-109625177D01*
X135244366Y-109651848D01*
X135412206Y-109655974D01*
X135615241Y-109659587D01*
X135848450Y-109662684D01*
X136106811Y-109665263D01*
X136385301Y-109667323D01*
X136678899Y-109668862D01*
X136982583Y-109669879D01*
X137291330Y-109670370D01*
X137600118Y-109670335D01*
X137903926Y-109669771D01*
X138197731Y-109668677D01*
X138476511Y-109667050D01*
X138735244Y-109664890D01*
X138968908Y-109662194D01*
X139172481Y-109658960D01*
X139340941Y-109655187D01*
X139402250Y-109653368D01*
X139972269Y-109631858D01*
X140534081Y-109604580D01*
X141094162Y-109571011D01*
X141658989Y-109530628D01*
X142235038Y-109482907D01*
X142828785Y-109427325D01*
X143446706Y-109363361D01*
X144095278Y-109290489D01*
X144521095Y-109239945D01*
X146208265Y-109015034D01*
X147886463Y-108749386D01*
X149557074Y-108442720D01*
X151221482Y-108094752D01*
X152881071Y-107705200D01*
X154537224Y-107273783D01*
X155520666Y-106997371D01*
X155752178Y-106930199D01*
X155974842Y-106864861D01*
X156192650Y-106800095D01*
X156409595Y-106734643D01*
X156629672Y-106667243D01*
X156856873Y-106596637D01*
X157095191Y-106521564D01*
X157348620Y-106440763D01*
X157621153Y-106352976D01*
X157916784Y-106256942D01*
X158239505Y-106151401D01*
X158593310Y-106035094D01*
X158982192Y-105906759D01*
X159087250Y-105872024D01*
X159673501Y-105678380D01*
X160222367Y-105497630D01*
X160736504Y-105328936D01*
X161218570Y-105171458D01*
X161671223Y-105024357D01*
X162097120Y-104886794D01*
X162498919Y-104757930D01*
X162879277Y-104636926D01*
X163240853Y-104522944D01*
X163586303Y-104415144D01*
X163918286Y-104312686D01*
X164239459Y-104214733D01*
X164552479Y-104120445D01*
X164860005Y-104028982D01*
X165164693Y-103939507D01*
X165469202Y-103851180D01*
X165680666Y-103790445D01*
X166631321Y-103524472D01*
X167548909Y-103280172D01*
X168436383Y-103056972D01*
X169296695Y-102854302D01*
X170132798Y-102671590D01*
X170947643Y-102508266D01*
X171744183Y-102363758D01*
X172525371Y-102237494D01*
X173294159Y-102128905D01*
X174053498Y-102037419D01*
X174806342Y-101962464D01*
X175364416Y-101917053D01*
X175521355Y-101905973D01*
X175674503Y-101896266D01*
X175827845Y-101887840D01*
X175985366Y-101880603D01*
X176151051Y-101874462D01*
X176328883Y-101869325D01*
X176522848Y-101865099D01*
X176736930Y-101861693D01*
X176975114Y-101859012D01*
X177241385Y-101856966D01*
X177539727Y-101855461D01*
X177874125Y-101854406D01*
X178084333Y-101853967D01*
X178467697Y-101852985D01*
X178809780Y-101851470D01*
X179111629Y-101849406D01*
X179374295Y-101846778D01*
X179598824Y-101843572D01*
X179786266Y-101839771D01*
X179937668Y-101835362D01*
X180054081Y-101830329D01*
X180136552Y-101824657D01*
X180137500Y-101824570D01*
X180333712Y-101804349D01*
X180543937Y-101778836D01*
X180757787Y-101749564D01*
X180964875Y-101718065D01*
X181154813Y-101685872D01*
X181317216Y-101654517D01*
X181373975Y-101642136D01*
X181420251Y-101630477D01*
X181504877Y-101607941D01*
X181625469Y-101575189D01*
X181779648Y-101532887D01*
X181965033Y-101481698D01*
X182179243Y-101422287D01*
X182419897Y-101355316D01*
X182684613Y-101281451D01*
X182971011Y-101201355D01*
X183276710Y-101115692D01*
X183599330Y-101025125D01*
X183936488Y-100930320D01*
X184285805Y-100831939D01*
X184644899Y-100730647D01*
X184824141Y-100680029D01*
X185230862Y-100565146D01*
X185656055Y-100445084D01*
X186094953Y-100321186D01*
X186542787Y-100194797D01*
X186994788Y-100067263D01*
X187446188Y-99939928D01*
X187892218Y-99814137D01*
X188328109Y-99691234D01*
X188749094Y-99572565D01*
X189150402Y-99459474D01*
X189527266Y-99353306D01*
X189874918Y-99255406D01*
X190188588Y-99167119D01*
X190308083Y-99133500D01*
X190725573Y-99016033D01*
X191104610Y-98909315D01*
X191447504Y-98812674D01*
X191756564Y-98725440D01*
X192034101Y-98646941D01*
X192282426Y-98576506D01*
X192503847Y-98513464D01*
X192700677Y-98457143D01*
X192875224Y-98406873D01*
X193029799Y-98361982D01*
X193166713Y-98321800D01*
X193288275Y-98285654D01*
X193396795Y-98252874D01*
X193494585Y-98222788D01*
X193583953Y-98194726D01*
X193667211Y-98168015D01*
X193746669Y-98141986D01*
X193824636Y-98115966D01*
X193903423Y-98089285D01*
X193910472Y-98086883D01*
X194352329Y-97925716D01*
X194757757Y-97755195D01*
X195132159Y-97572477D01*
X195480936Y-97374716D01*
X195809490Y-97159068D01*
X196123222Y-96922688D01*
X196127122Y-96919551D01*
X196400371Y-96685793D01*
X196634568Y-96454751D01*
X196832452Y-96222376D01*
X196996762Y-95984620D01*
X197130234Y-95737432D01*
X197235608Y-95476765D01*
X197315621Y-95198569D01*
X197328142Y-95143583D01*
X197342596Y-95046818D01*
X197352091Y-94918700D01*
X197356735Y-94769906D01*
X197356637Y-94611112D01*
X197351903Y-94452995D01*
X197342641Y-94306231D01*
X197328960Y-94181497D01*
X197317794Y-94117506D01*
X197219104Y-93753759D01*
X197083712Y-93405132D01*
X196914048Y-93074360D01*
X196712541Y-92764177D01*
X196481620Y-92477320D01*
X196223713Y-92216521D01*
X195941251Y-91984518D01*
X195636663Y-91784044D01*
X195312377Y-91617834D01*
X194987446Y-91493898D01*
X194889523Y-91463120D01*
X194800910Y-91437239D01*
X194716851Y-91415834D01*
X194632590Y-91398483D01*
X194543370Y-91384766D01*
X194444434Y-91374262D01*
X194331028Y-91366550D01*
X194198394Y-91361209D01*
X194041775Y-91357817D01*
X193856417Y-91355953D01*
X193637561Y-91355198D01*
X193419583Y-91355112D01*
X193164895Y-91355903D01*
X192920025Y-91358024D01*
X192690629Y-91361361D01*
X192482362Y-91365797D01*
X192300881Y-91371218D01*
X192151839Y-91377509D01*
X192064916Y-91382717D01*
X191284336Y-91450499D01*
X190533736Y-91540444D01*
X189806288Y-91653799D01*
X189095164Y-91791813D01*
X188393538Y-91955734D01*
X187694583Y-92146810D01*
X187399047Y-92235809D01*
X187123405Y-92322910D01*
X186859640Y-92410391D01*
X186601159Y-92500780D01*
X186341368Y-92596603D01*
X186073675Y-92700387D01*
X185791487Y-92814657D01*
X185488211Y-92941940D01*
X185157254Y-93084763D01*
X184975066Y-93164672D01*
X184561318Y-93344111D01*
X184181969Y-93502518D01*
X183835078Y-93640570D01*
X183518700Y-93758943D01*
X183230893Y-93858314D01*
X182969713Y-93939360D01*
X182733217Y-94002757D01*
X182519462Y-94049183D01*
X182361668Y-94074810D01*
X182133939Y-94085812D01*
X181906024Y-94059531D01*
X181686922Y-93997898D01*
X181485636Y-93902843D01*
X181445674Y-93878304D01*
X181344029Y-93801069D01*
X181233707Y-93697440D01*
X181125217Y-93578761D01*
X181029068Y-93456374D01*
X180967180Y-93361848D01*
X180914299Y-93267211D01*
X180866998Y-93172813D01*
X180823414Y-93073152D01*
X180781681Y-92962723D01*
X180739938Y-92836024D01*
X180696320Y-92687552D01*
X180648965Y-92511804D01*
X180596008Y-92303277D01*
X180562117Y-92165658D01*
X180501167Y-91926061D01*
X180443083Y-91720129D01*
X180385114Y-91539568D01*
X180324511Y-91376085D01*
X180258523Y-91221387D01*
X180225694Y-91151081D01*
X180187776Y-91074043D01*
X180149195Y-91001140D01*
X180106625Y-90927304D01*
X180056740Y-90847465D01*
X179996214Y-90756555D01*
X179921724Y-90649505D01*
X179829942Y-90521248D01*
X179717544Y-90366714D01*
X179655561Y-90282080D01*
X179315268Y-89811850D01*
X178976269Y-89330506D01*
X178633704Y-88830978D01*
X178282717Y-88306191D01*
X177964350Y-87819916D01*
X177301948Y-86774305D01*
X176679095Y-85740245D01*
X176095078Y-84716220D01*
X175549180Y-83700713D01*
X175040686Y-82692208D01*
X174568880Y-81689191D01*
X174133046Y-80690143D01*
X173732469Y-79693550D01*
X173366433Y-78697896D01*
X173034223Y-77701663D01*
X172762888Y-76800949D01*
X172682841Y-76512184D01*
X172617615Y-76255141D01*
X172565999Y-76022366D01*
X172526784Y-75806399D01*
X172498761Y-75599785D01*
X172480718Y-75395065D01*
X172471447Y-75184782D01*
X172469570Y-74992916D01*
X172482611Y-74630414D01*
X172520490Y-74291544D01*
X172585258Y-73964259D01*
X172678966Y-73636513D01*
X172721909Y-73511250D01*
X172787326Y-73328561D01*
X172840224Y-73180656D01*
X172881927Y-73062309D01*
X172913761Y-72968299D01*
X172937050Y-72893402D01*
X172953119Y-72832395D01*
X172963294Y-72780056D01*
X172968899Y-72731160D01*
X172971258Y-72680485D01*
X172971698Y-72622808D01*
X172971544Y-72552905D01*
X172971585Y-72527000D01*
X172970890Y-72400310D01*
X172966930Y-72304198D01*
X172958425Y-72226954D01*
X172944091Y-72156868D01*
X172923018Y-72083411D01*
X172870931Y-71935120D01*
X172809797Y-71798118D01*
X172735087Y-71665388D01*
X172642272Y-71529917D01*
X172526823Y-71384689D01*
X172384213Y-71222691D01*
X172327993Y-71161750D01*
X172018696Y-70811216D01*
X171731847Y-70446824D01*
X171464316Y-70063607D01*
X171212975Y-69656597D01*
X170974696Y-69220828D01*
X170746351Y-68751331D01*
X170595073Y-68410083D01*
X170552881Y-68311196D01*
X170496269Y-68178114D01*
X170427273Y-68015644D01*
X170347931Y-67828594D01*
X170260280Y-67621771D01*
X170166358Y-67399984D01*
X170068202Y-67168040D01*
X169967848Y-66930746D01*
X169867336Y-66692911D01*
X169852722Y-66658316D01*
X169624620Y-66120571D01*
X169410219Y-65619903D01*
X169208352Y-65153749D01*
X169017854Y-64719550D01*
X168837558Y-64314745D01*
X168666298Y-63936773D01*
X168502908Y-63583074D01*
X168346221Y-63251086D01*
X168195070Y-62938249D01*
X168048291Y-62642003D01*
X167904716Y-62359785D01*
X167825977Y-62208250D01*
X167751546Y-62064722D01*
X167680445Y-61925069D01*
X167616085Y-61796191D01*
X167561881Y-61684984D01*
X167521244Y-61598349D01*
X167499837Y-61548977D01*
X167420990Y-61304206D01*
X167382795Y-61069194D01*
X167385166Y-60844607D01*
X167428019Y-60631108D01*
X167511269Y-60429364D01*
X167634829Y-60240039D01*
X167673558Y-60192919D01*
X167742518Y-60116238D01*
X167814645Y-60044408D01*
X167894151Y-59974516D01*
X167985245Y-59903646D01*
X168092139Y-59828884D01*
X168219043Y-59747317D01*
X168370167Y-59656028D01*
X168549723Y-59552105D01*
X168761920Y-59432632D01*
X168813333Y-59404010D01*
X169078862Y-59254346D01*
X169308879Y-59119664D01*
X169506401Y-58997410D01*
X169674445Y-58885027D01*
X169816029Y-58779960D01*
X169934170Y-58679654D01*
X170031884Y-58581554D01*
X170112190Y-58483103D01*
X170178105Y-58381746D01*
X170232645Y-58274928D01*
X170277427Y-58163980D01*
X170301424Y-58082604D01*
X170317900Y-57987478D01*
X170328460Y-57867515D01*
X170332423Y-57784416D01*
X170334856Y-57685578D01*
X170333610Y-57593915D01*
X170327675Y-57502999D01*
X170316042Y-57406400D01*
X170297704Y-57297688D01*
X170271652Y-57170433D01*
X170236878Y-57018205D01*
X170192372Y-56834576D01*
X170168073Y-56736666D01*
X170118280Y-56533989D01*
X170078892Y-56365674D01*
X170048799Y-56225343D01*
X170026893Y-56106620D01*
X170012064Y-56003130D01*
X170003202Y-55908496D01*
X169999199Y-55816341D01*
X169998666Y-55762891D01*
X170013778Y-55552984D01*
X170059596Y-55371989D01*
X170136843Y-55218934D01*
X170246243Y-55092846D01*
X170388518Y-54992752D01*
X170564392Y-54917679D01*
X170644250Y-54894454D01*
X170713545Y-54878830D01*
X170792206Y-54866049D01*
X170886906Y-54855489D01*
X171004323Y-54846529D01*
X171151132Y-54838547D01*
X171321583Y-54831393D01*
X171497662Y-54824985D01*
X171710898Y-54817730D01*
X171956128Y-54809776D01*
X172228188Y-54801273D01*
X172521914Y-54792369D01*
X172832143Y-54783213D01*
X173153709Y-54773955D01*
X173481449Y-54764744D01*
X173810200Y-54755728D01*
X174134797Y-54747056D01*
X174450077Y-54738878D01*
X174750875Y-54731342D01*
X174983416Y-54725739D01*
X175405840Y-54715581D01*
X175788911Y-54705900D01*
X176135603Y-54696516D01*
X176448892Y-54687250D01*
X176731753Y-54677924D01*
X176987160Y-54668358D01*
X177218088Y-54658374D01*
X177427512Y-54647791D01*
X177618408Y-54636431D01*
X177793750Y-54624116D01*
X177956513Y-54610665D01*
X178109671Y-54595899D01*
X178256201Y-54579641D01*
X178399077Y-54561710D01*
X178541274Y-54541927D01*
X178685766Y-54520114D01*
X178835529Y-54496090D01*
X178856997Y-54492555D01*
X179136903Y-54441338D01*
X179417697Y-54380525D01*
X179693514Y-54311906D01*
X179958494Y-54237271D01*
X180206775Y-54158410D01*
X180432494Y-54077113D01*
X180629789Y-53995171D01*
X180792799Y-53914373D01*
X180840324Y-53886904D01*
X180935088Y-53820120D01*
X181019880Y-53743150D01*
X181086852Y-53664579D01*
X181128154Y-53592991D01*
X181136686Y-53562770D01*
X181133334Y-53450377D01*
X181094549Y-53321493D01*
X181022719Y-53178636D01*
X180920236Y-53024328D01*
X180789489Y-52861088D01*
X180632869Y-52691435D01*
X180452765Y-52517890D01*
X180251568Y-52342973D01*
X180031668Y-52169203D01*
X179795455Y-51999101D01*
X179545319Y-51835186D01*
X179433032Y-51766610D01*
X179280955Y-51678888D01*
X179098097Y-51578549D01*
X178892563Y-51469709D01*
X178672455Y-51356485D01*
X178445880Y-51242993D01*
X178220941Y-51133350D01*
X178005743Y-51031674D01*
X177819750Y-50947115D01*
X177366057Y-50752105D01*
X176905073Y-50567070D01*
X176432997Y-50390847D01*
X175946028Y-50222273D01*
X175440366Y-50060186D01*
X174912209Y-49903423D01*
X174357758Y-49750823D01*
X173773210Y-49601222D01*
X173154765Y-49453459D01*
X172498623Y-49306370D01*
X172350249Y-49274289D01*
X171975957Y-49191646D01*
X171638453Y-49112117D01*
X171332461Y-49034036D01*
X171052708Y-48955735D01*
X170793917Y-48875547D01*
X170550814Y-48791805D01*
X170318125Y-48702843D01*
X170090574Y-48606993D01*
X169862887Y-48502589D01*
X169776416Y-48460904D01*
X169439922Y-48285291D01*
X169130283Y-48098596D01*
X168838422Y-47894255D01*
X168555257Y-47665709D01*
X168271711Y-47406396D01*
X168146856Y-47283243D01*
X167980850Y-47120214D01*
X167834813Y-46987442D01*
X167702655Y-46881818D01*
X167578288Y-46800234D01*
X167455625Y-46739583D01*
X167328575Y-46696756D01*
X167191052Y-46668646D01*
X167036965Y-46652145D01*
X166896880Y-46645188D01*
X166796963Y-46642527D01*
X166712387Y-46642185D01*
X166634463Y-46645022D01*
X166554503Y-46651903D01*
X166463817Y-46663688D01*
X166353715Y-46681242D01*
X166215508Y-46705426D01*
X166124297Y-46721879D01*
X165954010Y-46752284D01*
X165757068Y-46786684D01*
X165548631Y-46822477D01*
X165343861Y-46857064D01*
X165157920Y-46887845D01*
X165130333Y-46892339D01*
X164386286Y-47017145D01*
X163681366Y-47143532D01*
X163012375Y-47272235D01*
X162376113Y-47403988D01*
X161769383Y-47539526D01*
X161188987Y-47679583D01*
X160631726Y-47824892D01*
X160094402Y-47976188D01*
X159573816Y-48134205D01*
X159214250Y-48250336D01*
X158864567Y-48372697D01*
X158553137Y-48496460D01*
X158275900Y-48624393D01*
X158028795Y-48759264D01*
X157807765Y-48903843D01*
X157608749Y-49060896D01*
X157427688Y-49233192D01*
X157260523Y-49423501D01*
X157103195Y-49634588D01*
X157034865Y-49736571D01*
X156963879Y-49851865D01*
X156893491Y-49979051D01*
X156823041Y-50120140D01*
X156751865Y-50277143D01*
X156679304Y-50452070D01*
X156604696Y-50646930D01*
X156527378Y-50863735D01*
X156446690Y-51104494D01*
X156361970Y-51371218D01*
X156272558Y-51665918D01*
X156177790Y-51990602D01*
X156077006Y-52347283D01*
X155969544Y-52737970D01*
X155854743Y-53164672D01*
X155731942Y-53629402D01*
X155647406Y-53953250D01*
X155543888Y-54350493D01*
X155450515Y-54706702D01*
X155367270Y-55021937D01*
X155294139Y-55296260D01*
X155231103Y-55529732D01*
X155178147Y-55722413D01*
X155136846Y-55868833D01*
X155058953Y-56133541D01*
X154975588Y-56405053D01*
X154888950Y-56676865D01*
X154801241Y-56942470D01*
X154714660Y-57195365D01*
X154631409Y-57429043D01*
X154553687Y-57636999D01*
X154483694Y-57812728D01*
X154461872Y-57864387D01*
X154337423Y-58115406D01*
X154191205Y-58343352D01*
X154027233Y-58543122D01*
X153849520Y-58709614D01*
X153727076Y-58798517D01*
X153592408Y-58877408D01*
X153455444Y-58939560D01*
X153304112Y-58989435D01*
X153126343Y-59031491D01*
X153063354Y-59043754D01*
X152752815Y-59116011D01*
X152472976Y-59212342D01*
X152217728Y-59335912D01*
X151980964Y-59489882D01*
X151756577Y-59677413D01*
X151662489Y-59769041D01*
X151515349Y-59930996D01*
X151374933Y-60112359D01*
X151238613Y-60317433D01*
X151103763Y-60550521D01*
X150967755Y-60815926D01*
X150827962Y-61117949D01*
X150799955Y-61181666D01*
X150595507Y-61664325D01*
X150411388Y-62129740D01*
X150244518Y-62587327D01*
X150091815Y-63046500D01*
X149950196Y-63516675D01*
X149816580Y-64007266D01*
X149687885Y-64527689D01*
X149646352Y-64705916D01*
X149490902Y-65299929D01*
X149304053Y-65866026D01*
X149085893Y-66404046D01*
X148836514Y-66913830D01*
X148556006Y-67395218D01*
X148244459Y-67848049D01*
X147901963Y-68272163D01*
X147528609Y-68667401D01*
X147287720Y-68892490D01*
X147040299Y-69117101D01*
X146828134Y-69318370D01*
X146651191Y-69496332D01*
X146509432Y-69651025D01*
X146441000Y-69733000D01*
X146200886Y-70064623D01*
X146000832Y-70408242D01*
X145839628Y-70766432D01*
X145716062Y-71141767D01*
X145652800Y-71408684D01*
X145636704Y-71493091D01*
X145624565Y-71571132D01*
X145615850Y-71650960D01*
X145610026Y-71740728D01*
X145606559Y-71848588D01*
X145604916Y-71982695D01*
X145604561Y-72146000D01*
X145605205Y-72317163D01*
X145607309Y-72454663D01*
X145611428Y-72567161D01*
X145618110Y-72663317D01*
X145627909Y-72751792D01*
X145641376Y-72841246D01*
X145653082Y-72908000D01*
X145682653Y-73066180D01*
X145714553Y-73228705D01*
X145749522Y-73398734D01*
X145788304Y-73579431D01*
X145831641Y-73773957D01*
X145880275Y-73985472D01*
X145934948Y-74217139D01*
X145996403Y-74472120D01*
X146065381Y-74753576D01*
X146142626Y-75064668D01*
X146228878Y-75408558D01*
X146324882Y-75788408D01*
X146383558Y-76019500D01*
X146435712Y-76226099D01*
X146486429Y-76429799D01*
X146534342Y-76624923D01*
X146578087Y-76805792D01*
X146616299Y-76966729D01*
X146647612Y-77102056D01*
X146670663Y-77206096D01*
X146681243Y-77257750D01*
X146769509Y-77816083D01*
X146818340Y-78364725D01*
X146827796Y-78902564D01*
X146797938Y-79428492D01*
X146728826Y-79941400D01*
X146620522Y-80440178D01*
X146482161Y-80897682D01*
X146437471Y-81024934D01*
X146396732Y-81135650D01*
X146355826Y-81239795D01*
X146310637Y-81347332D01*
X146257046Y-81468228D01*
X146190937Y-81612446D01*
X146153882Y-81692166D01*
X146028028Y-81979808D01*
X145924744Y-82257303D01*
X145841709Y-82534046D01*
X145776603Y-82819430D01*
X145727105Y-83122849D01*
X145690894Y-83453698D01*
X145678014Y-83618333D01*
X145629555Y-84144465D01*
X145559165Y-84639422D01*
X145465488Y-85109025D01*
X145347171Y-85559096D01*
X145202858Y-85995456D01*
X145031193Y-86423926D01*
X145017724Y-86454666D01*
X144833230Y-86843113D01*
X144628222Y-87215564D01*
X144398720Y-87577919D01*
X144140745Y-87936075D01*
X143850319Y-88295933D01*
X143540113Y-88645416D01*
X143249003Y-88984944D01*
X142997294Y-89332080D01*
X142784260Y-89689015D01*
X142609174Y-90057940D01*
X142471308Y-90441045D01*
X142369935Y-90840521D01*
X142304327Y-91258558D01*
X142273758Y-91697348D01*
X142277499Y-92159081D01*
X142292342Y-92403560D01*
X142305125Y-92555964D01*
X142320604Y-92715472D01*
X142339261Y-92885532D01*
X142361578Y-93069592D01*
X142388036Y-93271100D01*
X142419119Y-93493504D01*
X142455308Y-93740251D01*
X142497085Y-94014790D01*
X142544933Y-94320569D01*
X142599334Y-94661036D01*
X142660770Y-95039638D01*
X142662190Y-95048333D01*
X142716330Y-95383476D01*
X142763037Y-95681499D01*
X142802762Y-95946871D01*
X142835957Y-96184064D01*
X142863072Y-96397550D01*
X142884558Y-96591801D01*
X142900864Y-96771287D01*
X142912443Y-96940481D01*
X142919745Y-97103853D01*
X142923220Y-97265874D01*
X142923320Y-97431018D01*
X142920495Y-97603754D01*
X142920360Y-97609500D01*
X142915705Y-97778727D01*
X142910134Y-97914606D01*
X142902842Y-98026120D01*
X142893024Y-98122254D01*
X142879875Y-98211992D01*
X142862591Y-98304319D01*
X142854734Y-98342130D01*
X142763435Y-98695632D01*
X142645101Y-99018821D01*
X142497722Y-99315528D01*
X142319290Y-99589584D01*
X142107796Y-99844818D01*
X142017553Y-99938456D01*
X141765989Y-100165119D01*
X141496839Y-100359718D01*
X141206829Y-100523806D01*
X140892684Y-100658934D01*
X140551130Y-100766654D01*
X140178892Y-100848518D01*
X140053110Y-100869453D01*
X139796917Y-100903523D01*
X139531448Y-100927559D01*
X139254155Y-100941340D01*
X138962489Y-100944644D01*
X138653900Y-100937251D01*
X138325840Y-100918939D01*
X137975759Y-100889488D01*
X137601109Y-100848675D01*
X137199340Y-100796280D01*
X136767904Y-100732082D01*
X136304251Y-100655859D01*
X135805832Y-100567391D01*
X135270098Y-100466455D01*
X135158333Y-100444769D01*
X134772297Y-100369897D01*
X134423903Y-100303172D01*
X134109378Y-100243969D01*
X133824951Y-100191661D01*
X133566848Y-100145623D01*
X133331298Y-100105229D01*
X133114527Y-100069853D01*
X132912764Y-100038869D01*
X132722235Y-100011652D01*
X132539170Y-99987576D01*
X132359794Y-99966014D01*
X132180337Y-99946342D01*
X132110333Y-99939130D01*
X131369816Y-99880811D01*
X130641597Y-99856932D01*
X129927765Y-99867329D01*
X129230409Y-99911837D01*
X128551617Y-99990290D01*
X127893478Y-100102525D01*
X127258081Y-100248375D01*
X126892750Y-100350716D01*
X126529970Y-100467330D01*
X126152482Y-100603170D01*
X125769631Y-100754221D01*
X125390766Y-100916471D01*
X125025231Y-101085905D01*
X124682375Y-101258509D01*
X124371544Y-101430270D01*
X124351389Y-101442062D01*
X123899831Y-101727381D01*
X123486386Y-102030552D01*
X123110568Y-102352036D01*
X122771895Y-102692291D01*
X122469883Y-103051777D01*
X122204048Y-103430954D01*
X122126060Y-103557333D01*
X121968844Y-103838916D01*
X121847238Y-104100302D01*
X121761545Y-104344652D01*
X121712070Y-104575126D01*
X121699116Y-104794884D01*
X121334132Y-104794884D01*
X121347700Y-104549510D01*
X121399663Y-104287791D01*
X121489650Y-104013273D01*
X121617637Y-103723216D01*
X121641308Y-103675836D01*
X121862682Y-103280836D01*
X122116695Y-102905248D01*
X122404326Y-102548193D01*
X122726553Y-102208788D01*
X123084357Y-101886152D01*
X123478717Y-101579404D01*
X123910610Y-101287663D01*
X124381018Y-101010048D01*
X124890917Y-100745676D01*
X124903083Y-100739761D01*
X125500405Y-100467297D01*
X126097212Y-100230945D01*
X126698961Y-100029210D01*
X127311112Y-99860598D01*
X127939120Y-99723616D01*
X128588445Y-99616770D01*
X129264542Y-99538567D01*
X129305750Y-99534783D01*
X129455235Y-99523888D01*
X129638831Y-99514751D01*
X129848345Y-99507461D01*
X130075589Y-99502109D01*
X130312369Y-99498782D01*
X130550497Y-99497573D01*
X130781782Y-99498569D01*
X130998032Y-99501862D01*
X131191057Y-99507539D01*
X131306000Y-99512872D01*
X131514159Y-99524986D01*
X131710376Y-99537740D01*
X131898108Y-99551643D01*
X132080812Y-99567201D01*
X132261948Y-99584926D01*
X132444974Y-99605324D01*
X132633346Y-99628905D01*
X132830524Y-99656177D01*
X133039966Y-99687650D01*
X133265128Y-99723831D01*
X133509471Y-99765230D01*
X133776451Y-99812355D01*
X134069526Y-99865715D01*
X134392155Y-99925819D01*
X134747797Y-99993175D01*
X135139907Y-100068291D01*
X135327666Y-100104470D01*
X135689496Y-100173591D01*
X136016347Y-100234417D01*
X136314541Y-100287938D01*
X136590402Y-100335148D01*
X136850252Y-100377039D01*
X137100413Y-100414604D01*
X137347207Y-100448836D01*
X137596959Y-100480727D01*
X137855990Y-100511271D01*
X138068750Y-100534820D01*
X138197197Y-100545508D01*
X138356186Y-100553691D01*
X138538325Y-100559412D01*
X138736221Y-100562715D01*
X138942481Y-100563644D01*
X139149713Y-100562242D01*
X139350522Y-100558554D01*
X139537518Y-100552623D01*
X139703307Y-100544493D01*
X139840496Y-100534208D01*
X139929171Y-100523793D01*
X140302698Y-100452868D01*
X140644096Y-100357111D01*
X140956239Y-100235500D01*
X141242000Y-100087012D01*
X141354156Y-100016840D01*
X141619188Y-99817552D01*
X141852881Y-99590013D01*
X142054810Y-99334895D01*
X142224549Y-99052871D01*
X142361671Y-98744613D01*
X142465750Y-98410794D01*
X142514368Y-98186540D01*
X142532628Y-98056360D01*
X142546783Y-97893681D01*
X142556582Y-97708163D01*
X142561770Y-97509463D01*
X142562094Y-97307241D01*
X142557302Y-97111155D01*
X142547239Y-96932166D01*
X142535103Y-96783703D01*
X142521115Y-96635500D01*
X142504602Y-96482597D01*
X142484891Y-96320029D01*
X142461311Y-96142837D01*
X142433190Y-95946056D01*
X142399855Y-95724725D01*
X142360635Y-95473883D01*
X142314856Y-95188566D01*
X142292056Y-95048333D01*
X142231703Y-94676853D01*
X142178190Y-94343657D01*
X142131114Y-94045318D01*
X142090075Y-93778410D01*
X142054670Y-93539506D01*
X142024496Y-93325182D01*
X141999152Y-93132010D01*
X141978235Y-92956566D01*
X141961344Y-92795421D01*
X141948076Y-92645152D01*
X141938029Y-92502330D01*
X141930801Y-92363531D01*
X141925991Y-92225329D01*
X141923195Y-92084296D01*
X141922013Y-91937008D01*
X141921916Y-91894500D01*
X141922723Y-91669000D01*
X141926352Y-91477409D01*
X141933714Y-91311345D01*
X141945719Y-91162426D01*
X141963278Y-91022271D01*
X141987301Y-90882498D01*
X142018700Y-90734725D01*
X142058384Y-90570571D01*
X142071245Y-90519981D01*
X142180426Y-90155346D01*
X142318169Y-89805447D01*
X142486862Y-89466138D01*
X142688895Y-89133277D01*
X142926658Y-88802720D01*
X143202539Y-88470324D01*
X143341348Y-88317333D01*
X143699073Y-87907345D01*
X144017156Y-87487993D01*
X144297892Y-87055686D01*
X144543578Y-86606828D01*
X144756511Y-86137826D01*
X144795122Y-86041916D01*
X144918345Y-85708772D01*
X145022492Y-85380110D01*
X145109291Y-85047896D01*
X145180468Y-84704093D01*
X145237751Y-84340670D01*
X145282866Y-83949590D01*
X145308131Y-83655091D01*
X145337342Y-83322601D01*
X145373260Y-83024110D01*
X145417873Y-82751546D01*
X145473168Y-82496840D01*
X145541132Y-82251921D01*
X145623754Y-82008717D01*
X145723021Y-81759158D01*
X145839061Y-81499158D01*
X145991773Y-81154461D01*
X146118309Y-80828846D01*
X146222096Y-80511130D01*
X146306558Y-80190130D01*
X146375120Y-79854663D01*
X146412058Y-79628416D01*
X146424337Y-79536014D01*
X146433811Y-79438827D01*
X146440776Y-79330023D01*
X146445528Y-79202769D01*
X146448363Y-79050233D01*
X146449578Y-78865583D01*
X146449671Y-78760583D01*
X146449003Y-78586194D01*
X146446752Y-78426132D01*
X146442271Y-78276559D01*
X146434910Y-78133638D01*
X146424020Y-77993533D01*
X146408954Y-77852406D01*
X146389061Y-77706421D01*
X146363693Y-77551742D01*
X146332202Y-77384530D01*
X146293938Y-77200949D01*
X146248253Y-76997163D01*
X146194498Y-76769333D01*
X146132024Y-76513625D01*
X146060182Y-76226200D01*
X145978324Y-75903221D01*
X145943214Y-75765500D01*
X145831597Y-75325908D01*
X145731019Y-74924519D01*
X145641024Y-74558792D01*
X145561157Y-74226186D01*
X145490962Y-73924162D01*
X145429983Y-73650179D01*
X145377765Y-73401695D01*
X145333850Y-73176172D01*
X145297785Y-72971068D01*
X145269112Y-72783844D01*
X145247377Y-72611958D01*
X145232123Y-72452871D01*
X145222895Y-72304041D01*
X145219236Y-72162929D01*
X145220691Y-72026995D01*
X145226805Y-71893697D01*
X145233055Y-71807333D01*
X145286639Y-71387689D01*
X145377479Y-70986638D01*
X145506293Y-70602519D01*
X145673801Y-70233669D01*
X145880722Y-69878426D01*
X146127777Y-69535126D01*
X146311082Y-69316632D01*
X146388971Y-69233126D01*
X146490050Y-69131076D01*
X146605224Y-69019318D01*
X146725395Y-68906687D01*
X146835587Y-68807203D01*
X147190453Y-68479561D01*
X147508241Y-68154940D01*
X147793311Y-67827704D01*
X148050023Y-67492216D01*
X148282737Y-67142839D01*
X148495814Y-66773937D01*
X148662547Y-66445401D01*
X148773628Y-66205721D01*
X148873083Y-65973034D01*
X148963339Y-65740051D01*
X149046821Y-65499483D01*
X149125956Y-65244044D01*
X149203169Y-64966444D01*
X149280887Y-64659395D01*
X149339488Y-64411797D01*
X149555449Y-63566704D01*
X149810380Y-62733026D01*
X150105303Y-61907734D01*
X150441244Y-61087798D01*
X150534490Y-60877218D01*
X150665649Y-60596655D01*
X150791894Y-60351100D01*
X150917255Y-60134188D01*
X151045762Y-59939549D01*
X151181443Y-59760814D01*
X151328329Y-59591616D01*
X151387751Y-59528673D01*
X151616875Y-59311470D01*
X151853527Y-59129353D01*
X152103959Y-58978986D01*
X152374426Y-58857032D01*
X152671180Y-58760154D01*
X152950570Y-58694670D01*
X153121410Y-58657538D01*
X153258960Y-58619720D01*
X153372182Y-58577870D01*
X153470034Y-58528642D01*
X153561478Y-58468689D01*
X153567507Y-58464272D01*
X153674647Y-58378495D01*
X153771671Y-58284895D01*
X153861111Y-58179150D01*
X153945503Y-58056936D01*
X154027381Y-57913929D01*
X154109280Y-57745806D01*
X154193735Y-57548244D01*
X154283279Y-57316920D01*
X154353666Y-57123270D01*
X154420506Y-56932059D01*
X154486850Y-56735000D01*
X154553639Y-56528827D01*
X154621814Y-56310271D01*
X154692316Y-56076062D01*
X154766085Y-55822935D01*
X154844064Y-55547618D01*
X154927192Y-55246846D01*
X155016411Y-54917348D01*
X155112661Y-54555857D01*
X155216885Y-54159105D01*
X155308978Y-53805083D01*
X155446162Y-53280557D01*
X155575405Y-52796416D01*
X155697046Y-52351531D01*
X155811427Y-51944770D01*
X155918888Y-51575004D01*
X156019769Y-51241103D01*
X156114412Y-50941936D01*
X156203156Y-50676375D01*
X156286343Y-50443287D01*
X156364312Y-50241544D01*
X156429143Y-50088451D01*
X156612044Y-49726638D01*
X156825567Y-49394036D01*
X157069449Y-49090907D01*
X157343428Y-48817509D01*
X157647240Y-48574103D01*
X157980621Y-48360950D01*
X158343309Y-48178309D01*
X158375474Y-48164203D01*
X158453354Y-48132516D01*
X158562823Y-48090894D01*
X158695205Y-48042484D01*
X158841829Y-47990431D01*
X158994020Y-47937880D01*
X159073974Y-47910901D01*
X159583975Y-47746736D01*
X160114066Y-47588841D01*
X160666817Y-47436626D01*
X161244796Y-47289502D01*
X161850573Y-47146879D01*
X162486716Y-47008167D01*
X163155794Y-46872777D01*
X163860376Y-46740118D01*
X164603031Y-46609600D01*
X165109166Y-46525344D01*
X165289976Y-46495427D01*
X165483226Y-46462698D01*
X165677191Y-46429194D01*
X165860145Y-46396954D01*
X166020365Y-46368015D01*
X166104000Y-46352461D01*
X166258721Y-46323979D01*
X166383294Y-46303293D01*
X166488938Y-46289207D01*
X166586870Y-46280522D01*
X166688310Y-46276042D01*
X166804477Y-46274569D01*
X166834250Y-46274530D01*
X166969171Y-46275566D01*
G37*
X166969171Y-46275566D02*
X167073777Y-46279464D01*
X167160053Y-46287461D01*
X167239987Y-46300793D01*
X167325565Y-46320695D01*
X167354179Y-46328145D01*
X167535060Y-46386307D01*
X167713576Y-46462485D01*
X167876032Y-46550160D01*
X167999306Y-46635190D01*
X168045062Y-46674682D01*
X168114660Y-46738619D01*
X168202164Y-46821359D01*
X168301635Y-46917261D01*
X168407136Y-47020684D01*
X168453500Y-47066685D01*
X168691379Y-47294720D01*
X168918587Y-47492595D01*
X169144767Y-47667291D01*
X169379563Y-47825790D01*
X169632617Y-47975074D01*
X169906546Y-48118624D01*
X170083985Y-48204676D01*
X170258793Y-48284124D01*
X170435055Y-48358225D01*
X170616854Y-48428234D01*
X170808275Y-48495407D01*
X171013401Y-48561001D01*
X171236316Y-48626271D01*
X171481105Y-48692474D01*
X171751852Y-48760865D01*
X172052640Y-48832702D01*
X172387554Y-48909238D01*
X172708000Y-48980218D01*
X173402959Y-49137597D01*
X174059524Y-49297323D01*
X174681618Y-49460695D01*
X175273169Y-49629012D01*
X175838101Y-49803574D01*
X176380339Y-49985680D01*
X176903809Y-50176629D01*
X177412436Y-50377722D01*
X177910146Y-50590256D01*
X178400864Y-50815532D01*
X178719333Y-50970100D01*
X179087852Y-51157783D01*
X179419619Y-51337852D01*
X179718898Y-51513156D01*
X179989957Y-51686543D01*
X180237062Y-51860861D01*
X180464481Y-52038958D01*
X180676479Y-52223683D01*
X180856410Y-52396739D01*
X181060518Y-52615708D01*
X181227004Y-52823959D01*
X181355463Y-53020759D01*
X181445488Y-53205373D01*
X181496674Y-53377068D01*
X181508617Y-53535110D01*
X181505545Y-53571374D01*
X181469935Y-53714221D01*
X181400395Y-53857161D01*
X181303554Y-53988149D01*
X181242580Y-54049367D01*
X181125235Y-54138309D01*
X180970289Y-54229738D01*
X180782271Y-54322012D01*
X180565712Y-54413487D01*
X180325141Y-54502519D01*
X180065089Y-54587465D01*
X179790084Y-54666681D01*
X179504658Y-54738525D01*
X179213339Y-54801351D01*
X179121500Y-54818933D01*
X178961948Y-54847850D01*
X178808156Y-54874100D01*
X178657104Y-54897886D01*
X178505771Y-54919412D01*
X178351137Y-54938883D01*
X178190181Y-54956501D01*
X178019883Y-54972472D01*
X177837222Y-54987000D01*
X177639178Y-55000287D01*
X177422731Y-55012539D01*
X177184860Y-55023959D01*
X176922544Y-55034752D01*
X176632764Y-55045121D01*
X176312498Y-55055271D01*
X175958727Y-55065405D01*
X175568429Y-55075728D01*
X175173916Y-55085580D01*
X174639040Y-55098773D01*
X174145187Y-55111209D01*
X173691054Y-55122933D01*
X173275340Y-55133989D01*
X172896741Y-55144421D01*
X172553955Y-55154275D01*
X172245678Y-55163594D01*
X171970610Y-55172422D01*
X171727447Y-55180805D01*
X171514885Y-55188787D01*
X171331624Y-55196412D01*
X171176360Y-55203725D01*
X171047791Y-55210770D01*
X170944614Y-55217591D01*
X170865526Y-55224233D01*
X170809225Y-55230740D01*
X170781833Y-55235417D01*
X170631512Y-55280868D01*
X170516672Y-55346147D01*
X170457225Y-55402895D01*
X170413634Y-55466083D01*
X170382355Y-55539986D01*
X170363591Y-55628250D01*
X170357542Y-55734518D01*
X170364409Y-55862433D01*
X170384393Y-56015638D01*
X170417694Y-56197777D01*
X170464513Y-56412493D01*
X170525052Y-56663430D01*
X170527149Y-56671827D01*
X170586525Y-56915586D01*
X170633595Y-57124423D01*
X170669096Y-57303690D01*
X170693761Y-57458738D01*
X170708325Y-57594921D01*
X170713522Y-57717591D01*
X170710087Y-57832100D01*
X170700177Y-57932945D01*
X170648685Y-58193722D01*
X170563270Y-58430798D01*
X170442189Y-58647977D01*
X170283700Y-58849064D01*
X170277402Y-58855913D01*
X170196455Y-58938570D01*
X170106299Y-59020331D01*
X170003439Y-59103514D01*
X169884378Y-59190436D01*
X169745622Y-59283416D01*
X169583673Y-59384769D01*
X169395036Y-59496815D01*
X169176216Y-59621869D01*
X168923717Y-59762249D01*
X168845083Y-59805396D01*
X168612753Y-59936143D01*
X168416527Y-60054918D01*
X168252867Y-60164606D01*
X168118237Y-60268090D01*
X168009098Y-60368252D01*
X167921914Y-60467978D01*
X167853146Y-60570149D01*
X167813253Y-60646412D01*
X167778723Y-60725473D01*
X167758570Y-60791070D01*
X167749183Y-60860838D01*
X167746951Y-60952418D01*
X167747015Y-60970000D01*
X167749959Y-61051956D01*
X167759064Y-61131547D01*
X167776196Y-61213798D01*
X167803224Y-61303731D01*
X167842014Y-61406373D01*
X167894432Y-61526747D01*
X167962345Y-61669877D01*
X168047621Y-61840788D01*
X168131240Y-62004079D01*
X168275800Y-62286184D01*
X168415159Y-62562345D01*
X168550930Y-62836100D01*
X168684726Y-63110986D01*
X168818157Y-63390539D01*
X168952838Y-63678298D01*
X169090379Y-63977798D01*
X169232394Y-64292578D01*
X169380494Y-64626173D01*
X169536292Y-64982122D01*
X169701400Y-65363961D01*
X169877430Y-65775227D01*
X170065994Y-66219457D01*
X170231302Y-66611280D01*
X170386187Y-66978995D01*
X170526047Y-67310265D01*
X170652129Y-67607727D01*
X170765678Y-67874018D01*
X170867939Y-68111777D01*
X170960159Y-68323639D01*
X171043583Y-68512242D01*
X171119457Y-68680223D01*
X171189026Y-68830220D01*
X171253537Y-68964869D01*
X171314234Y-69086807D01*
X171372364Y-69198673D01*
X171429172Y-69303102D01*
X171485904Y-69402731D01*
X171543806Y-69500200D01*
X171604123Y-69598143D01*
X171668102Y-69699199D01*
X171736987Y-69806004D01*
X171749449Y-69825191D01*
X171953058Y-70125151D01*
X172162788Y-70406216D01*
X172388611Y-70681046D01*
X172640496Y-70962300D01*
X172668981Y-70992848D01*
X172806527Y-71145239D01*
X172917935Y-71281824D01*
X173010668Y-71412551D01*
X173092188Y-71547367D01*
X173111883Y-71583232D01*
X173214512Y-71799226D01*
X173285106Y-72011630D01*
X173326105Y-72231489D01*
X173339948Y-72469846D01*
X173337270Y-72603672D01*
X173329596Y-72735098D01*
X173317077Y-72850139D01*
X173297299Y-72958978D01*
X173267849Y-73071799D01*
X173226314Y-73198786D01*
X173170278Y-73350123D01*
X173144733Y-73416000D01*
X173034117Y-73721766D01*
X172950325Y-74008813D01*
X172891051Y-74289142D01*
X172853991Y-74574750D01*
X172836839Y-74877639D01*
X172835000Y-75028318D01*
X172838772Y-75240514D01*
X172850927Y-75443616D01*
X172872722Y-75645209D01*
X172905413Y-75852877D01*
X172950256Y-76074203D01*
X173008509Y-76316772D01*
X173081427Y-76588166D01*
X173110428Y-76690607D01*
X173409978Y-77679335D01*
X173742147Y-78665614D01*
X174107715Y-79651114D01*
X174507460Y-80637503D01*
X174942162Y-81626451D01*
X175412599Y-82619626D01*
X175919553Y-83618699D01*
X176463800Y-84625337D01*
X177046122Y-85641211D01*
X177667296Y-86667989D01*
X178057948Y-87288379D01*
X178403925Y-87822717D01*
X178764060Y-88365136D01*
X179131284Y-88905302D01*
X179498531Y-89432877D01*
X179858733Y-89937528D01*
X180035310Y-90179836D01*
X180198777Y-90407834D01*
X180338325Y-90615933D01*
X180457447Y-90811829D01*
X180559634Y-91003216D01*
X180648378Y-91197788D01*
X180727170Y-91403240D01*
X180799503Y-91627266D01*
X180868867Y-91877559D01*
X180938754Y-92161816D01*
X180943070Y-92180250D01*
X180993155Y-92387952D01*
X181038773Y-92561382D01*
X181082292Y-92708045D01*
X181126081Y-92835445D01*
X181172508Y-92951088D01*
X181216941Y-93048083D01*
X181328838Y-93243411D01*
X181460512Y-93409343D01*
X181607592Y-93540539D01*
X181636658Y-93560924D01*
X181759186Y-93633249D01*
X181879472Y-93680412D01*
X182011297Y-93706298D01*
X182168442Y-93714789D01*
X182182788Y-93714833D01*
X182338247Y-93704858D01*
X182523401Y-93674762D01*
X182739014Y-93624290D01*
X182985850Y-93553185D01*
X183264673Y-93461191D01*
X183576248Y-93348052D01*
X183921339Y-93213513D01*
X184300710Y-93057317D01*
X184715126Y-92879208D01*
X184836500Y-92825838D01*
X185064395Y-92725443D01*
X185260531Y-92639742D01*
X185431692Y-92565921D01*
X185584662Y-92501168D01*
X185726226Y-92442667D01*
X185863166Y-92387604D01*
X186002268Y-92333167D01*
X186150315Y-92276541D01*
X186265250Y-92233212D01*
X187096199Y-91943706D01*
X187946399Y-91691481D01*
X188814561Y-91476798D01*
X189699398Y-91299921D01*
X190599624Y-91161111D01*
X191513952Y-91060630D01*
X192287166Y-91006289D01*
X192435559Y-90999854D01*
X192609381Y-90994592D01*
X192802643Y-90990498D01*
X193009351Y-90987568D01*
X193223516Y-90985799D01*
X193439145Y-90985186D01*
X193650247Y-90985726D01*
X193850830Y-90987415D01*
X194034905Y-90990248D01*
X194196478Y-90994222D01*
X194329559Y-90999332D01*
X194428157Y-91005576D01*
X194450628Y-91007724D01*
X194815190Y-91067933D01*
X195171552Y-91168468D01*
X195517147Y-91307695D01*
X195849411Y-91483984D01*
X196165778Y-91695703D01*
X196463683Y-91941219D01*
X196740560Y-92218902D01*
X196993843Y-92527119D01*
X197119687Y-92705355D01*
X197192813Y-92823995D01*
X197273467Y-92970206D01*
X197355643Y-93131684D01*
X197433330Y-93296126D01*
X197500522Y-93451228D01*
X197551208Y-93584687D01*
X197555815Y-93598416D01*
X197611189Y-93776563D01*
X197652690Y-93937291D01*
X197682086Y-94092327D01*
X197701145Y-94253397D01*
X197711636Y-94432230D01*
X197715327Y-94640553D01*
X197715376Y-94656750D01*
X197714856Y-94820535D01*
X197712098Y-94950399D01*
X197706569Y-95054721D01*
X197697736Y-95141878D01*
X197685066Y-95220249D01*
X197677041Y-95259142D01*
X197595741Y-95562816D01*
X197488656Y-95844218D01*
X197352374Y-96109373D01*
X197183483Y-96364312D01*
X196978572Y-96615061D01*
X196807283Y-96795925D01*
X196494778Y-97088115D01*
X196164723Y-97355467D01*
X195812935Y-97600556D01*
X195435229Y-97825955D01*
X195027420Y-98034237D01*
X194585324Y-98227975D01*
X194295386Y-98340722D01*
X194220317Y-98368266D01*
X194141698Y-98396247D01*
X194057483Y-98425266D01*
X193965624Y-98455925D01*
X193864073Y-98488825D01*
X193750783Y-98524566D01*
X193623706Y-98563752D01*
X193480794Y-98606982D01*
X193319999Y-98654858D01*
X193139275Y-98707982D01*
X192936573Y-98766954D01*
X192709846Y-98832376D01*
X192457046Y-98904848D01*
X192176125Y-98984974D01*
X191865037Y-99073353D01*
X191521732Y-99170587D01*
X191144164Y-99277277D01*
X190730285Y-99394024D01*
X190278048Y-99521431D01*
X190191666Y-99545753D01*
X189780492Y-99661539D01*
X189340783Y-99785404D01*
X188878465Y-99915677D01*
X188399465Y-100050687D01*
X187909711Y-100188761D01*
X187415128Y-100328227D01*
X186921645Y-100467415D01*
X186435189Y-100604652D01*
X185961685Y-100738267D01*
X185507062Y-100866588D01*
X185077246Y-100987944D01*
X184678164Y-101100662D01*
X184423750Y-101172547D01*
X184088511Y-101267175D01*
X183761300Y-101359324D01*
X183444772Y-101448256D01*
X183141582Y-101533234D01*
X182854385Y-101613521D01*
X182585836Y-101688380D01*
X182338590Y-101757072D01*
X182115302Y-101818862D01*
X181918628Y-101873012D01*
X181751222Y-101918785D01*
X181615740Y-101955442D01*
X181514836Y-101982248D01*
X181451166Y-101998465D01*
X181439250Y-102001261D01*
X181273422Y-102035193D01*
X181076162Y-102070066D01*
X180858293Y-102104265D01*
X180630637Y-102136174D01*
X180404017Y-102164177D01*
X180211583Y-102184542D01*
X180131268Y-102190347D01*
X180017211Y-102195514D01*
X179868326Y-102200059D01*
X179683526Y-102203999D01*
X179461723Y-102207351D01*
X179201831Y-102210132D01*
X178902764Y-102212358D01*
X178563433Y-102214045D01*
X178221916Y-102215120D01*
X177848973Y-102216287D01*
X177514015Y-102217964D01*
X177212696Y-102220270D01*
X176940672Y-102223325D01*
X176693596Y-102227248D01*
X176467122Y-102232157D01*
X176256904Y-102238172D01*
X176058597Y-102245410D01*
X175867854Y-102253993D01*
X175680330Y-102264037D01*
X175491679Y-102275663D01*
X175297555Y-102288989D01*
X175163333Y-102298848D01*
X174440752Y-102361535D01*
X173703564Y-102442350D01*
X172949933Y-102541674D01*
X172178025Y-102659887D01*
X171386005Y-102797372D01*
X170572039Y-102954508D01*
X169734290Y-103131677D01*
X168870925Y-103329259D01*
X167980108Y-103547636D01*
X167060005Y-103787188D01*
X166108781Y-104048297D01*
X165124601Y-104331343D01*
X164548250Y-104502616D01*
X164232897Y-104598002D01*
X163906073Y-104698118D01*
X163565246Y-104803778D01*
X163207887Y-104915794D01*
X162831462Y-105034979D01*
X162433443Y-105162147D01*
X162011296Y-105298109D01*
X161562491Y-105443680D01*
X161084498Y-105599671D01*
X160574784Y-105766896D01*
X160030819Y-105946168D01*
X159450072Y-106138299D01*
X159288333Y-106191921D01*
X158859508Y-106333880D01*
X158466489Y-106463365D01*
X158105059Y-106581700D01*
X157771002Y-106690204D01*
X157460100Y-106790201D01*
X157168136Y-106883012D01*
X156890895Y-106969958D01*
X156624158Y-107052361D01*
X156363709Y-107131543D01*
X156105332Y-107208825D01*
X155844809Y-107285529D01*
X155577924Y-107362977D01*
X155300460Y-107442491D01*
X155277250Y-107449103D01*
X153880793Y-107830128D01*
X152460627Y-108185024D01*
X151024099Y-108512302D01*
X149578558Y-108810474D01*
X148131352Y-109078052D01*
X146689830Y-109313547D01*
X145261340Y-109515471D01*
X144768000Y-109577670D01*
X144277277Y-109636651D01*
X143820411Y-109689509D01*
X143389478Y-109736959D01*
X142976556Y-109779715D01*
X142573724Y-109818495D01*
X142173061Y-109854012D01*
X141766643Y-109886984D01*
X141346550Y-109918125D01*
X140904859Y-109948151D01*
X140433648Y-109977777D01*
X140153666Y-109994476D01*
X140086904Y-109997192D01*
X139981460Y-109999907D01*
X139840987Y-110002602D01*
X139669136Y-110005257D01*
X139469559Y-110007850D01*
X139245909Y-110010363D01*
X139001836Y-110012774D01*
X138740993Y-110015063D01*
X138467032Y-110017211D01*
X138183605Y-110019196D01*
X137894363Y-110020999D01*
X137602958Y-110022599D01*
X137313043Y-110023977D01*
X137028269Y-110025112D01*
X136752288Y-110025983D01*
X136488751Y-110026571D01*
X136241312Y-110026855D01*
X136013621Y-110026815D01*
X135809331Y-110026431D01*
X135632094Y-110025683D01*
X135485561Y-110024550D01*
X135373383Y-110023012D01*
X135306500Y-110021327D01*
X134470439Y-109985472D01*
X133670536Y-109938866D01*
X132901851Y-109880905D01*
X132159443Y-109810990D01*
X131438371Y-109728517D01*
X130733696Y-109632885D01*
X130040476Y-109523493D01*
X129353772Y-109399738D01*
X128668643Y-109261020D01*
X128183916Y-109153909D01*
X127535138Y-108998048D01*
X126925828Y-108835554D01*
X126353486Y-108665363D01*
X125815615Y-108486414D01*
X125309716Y-108297642D01*
X124833293Y-108097985D01*
X124383845Y-107886380D01*
X123958876Y-107661764D01*
X123555887Y-107423074D01*
X123172379Y-107169246D01*
X122805856Y-106899219D01*
X122712333Y-106825669D01*
X122551175Y-106692004D01*
X122386148Y-106545608D01*
X122222979Y-106392264D01*
X122067392Y-106237754D01*
X121925114Y-106087860D01*
X121801870Y-105948365D01*
X121703386Y-105825049D01*
X121659068Y-105762004D01*
X121520559Y-105523187D01*
X121420191Y-105285268D01*
X121357941Y-105045509D01*
X121333785Y-104801169D01*
X121334132Y-104794884D01*
X121699116Y-104794884D01*
X121722986Y-105007088D01*
X121783986Y-105214899D01*
X121882418Y-105421477D01*
X122018586Y-105629982D01*
X122192793Y-105843576D01*
X122363083Y-106023576D01*
X122739357Y-106373635D01*
X123149173Y-106703683D01*
X123593153Y-107014047D01*
X124071920Y-107305052D01*
X124586099Y-107577025D01*
X125136311Y-107830293D01*
X125723179Y-108065181D01*
X126347328Y-108282017D01*
X127009379Y-108481127D01*
X127104416Y-108507412D01*
X128086441Y-108757325D01*
X129097420Y-108977473D01*
X130136021Y-109167668D01*
X131200914Y-109327723D01*
X132290766Y-109457451D01*
X133404245Y-109556665D01*
X134540021Y-109625177D01*
X135244366Y-109651848D01*
X135412206Y-109655974D01*
X135615241Y-109659587D01*
X135848450Y-109662684D01*
X136106811Y-109665263D01*
X136385301Y-109667323D01*
X136678899Y-109668862D01*
X136982583Y-109669879D01*
X137291330Y-109670370D01*
X137600118Y-109670335D01*
X137903926Y-109669771D01*
X138197731Y-109668677D01*
X138476511Y-109667050D01*
X138735244Y-109664890D01*
X138968908Y-109662194D01*
X139172481Y-109658960D01*
X139340941Y-109655187D01*
X139402250Y-109653368D01*
X139972269Y-109631858D01*
X140534081Y-109604580D01*
X141094162Y-109571011D01*
X141658989Y-109530628D01*
X142235038Y-109482907D01*
X142828785Y-109427325D01*
X143446706Y-109363361D01*
X144095278Y-109290489D01*
X144521095Y-109239945D01*
X146208265Y-109015034D01*
X147886463Y-108749386D01*
X149557074Y-108442720D01*
X151221482Y-108094752D01*
X152881071Y-107705200D01*
X154537224Y-107273783D01*
X155520666Y-106997371D01*
X155752178Y-106930199D01*
X155974842Y-106864861D01*
X156192650Y-106800095D01*
X156409595Y-106734643D01*
X156629672Y-106667243D01*
X156856873Y-106596637D01*
X157095191Y-106521564D01*
X157348620Y-106440763D01*
X157621153Y-106352976D01*
X157916784Y-106256942D01*
X158239505Y-106151401D01*
X158593310Y-106035094D01*
X158982192Y-105906759D01*
X159087250Y-105872024D01*
X159673501Y-105678380D01*
X160222367Y-105497630D01*
X160736504Y-105328936D01*
X161218570Y-105171458D01*
X161671223Y-105024357D01*
X162097120Y-104886794D01*
X162498919Y-104757930D01*
X162879277Y-104636926D01*
X163240853Y-104522944D01*
X163586303Y-104415144D01*
X163918286Y-104312686D01*
X164239459Y-104214733D01*
X164552479Y-104120445D01*
X164860005Y-104028982D01*
X165164693Y-103939507D01*
X165469202Y-103851180D01*
X165680666Y-103790445D01*
X166631321Y-103524472D01*
X167548909Y-103280172D01*
X168436383Y-103056972D01*
X169296695Y-102854302D01*
X170132798Y-102671590D01*
X170947643Y-102508266D01*
X171744183Y-102363758D01*
X172525371Y-102237494D01*
X173294159Y-102128905D01*
X174053498Y-102037419D01*
X174806342Y-101962464D01*
X175364416Y-101917053D01*
X175521355Y-101905973D01*
X175674503Y-101896266D01*
X175827845Y-101887840D01*
X175985366Y-101880603D01*
X176151051Y-101874462D01*
X176328883Y-101869325D01*
X176522848Y-101865099D01*
X176736930Y-101861693D01*
X176975114Y-101859012D01*
X177241385Y-101856966D01*
X177539727Y-101855461D01*
X177874125Y-101854406D01*
X178084333Y-101853967D01*
X178467697Y-101852985D01*
X178809780Y-101851470D01*
X179111629Y-101849406D01*
X179374295Y-101846778D01*
X179598824Y-101843572D01*
X179786266Y-101839771D01*
X179937668Y-101835362D01*
X180054081Y-101830329D01*
X180136552Y-101824657D01*
X180137500Y-101824570D01*
X180333712Y-101804349D01*
X180543937Y-101778836D01*
X180757787Y-101749564D01*
X180964875Y-101718065D01*
X181154813Y-101685872D01*
X181317216Y-101654517D01*
X181373975Y-101642136D01*
X181420251Y-101630477D01*
X181504877Y-101607941D01*
X181625469Y-101575189D01*
X181779648Y-101532887D01*
X181965033Y-101481698D01*
X182179243Y-101422287D01*
X182419897Y-101355316D01*
X182684613Y-101281451D01*
X182971011Y-101201355D01*
X183276710Y-101115692D01*
X183599330Y-101025125D01*
X183936488Y-100930320D01*
X184285805Y-100831939D01*
X184644899Y-100730647D01*
X184824141Y-100680029D01*
X185230862Y-100565146D01*
X185656055Y-100445084D01*
X186094953Y-100321186D01*
X186542787Y-100194797D01*
X186994788Y-100067263D01*
X187446188Y-99939928D01*
X187892218Y-99814137D01*
X188328109Y-99691234D01*
X188749094Y-99572565D01*
X189150402Y-99459474D01*
X189527266Y-99353306D01*
X189874918Y-99255406D01*
X190188588Y-99167119D01*
X190308083Y-99133500D01*
X190725573Y-99016033D01*
X191104610Y-98909315D01*
X191447504Y-98812674D01*
X191756564Y-98725440D01*
X192034101Y-98646941D01*
X192282426Y-98576506D01*
X192503847Y-98513464D01*
X192700677Y-98457143D01*
X192875224Y-98406873D01*
X193029799Y-98361982D01*
X193166713Y-98321800D01*
X193288275Y-98285654D01*
X193396795Y-98252874D01*
X193494585Y-98222788D01*
X193583953Y-98194726D01*
X193667211Y-98168015D01*
X193746669Y-98141986D01*
X193824636Y-98115966D01*
X193903423Y-98089285D01*
X193910472Y-98086883D01*
X194352329Y-97925716D01*
X194757757Y-97755195D01*
X195132159Y-97572477D01*
X195480936Y-97374716D01*
X195809490Y-97159068D01*
X196123222Y-96922688D01*
X196127122Y-96919551D01*
X196400371Y-96685793D01*
X196634568Y-96454751D01*
X196832452Y-96222376D01*
X196996762Y-95984620D01*
X197130234Y-95737432D01*
X197235608Y-95476765D01*
X197315621Y-95198569D01*
X197328142Y-95143583D01*
X197342596Y-95046818D01*
X197352091Y-94918700D01*
X197356735Y-94769906D01*
X197356637Y-94611112D01*
X197351903Y-94452995D01*
X197342641Y-94306231D01*
X197328960Y-94181497D01*
X197317794Y-94117506D01*
X197219104Y-93753759D01*
X197083712Y-93405132D01*
X196914048Y-93074360D01*
X196712541Y-92764177D01*
X196481620Y-92477320D01*
X196223713Y-92216521D01*
X195941251Y-91984518D01*
X195636663Y-91784044D01*
X195312377Y-91617834D01*
X194987446Y-91493898D01*
X194889523Y-91463120D01*
X194800910Y-91437239D01*
X194716851Y-91415834D01*
X194632590Y-91398483D01*
X194543370Y-91384766D01*
X194444434Y-91374262D01*
X194331028Y-91366550D01*
X194198394Y-91361209D01*
X194041775Y-91357817D01*
X193856417Y-91355953D01*
X193637561Y-91355198D01*
X193419583Y-91355112D01*
X193164895Y-91355903D01*
X192920025Y-91358024D01*
X192690629Y-91361361D01*
X192482362Y-91365797D01*
X192300881Y-91371218D01*
X192151839Y-91377509D01*
X192064916Y-91382717D01*
X191284336Y-91450499D01*
X190533736Y-91540444D01*
X189806288Y-91653799D01*
X189095164Y-91791813D01*
X188393538Y-91955734D01*
X187694583Y-92146810D01*
X187399047Y-92235809D01*
X187123405Y-92322910D01*
X186859640Y-92410391D01*
X186601159Y-92500780D01*
X186341368Y-92596603D01*
X186073675Y-92700387D01*
X185791487Y-92814657D01*
X185488211Y-92941940D01*
X185157254Y-93084763D01*
X184975066Y-93164672D01*
X184561318Y-93344111D01*
X184181969Y-93502518D01*
X183835078Y-93640570D01*
X183518700Y-93758943D01*
X183230893Y-93858314D01*
X182969713Y-93939360D01*
X182733217Y-94002757D01*
X182519462Y-94049183D01*
X182361668Y-94074810D01*
X182133939Y-94085812D01*
X181906024Y-94059531D01*
X181686922Y-93997898D01*
X181485636Y-93902843D01*
X181445674Y-93878304D01*
X181344029Y-93801069D01*
X181233707Y-93697440D01*
X181125217Y-93578761D01*
X181029068Y-93456374D01*
X180967180Y-93361848D01*
X180914299Y-93267211D01*
X180866998Y-93172813D01*
X180823414Y-93073152D01*
X180781681Y-92962723D01*
X180739938Y-92836024D01*
X180696320Y-92687552D01*
X180648965Y-92511804D01*
X180596008Y-92303277D01*
X180562117Y-92165658D01*
X180501167Y-91926061D01*
X180443083Y-91720129D01*
X180385114Y-91539568D01*
X180324511Y-91376085D01*
X180258523Y-91221387D01*
X180225694Y-91151081D01*
X180187776Y-91074043D01*
X180149195Y-91001140D01*
X180106625Y-90927304D01*
X180056740Y-90847465D01*
X179996214Y-90756555D01*
X179921724Y-90649505D01*
X179829942Y-90521248D01*
X179717544Y-90366714D01*
X179655561Y-90282080D01*
X179315268Y-89811850D01*
X178976269Y-89330506D01*
X178633704Y-88830978D01*
X178282717Y-88306191D01*
X177964350Y-87819916D01*
X177301948Y-86774305D01*
X176679095Y-85740245D01*
X176095078Y-84716220D01*
X175549180Y-83700713D01*
X175040686Y-82692208D01*
X174568880Y-81689191D01*
X174133046Y-80690143D01*
X173732469Y-79693550D01*
X173366433Y-78697896D01*
X173034223Y-77701663D01*
X172762888Y-76800949D01*
X172682841Y-76512184D01*
X172617615Y-76255141D01*
X172565999Y-76022366D01*
X172526784Y-75806399D01*
X172498761Y-75599785D01*
X172480718Y-75395065D01*
X172471447Y-75184782D01*
X172469570Y-74992916D01*
X172482611Y-74630414D01*
X172520490Y-74291544D01*
X172585258Y-73964259D01*
X172678966Y-73636513D01*
X172721909Y-73511250D01*
X172787326Y-73328561D01*
X172840224Y-73180656D01*
X172881927Y-73062309D01*
X172913761Y-72968299D01*
X172937050Y-72893402D01*
X172953119Y-72832395D01*
X172963294Y-72780056D01*
X172968899Y-72731160D01*
X172971258Y-72680485D01*
X172971698Y-72622808D01*
X172971544Y-72552905D01*
X172971585Y-72527000D01*
X172970890Y-72400310D01*
X172966930Y-72304198D01*
X172958425Y-72226954D01*
X172944091Y-72156868D01*
X172923018Y-72083411D01*
X172870931Y-71935120D01*
X172809797Y-71798118D01*
X172735087Y-71665388D01*
X172642272Y-71529917D01*
X172526823Y-71384689D01*
X172384213Y-71222691D01*
X172327993Y-71161750D01*
X172018696Y-70811216D01*
X171731847Y-70446824D01*
X171464316Y-70063607D01*
X171212975Y-69656597D01*
X170974696Y-69220828D01*
X170746351Y-68751331D01*
X170595073Y-68410083D01*
X170552881Y-68311196D01*
X170496269Y-68178114D01*
X170427273Y-68015644D01*
X170347931Y-67828594D01*
X170260280Y-67621771D01*
X170166358Y-67399984D01*
X170068202Y-67168040D01*
X169967848Y-66930746D01*
X169867336Y-66692911D01*
X169852722Y-66658316D01*
X169624620Y-66120571D01*
X169410219Y-65619903D01*
X169208352Y-65153749D01*
X169017854Y-64719550D01*
X168837558Y-64314745D01*
X168666298Y-63936773D01*
X168502908Y-63583074D01*
X168346221Y-63251086D01*
X168195070Y-62938249D01*
X168048291Y-62642003D01*
X167904716Y-62359785D01*
X167825977Y-62208250D01*
X167751546Y-62064722D01*
X167680445Y-61925069D01*
X167616085Y-61796191D01*
X167561881Y-61684984D01*
X167521244Y-61598349D01*
X167499837Y-61548977D01*
X167420990Y-61304206D01*
X167382795Y-61069194D01*
X167385166Y-60844607D01*
X167428019Y-60631108D01*
X167511269Y-60429364D01*
X167634829Y-60240039D01*
X167673558Y-60192919D01*
X167742518Y-60116238D01*
X167814645Y-60044408D01*
X167894151Y-59974516D01*
X167985245Y-59903646D01*
X168092139Y-59828884D01*
X168219043Y-59747317D01*
X168370167Y-59656028D01*
X168549723Y-59552105D01*
X168761920Y-59432632D01*
X168813333Y-59404010D01*
X169078862Y-59254346D01*
X169308879Y-59119664D01*
X169506401Y-58997410D01*
X169674445Y-58885027D01*
X169816029Y-58779960D01*
X169934170Y-58679654D01*
X170031884Y-58581554D01*
X170112190Y-58483103D01*
X170178105Y-58381746D01*
X170232645Y-58274928D01*
X170277427Y-58163980D01*
X170301424Y-58082604D01*
X170317900Y-57987478D01*
X170328460Y-57867515D01*
X170332423Y-57784416D01*
X170334856Y-57685578D01*
X170333610Y-57593915D01*
X170327675Y-57502999D01*
X170316042Y-57406400D01*
X170297704Y-57297688D01*
X170271652Y-57170433D01*
X170236878Y-57018205D01*
X170192372Y-56834576D01*
X170168073Y-56736666D01*
X170118280Y-56533989D01*
X170078892Y-56365674D01*
X170048799Y-56225343D01*
X170026893Y-56106620D01*
X170012064Y-56003130D01*
X170003202Y-55908496D01*
X169999199Y-55816341D01*
X169998666Y-55762891D01*
X170013778Y-55552984D01*
X170059596Y-55371989D01*
X170136843Y-55218934D01*
X170246243Y-55092846D01*
X170388518Y-54992752D01*
X170564392Y-54917679D01*
X170644250Y-54894454D01*
X170713545Y-54878830D01*
X170792206Y-54866049D01*
X170886906Y-54855489D01*
X171004323Y-54846529D01*
X171151132Y-54838547D01*
X171321583Y-54831393D01*
X171497662Y-54824985D01*
X171710898Y-54817730D01*
X171956128Y-54809776D01*
X172228188Y-54801273D01*
X172521914Y-54792369D01*
X172832143Y-54783213D01*
X173153709Y-54773955D01*
X173481449Y-54764744D01*
X173810200Y-54755728D01*
X174134797Y-54747056D01*
X174450077Y-54738878D01*
X174750875Y-54731342D01*
X174983416Y-54725739D01*
X175405840Y-54715581D01*
X175788911Y-54705900D01*
X176135603Y-54696516D01*
X176448892Y-54687250D01*
X176731753Y-54677924D01*
X176987160Y-54668358D01*
X177218088Y-54658374D01*
X177427512Y-54647791D01*
X177618408Y-54636431D01*
X177793750Y-54624116D01*
X177956513Y-54610665D01*
X178109671Y-54595899D01*
X178256201Y-54579641D01*
X178399077Y-54561710D01*
X178541274Y-54541927D01*
X178685766Y-54520114D01*
X178835529Y-54496090D01*
X178856997Y-54492555D01*
X179136903Y-54441338D01*
X179417697Y-54380525D01*
X179693514Y-54311906D01*
X179958494Y-54237271D01*
X180206775Y-54158410D01*
X180432494Y-54077113D01*
X180629789Y-53995171D01*
X180792799Y-53914373D01*
X180840324Y-53886904D01*
X180935088Y-53820120D01*
X181019880Y-53743150D01*
X181086852Y-53664579D01*
X181128154Y-53592991D01*
X181136686Y-53562770D01*
X181133334Y-53450377D01*
X181094549Y-53321493D01*
X181022719Y-53178636D01*
X180920236Y-53024328D01*
X180789489Y-52861088D01*
X180632869Y-52691435D01*
X180452765Y-52517890D01*
X180251568Y-52342973D01*
X180031668Y-52169203D01*
X179795455Y-51999101D01*
X179545319Y-51835186D01*
X179433032Y-51766610D01*
X179280955Y-51678888D01*
X179098097Y-51578549D01*
X178892563Y-51469709D01*
X178672455Y-51356485D01*
X178445880Y-51242993D01*
X178220941Y-51133350D01*
X178005743Y-51031674D01*
X177819750Y-50947115D01*
X177366057Y-50752105D01*
X176905073Y-50567070D01*
X176432997Y-50390847D01*
X175946028Y-50222273D01*
X175440366Y-50060186D01*
X174912209Y-49903423D01*
X174357758Y-49750823D01*
X173773210Y-49601222D01*
X173154765Y-49453459D01*
X172498623Y-49306370D01*
X172350249Y-49274289D01*
X171975957Y-49191646D01*
X171638453Y-49112117D01*
X171332461Y-49034036D01*
X171052708Y-48955735D01*
X170793917Y-48875547D01*
X170550814Y-48791805D01*
X170318125Y-48702843D01*
X170090574Y-48606993D01*
X169862887Y-48502589D01*
X169776416Y-48460904D01*
X169439922Y-48285291D01*
X169130283Y-48098596D01*
X168838422Y-47894255D01*
X168555257Y-47665709D01*
X168271711Y-47406396D01*
X168146856Y-47283243D01*
X167980850Y-47120214D01*
X167834813Y-46987442D01*
X167702655Y-46881818D01*
X167578288Y-46800234D01*
X167455625Y-46739583D01*
X167328575Y-46696756D01*
X167191052Y-46668646D01*
X167036965Y-46652145D01*
X166896880Y-46645188D01*
X166796963Y-46642527D01*
X166712387Y-46642185D01*
X166634463Y-46645022D01*
X166554503Y-46651903D01*
X166463817Y-46663688D01*
X166353715Y-46681242D01*
X166215508Y-46705426D01*
X166124297Y-46721879D01*
X165954010Y-46752284D01*
X165757068Y-46786684D01*
X165548631Y-46822477D01*
X165343861Y-46857064D01*
X165157920Y-46887845D01*
X165130333Y-46892339D01*
X164386286Y-47017145D01*
X163681366Y-47143532D01*
X163012375Y-47272235D01*
X162376113Y-47403988D01*
X161769383Y-47539526D01*
X161188987Y-47679583D01*
X160631726Y-47824892D01*
X160094402Y-47976188D01*
X159573816Y-48134205D01*
X159214250Y-48250336D01*
X158864567Y-48372697D01*
X158553137Y-48496460D01*
X158275900Y-48624393D01*
X158028795Y-48759264D01*
X157807765Y-48903843D01*
X157608749Y-49060896D01*
X157427688Y-49233192D01*
X157260523Y-49423501D01*
X157103195Y-49634588D01*
X157034865Y-49736571D01*
X156963879Y-49851865D01*
X156893491Y-49979051D01*
X156823041Y-50120140D01*
X156751865Y-50277143D01*
X156679304Y-50452070D01*
X156604696Y-50646930D01*
X156527378Y-50863735D01*
X156446690Y-51104494D01*
X156361970Y-51371218D01*
X156272558Y-51665918D01*
X156177790Y-51990602D01*
X156077006Y-52347283D01*
X155969544Y-52737970D01*
X155854743Y-53164672D01*
X155731942Y-53629402D01*
X155647406Y-53953250D01*
X155543888Y-54350493D01*
X155450515Y-54706702D01*
X155367270Y-55021937D01*
X155294139Y-55296260D01*
X155231103Y-55529732D01*
X155178147Y-55722413D01*
X155136846Y-55868833D01*
X155058953Y-56133541D01*
X154975588Y-56405053D01*
X154888950Y-56676865D01*
X154801241Y-56942470D01*
X154714660Y-57195365D01*
X154631409Y-57429043D01*
X154553687Y-57636999D01*
X154483694Y-57812728D01*
X154461872Y-57864387D01*
X154337423Y-58115406D01*
X154191205Y-58343352D01*
X154027233Y-58543122D01*
X153849520Y-58709614D01*
X153727076Y-58798517D01*
X153592408Y-58877408D01*
X153455444Y-58939560D01*
X153304112Y-58989435D01*
X153126343Y-59031491D01*
X153063354Y-59043754D01*
X152752815Y-59116011D01*
X152472976Y-59212342D01*
X152217728Y-59335912D01*
X151980964Y-59489882D01*
X151756577Y-59677413D01*
X151662489Y-59769041D01*
X151515349Y-59930996D01*
X151374933Y-60112359D01*
X151238613Y-60317433D01*
X151103763Y-60550521D01*
X150967755Y-60815926D01*
X150827962Y-61117949D01*
X150799955Y-61181666D01*
X150595507Y-61664325D01*
X150411388Y-62129740D01*
X150244518Y-62587327D01*
X150091815Y-63046500D01*
X149950196Y-63516675D01*
X149816580Y-64007266D01*
X149687885Y-64527689D01*
X149646352Y-64705916D01*
X149490902Y-65299929D01*
X149304053Y-65866026D01*
X149085893Y-66404046D01*
X148836514Y-66913830D01*
X148556006Y-67395218D01*
X148244459Y-67848049D01*
X147901963Y-68272163D01*
X147528609Y-68667401D01*
X147287720Y-68892490D01*
X147040299Y-69117101D01*
X146828134Y-69318370D01*
X146651191Y-69496332D01*
X146509432Y-69651025D01*
X146441000Y-69733000D01*
X146200886Y-70064623D01*
X146000832Y-70408242D01*
X145839628Y-70766432D01*
X145716062Y-71141767D01*
X145652800Y-71408684D01*
X145636704Y-71493091D01*
X145624565Y-71571132D01*
X145615850Y-71650960D01*
X145610026Y-71740728D01*
X145606559Y-71848588D01*
X145604916Y-71982695D01*
X145604561Y-72146000D01*
X145605205Y-72317163D01*
X145607309Y-72454663D01*
X145611428Y-72567161D01*
X145618110Y-72663317D01*
X145627909Y-72751792D01*
X145641376Y-72841246D01*
X145653082Y-72908000D01*
X145682653Y-73066180D01*
X145714553Y-73228705D01*
X145749522Y-73398734D01*
X145788304Y-73579431D01*
X145831641Y-73773957D01*
X145880275Y-73985472D01*
X145934948Y-74217139D01*
X145996403Y-74472120D01*
X146065381Y-74753576D01*
X146142626Y-75064668D01*
X146228878Y-75408558D01*
X146324882Y-75788408D01*
X146383558Y-76019500D01*
X146435712Y-76226099D01*
X146486429Y-76429799D01*
X146534342Y-76624923D01*
X146578087Y-76805792D01*
X146616299Y-76966729D01*
X146647612Y-77102056D01*
X146670663Y-77206096D01*
X146681243Y-77257750D01*
X146769509Y-77816083D01*
X146818340Y-78364725D01*
X146827796Y-78902564D01*
X146797938Y-79428492D01*
X146728826Y-79941400D01*
X146620522Y-80440178D01*
X146482161Y-80897682D01*
X146437471Y-81024934D01*
X146396732Y-81135650D01*
X146355826Y-81239795D01*
X146310637Y-81347332D01*
X146257046Y-81468228D01*
X146190937Y-81612446D01*
X146153882Y-81692166D01*
X146028028Y-81979808D01*
X145924744Y-82257303D01*
X145841709Y-82534046D01*
X145776603Y-82819430D01*
X145727105Y-83122849D01*
X145690894Y-83453698D01*
X145678014Y-83618333D01*
X145629555Y-84144465D01*
X145559165Y-84639422D01*
X145465488Y-85109025D01*
X145347171Y-85559096D01*
X145202858Y-85995456D01*
X145031193Y-86423926D01*
X145017724Y-86454666D01*
X144833230Y-86843113D01*
X144628222Y-87215564D01*
X144398720Y-87577919D01*
X144140745Y-87936075D01*
X143850319Y-88295933D01*
X143540113Y-88645416D01*
X143249003Y-88984944D01*
X142997294Y-89332080D01*
X142784260Y-89689015D01*
X142609174Y-90057940D01*
X142471308Y-90441045D01*
X142369935Y-90840521D01*
X142304327Y-91258558D01*
X142273758Y-91697348D01*
X142277499Y-92159081D01*
X142292342Y-92403560D01*
X142305125Y-92555964D01*
X142320604Y-92715472D01*
X142339261Y-92885532D01*
X142361578Y-93069592D01*
X142388036Y-93271100D01*
X142419119Y-93493504D01*
X142455308Y-93740251D01*
X142497085Y-94014790D01*
X142544933Y-94320569D01*
X142599334Y-94661036D01*
X142660770Y-95039638D01*
X142662190Y-95048333D01*
X142716330Y-95383476D01*
X142763037Y-95681499D01*
X142802762Y-95946871D01*
X142835957Y-96184064D01*
X142863072Y-96397550D01*
X142884558Y-96591801D01*
X142900864Y-96771287D01*
X142912443Y-96940481D01*
X142919745Y-97103853D01*
X142923220Y-97265874D01*
X142923320Y-97431018D01*
X142920495Y-97603754D01*
X142920360Y-97609500D01*
X142915705Y-97778727D01*
X142910134Y-97914606D01*
X142902842Y-98026120D01*
X142893024Y-98122254D01*
X142879875Y-98211992D01*
X142862591Y-98304319D01*
X142854734Y-98342130D01*
X142763435Y-98695632D01*
X142645101Y-99018821D01*
X142497722Y-99315528D01*
X142319290Y-99589584D01*
X142107796Y-99844818D01*
X142017553Y-99938456D01*
X141765989Y-100165119D01*
X141496839Y-100359718D01*
X141206829Y-100523806D01*
X140892684Y-100658934D01*
X140551130Y-100766654D01*
X140178892Y-100848518D01*
X140053110Y-100869453D01*
X139796917Y-100903523D01*
X139531448Y-100927559D01*
X139254155Y-100941340D01*
X138962489Y-100944644D01*
X138653900Y-100937251D01*
X138325840Y-100918939D01*
X137975759Y-100889488D01*
X137601109Y-100848675D01*
X137199340Y-100796280D01*
X136767904Y-100732082D01*
X136304251Y-100655859D01*
X135805832Y-100567391D01*
X135270098Y-100466455D01*
X135158333Y-100444769D01*
X134772297Y-100369897D01*
X134423903Y-100303172D01*
X134109378Y-100243969D01*
X133824951Y-100191661D01*
X133566848Y-100145623D01*
X133331298Y-100105229D01*
X133114527Y-100069853D01*
X132912764Y-100038869D01*
X132722235Y-100011652D01*
X132539170Y-99987576D01*
X132359794Y-99966014D01*
X132180337Y-99946342D01*
X132110333Y-99939130D01*
X131369816Y-99880811D01*
X130641597Y-99856932D01*
X129927765Y-99867329D01*
X129230409Y-99911837D01*
X128551617Y-99990290D01*
X127893478Y-100102525D01*
X127258081Y-100248375D01*
X126892750Y-100350716D01*
X126529970Y-100467330D01*
X126152482Y-100603170D01*
X125769631Y-100754221D01*
X125390766Y-100916471D01*
X125025231Y-101085905D01*
X124682375Y-101258509D01*
X124371544Y-101430270D01*
X124351389Y-101442062D01*
X123899831Y-101727381D01*
X123486386Y-102030552D01*
X123110568Y-102352036D01*
X122771895Y-102692291D01*
X122469883Y-103051777D01*
X122204048Y-103430954D01*
X122126060Y-103557333D01*
X121968844Y-103838916D01*
X121847238Y-104100302D01*
X121761545Y-104344652D01*
X121712070Y-104575126D01*
X121699116Y-104794884D01*
X121334132Y-104794884D01*
X121347700Y-104549510D01*
X121399663Y-104287791D01*
X121489650Y-104013273D01*
X121617637Y-103723216D01*
X121641308Y-103675836D01*
X121862682Y-103280836D01*
X122116695Y-102905248D01*
X122404326Y-102548193D01*
X122726553Y-102208788D01*
X123084357Y-101886152D01*
X123478717Y-101579404D01*
X123910610Y-101287663D01*
X124381018Y-101010048D01*
X124890917Y-100745676D01*
X124903083Y-100739761D01*
X125500405Y-100467297D01*
X126097212Y-100230945D01*
X126698961Y-100029210D01*
X127311112Y-99860598D01*
X127939120Y-99723616D01*
X128588445Y-99616770D01*
X129264542Y-99538567D01*
X129305750Y-99534783D01*
X129455235Y-99523888D01*
X129638831Y-99514751D01*
X129848345Y-99507461D01*
X130075589Y-99502109D01*
X130312369Y-99498782D01*
X130550497Y-99497573D01*
X130781782Y-99498569D01*
X130998032Y-99501862D01*
X131191057Y-99507539D01*
X131306000Y-99512872D01*
X131514159Y-99524986D01*
X131710376Y-99537740D01*
X131898108Y-99551643D01*
X132080812Y-99567201D01*
X132261948Y-99584926D01*
X132444974Y-99605324D01*
X132633346Y-99628905D01*
X132830524Y-99656177D01*
X133039966Y-99687650D01*
X133265128Y-99723831D01*
X133509471Y-99765230D01*
X133776451Y-99812355D01*
X134069526Y-99865715D01*
X134392155Y-99925819D01*
X134747797Y-99993175D01*
X135139907Y-100068291D01*
X135327666Y-100104470D01*
X135689496Y-100173591D01*
X136016347Y-100234417D01*
X136314541Y-100287938D01*
X136590402Y-100335148D01*
X136850252Y-100377039D01*
X137100413Y-100414604D01*
X137347207Y-100448836D01*
X137596959Y-100480727D01*
X137855990Y-100511271D01*
X138068750Y-100534820D01*
X138197197Y-100545508D01*
X138356186Y-100553691D01*
X138538325Y-100559412D01*
X138736221Y-100562715D01*
X138942481Y-100563644D01*
X139149713Y-100562242D01*
X139350522Y-100558554D01*
X139537518Y-100552623D01*
X139703307Y-100544493D01*
X139840496Y-100534208D01*
X139929171Y-100523793D01*
X140302698Y-100452868D01*
X140644096Y-100357111D01*
X140956239Y-100235500D01*
X141242000Y-100087012D01*
X141354156Y-100016840D01*
X141619188Y-99817552D01*
X141852881Y-99590013D01*
X142054810Y-99334895D01*
X142224549Y-99052871D01*
X142361671Y-98744613D01*
X142465750Y-98410794D01*
X142514368Y-98186540D01*
X142532628Y-98056360D01*
X142546783Y-97893681D01*
X142556582Y-97708163D01*
X142561770Y-97509463D01*
X142562094Y-97307241D01*
X142557302Y-97111155D01*
X142547239Y-96932166D01*
X142535103Y-96783703D01*
X142521115Y-96635500D01*
X142504602Y-96482597D01*
X142484891Y-96320029D01*
X142461311Y-96142837D01*
X142433190Y-95946056D01*
X142399855Y-95724725D01*
X142360635Y-95473883D01*
X142314856Y-95188566D01*
X142292056Y-95048333D01*
X142231703Y-94676853D01*
X142178190Y-94343657D01*
X142131114Y-94045318D01*
X142090075Y-93778410D01*
X142054670Y-93539506D01*
X142024496Y-93325182D01*
X141999152Y-93132010D01*
X141978235Y-92956566D01*
X141961344Y-92795421D01*
X141948076Y-92645152D01*
X141938029Y-92502330D01*
X141930801Y-92363531D01*
X141925991Y-92225329D01*
X141923195Y-92084296D01*
X141922013Y-91937008D01*
X141921916Y-91894500D01*
X141922723Y-91669000D01*
X141926352Y-91477409D01*
X141933714Y-91311345D01*
X141945719Y-91162426D01*
X141963278Y-91022271D01*
X141987301Y-90882498D01*
X142018700Y-90734725D01*
X142058384Y-90570571D01*
X142071245Y-90519981D01*
X142180426Y-90155346D01*
X142318169Y-89805447D01*
X142486862Y-89466138D01*
X142688895Y-89133277D01*
X142926658Y-88802720D01*
X143202539Y-88470324D01*
X143341348Y-88317333D01*
X143699073Y-87907345D01*
X144017156Y-87487993D01*
X144297892Y-87055686D01*
X144543578Y-86606828D01*
X144756511Y-86137826D01*
X144795122Y-86041916D01*
X144918345Y-85708772D01*
X145022492Y-85380110D01*
X145109291Y-85047896D01*
X145180468Y-84704093D01*
X145237751Y-84340670D01*
X145282866Y-83949590D01*
X145308131Y-83655091D01*
X145337342Y-83322601D01*
X145373260Y-83024110D01*
X145417873Y-82751546D01*
X145473168Y-82496840D01*
X145541132Y-82251921D01*
X145623754Y-82008717D01*
X145723021Y-81759158D01*
X145839061Y-81499158D01*
X145991773Y-81154461D01*
X146118309Y-80828846D01*
X146222096Y-80511130D01*
X146306558Y-80190130D01*
X146375120Y-79854663D01*
X146412058Y-79628416D01*
X146424337Y-79536014D01*
X146433811Y-79438827D01*
X146440776Y-79330023D01*
X146445528Y-79202769D01*
X146448363Y-79050233D01*
X146449578Y-78865583D01*
X146449671Y-78760583D01*
X146449003Y-78586194D01*
X146446752Y-78426132D01*
X146442271Y-78276559D01*
X146434910Y-78133638D01*
X146424020Y-77993533D01*
X146408954Y-77852406D01*
X146389061Y-77706421D01*
X146363693Y-77551742D01*
X146332202Y-77384530D01*
X146293938Y-77200949D01*
X146248253Y-76997163D01*
X146194498Y-76769333D01*
X146132024Y-76513625D01*
X146060182Y-76226200D01*
X145978324Y-75903221D01*
X145943214Y-75765500D01*
X145831597Y-75325908D01*
X145731019Y-74924519D01*
X145641024Y-74558792D01*
X145561157Y-74226186D01*
X145490962Y-73924162D01*
X145429983Y-73650179D01*
X145377765Y-73401695D01*
X145333850Y-73176172D01*
X145297785Y-72971068D01*
X145269112Y-72783844D01*
X145247377Y-72611958D01*
X145232123Y-72452871D01*
X145222895Y-72304041D01*
X145219236Y-72162929D01*
X145220691Y-72026995D01*
X145226805Y-71893697D01*
X145233055Y-71807333D01*
X145286639Y-71387689D01*
X145377479Y-70986638D01*
X145506293Y-70602519D01*
X145673801Y-70233669D01*
X145880722Y-69878426D01*
X146127777Y-69535126D01*
X146311082Y-69316632D01*
X146388971Y-69233126D01*
X146490050Y-69131076D01*
X146605224Y-69019318D01*
X146725395Y-68906687D01*
X146835587Y-68807203D01*
X147190453Y-68479561D01*
X147508241Y-68154940D01*
X147793311Y-67827704D01*
X148050023Y-67492216D01*
X148282737Y-67142839D01*
X148495814Y-66773937D01*
X148662547Y-66445401D01*
X148773628Y-66205721D01*
X148873083Y-65973034D01*
X148963339Y-65740051D01*
X149046821Y-65499483D01*
X149125956Y-65244044D01*
X149203169Y-64966444D01*
X149280887Y-64659395D01*
X149339488Y-64411797D01*
X149555449Y-63566704D01*
X149810380Y-62733026D01*
X150105303Y-61907734D01*
X150441244Y-61087798D01*
X150534490Y-60877218D01*
X150665649Y-60596655D01*
X150791894Y-60351100D01*
X150917255Y-60134188D01*
X151045762Y-59939549D01*
X151181443Y-59760814D01*
X151328329Y-59591616D01*
X151387751Y-59528673D01*
X151616875Y-59311470D01*
X151853527Y-59129353D01*
X152103959Y-58978986D01*
X152374426Y-58857032D01*
X152671180Y-58760154D01*
X152950570Y-58694670D01*
X153121410Y-58657538D01*
X153258960Y-58619720D01*
X153372182Y-58577870D01*
X153470034Y-58528642D01*
X153561478Y-58468689D01*
X153567507Y-58464272D01*
X153674647Y-58378495D01*
X153771671Y-58284895D01*
X153861111Y-58179150D01*
X153945503Y-58056936D01*
X154027381Y-57913929D01*
X154109280Y-57745806D01*
X154193735Y-57548244D01*
X154283279Y-57316920D01*
X154353666Y-57123270D01*
X154420506Y-56932059D01*
X154486850Y-56735000D01*
X154553639Y-56528827D01*
X154621814Y-56310271D01*
X154692316Y-56076062D01*
X154766085Y-55822935D01*
X154844064Y-55547618D01*
X154927192Y-55246846D01*
X155016411Y-54917348D01*
X155112661Y-54555857D01*
X155216885Y-54159105D01*
X155308978Y-53805083D01*
X155446162Y-53280557D01*
X155575405Y-52796416D01*
X155697046Y-52351531D01*
X155811427Y-51944770D01*
X155918888Y-51575004D01*
X156019769Y-51241103D01*
X156114412Y-50941936D01*
X156203156Y-50676375D01*
X156286343Y-50443287D01*
X156364312Y-50241544D01*
X156429143Y-50088451D01*
X156612044Y-49726638D01*
X156825567Y-49394036D01*
X157069449Y-49090907D01*
X157343428Y-48817509D01*
X157647240Y-48574103D01*
X157980621Y-48360950D01*
X158343309Y-48178309D01*
X158375474Y-48164203D01*
X158453354Y-48132516D01*
X158562823Y-48090894D01*
X158695205Y-48042484D01*
X158841829Y-47990431D01*
X158994020Y-47937880D01*
X159073974Y-47910901D01*
X159583975Y-47746736D01*
X160114066Y-47588841D01*
X160666817Y-47436626D01*
X161244796Y-47289502D01*
X161850573Y-47146879D01*
X162486716Y-47008167D01*
X163155794Y-46872777D01*
X163860376Y-46740118D01*
X164603031Y-46609600D01*
X165109166Y-46525344D01*
X165289976Y-46495427D01*
X165483226Y-46462698D01*
X165677191Y-46429194D01*
X165860145Y-46396954D01*
X166020365Y-46368015D01*
X166104000Y-46352461D01*
X166258721Y-46323979D01*
X166383294Y-46303293D01*
X166488938Y-46289207D01*
X166586870Y-46280522D01*
X166688310Y-46276042D01*
X166804477Y-46274569D01*
X166834250Y-46274530D01*
X166969171Y-46275566D01*
G36*
X193067368Y-92678572D02*
G01*
X193511071Y-92746448D01*
X193956724Y-92850529D01*
X194408823Y-92991156D01*
X194871861Y-93168671D01*
X194922416Y-93189938D01*
X195040111Y-93241463D01*
X195156743Y-93295330D01*
X195260661Y-93345976D01*
X195340212Y-93387837D01*
X195356333Y-93397108D01*
X195551046Y-93530458D01*
X195724915Y-93685480D01*
X195874482Y-93857025D01*
X195996291Y-94039946D01*
X196086884Y-94229096D01*
X196142804Y-94419327D01*
X196160666Y-94594808D01*
X196139858Y-94804510D01*
X196078860Y-95008731D01*
X195979813Y-95202472D01*
X195844859Y-95380733D01*
X195806582Y-95421458D01*
X195691255Y-95527039D01*
X195542005Y-95644553D01*
X195364381Y-95770639D01*
X195163935Y-95901937D01*
X194946216Y-96035086D01*
X194716776Y-96166727D01*
X194481165Y-96293500D01*
X194244934Y-96412044D01*
X194013633Y-96519000D01*
X193942910Y-96549656D01*
X193801067Y-96608915D01*
X193662493Y-96664082D01*
X193523921Y-96716011D01*
X193382082Y-96765554D01*
X193233709Y-96813563D01*
X193075535Y-96860891D01*
X192904291Y-96908392D01*
X192716709Y-96956916D01*
X192509523Y-97007317D01*
X192279463Y-97060448D01*
X192023263Y-97117160D01*
X191737654Y-97178307D01*
X191419369Y-97244741D01*
X191065140Y-97317315D01*
X190776613Y-97375742D01*
X190391913Y-97453771D01*
X190044424Y-97525365D01*
X189729722Y-97591743D01*
X189443385Y-97654122D01*
X189180986Y-97713720D01*
X188938102Y-97771755D01*
X188710308Y-97829444D01*
X188493181Y-97888006D01*
X188282295Y-97948656D01*
X188073228Y-98012615D01*
X187861554Y-98081098D01*
X187642849Y-98155323D01*
X187412689Y-98236510D01*
X187166650Y-98325874D01*
X186900307Y-98424634D01*
X186720333Y-98492135D01*
X186385927Y-98617432D01*
X186085881Y-98728518D01*
X185815265Y-98826939D01*
X185569149Y-98914241D01*
X185342600Y-98991972D01*
X185130689Y-99061678D01*
X184928485Y-99124905D01*
X184731058Y-99183200D01*
X184533475Y-99238110D01*
X184330808Y-99291180D01*
X184118124Y-99343958D01*
X183890494Y-99397990D01*
X183672333Y-99448160D01*
X183371142Y-99515111D01*
X183069525Y-99578965D01*
X182764054Y-99640263D01*
X182451297Y-99699549D01*
X182127824Y-99757367D01*
X181790206Y-99814259D01*
X181435011Y-99870769D01*
X181058811Y-99927439D01*
X180658174Y-99984812D01*
X180229672Y-100043432D01*
X179769872Y-100103841D01*
X179275346Y-100166582D01*
X178742664Y-100232200D01*
X178645250Y-100244021D01*
X178451413Y-100267874D01*
X178237641Y-100294829D01*
X178017278Y-100323160D01*
X177803668Y-100351140D01*
X177610155Y-100377045D01*
X177502250Y-100391844D01*
X177084590Y-100445414D01*
X176697275Y-100486001D01*
X176342255Y-100513486D01*
X176021483Y-100527746D01*
X175736909Y-100528663D01*
X175491416Y-100516193D01*
X175331656Y-100499922D01*
X175157523Y-100477720D01*
X174989221Y-100452349D01*
X174871732Y-100431504D01*
X174787083Y-100414582D01*
X174737568Y-100401977D01*
X174716727Y-100390126D01*
X174718100Y-100375468D01*
X174734149Y-100355640D01*
X174775260Y-100315446D01*
X174843839Y-100254590D01*
X174933723Y-100178122D01*
X175038750Y-100091093D01*
X175152758Y-99998552D01*
X175269584Y-99905549D01*
X175383066Y-99817135D01*
X175487040Y-99738359D01*
X175491068Y-99735366D01*
X175662502Y-99610663D01*
X175826903Y-99497072D01*
X175989764Y-99391587D01*
X176156580Y-99291203D01*
X176332845Y-99192916D01*
X176524053Y-99093722D01*
X176735698Y-98990615D01*
X176973275Y-98880591D01*
X177242277Y-98760645D01*
X177396416Y-98693348D01*
X177598716Y-98605336D01*
X177795453Y-98519293D01*
X177988998Y-98434123D01*
X178181724Y-98348727D01*
X178376004Y-98262009D01*
X178574210Y-98172870D01*
X178778715Y-98080214D01*
X178991891Y-97982942D01*
X179216111Y-97879957D01*
X179453747Y-97770162D01*
X179707173Y-97652459D01*
X179978759Y-97525751D01*
X180270880Y-97388939D01*
X180585907Y-97240928D01*
X180926213Y-97080618D01*
X181294171Y-96906913D01*
X181692153Y-96718715D01*
X182122532Y-96514926D01*
X182587680Y-96294450D01*
X182804500Y-96191620D01*
X183529337Y-95849203D01*
X184217881Y-95526829D01*
X184870945Y-95224158D01*
X185489337Y-94940850D01*
X186073869Y-94676565D01*
X186625352Y-94430963D01*
X187144595Y-94203703D01*
X187632411Y-93994445D01*
X188089609Y-93802850D01*
X188517000Y-93628576D01*
X188915396Y-93471285D01*
X189285606Y-93330636D01*
X189628441Y-93206288D01*
X189944712Y-93097902D01*
X190235230Y-93005137D01*
X190500806Y-92927654D01*
X190720833Y-92870297D01*
X191222190Y-92762278D01*
X191703028Y-92688754D01*
X192167841Y-92650067D01*
X192621123Y-92646559D01*
X193067368Y-92678572D01*
G37*
X193067368Y-92678572D02*
X193511071Y-92746448D01*
X193956724Y-92850529D01*
X194408823Y-92991156D01*
X194871861Y-93168671D01*
X194922416Y-93189938D01*
X195040111Y-93241463D01*
X195156743Y-93295330D01*
X195260661Y-93345976D01*
X195340212Y-93387837D01*
X195356333Y-93397108D01*
X195551046Y-93530458D01*
X195724915Y-93685480D01*
X195874482Y-93857025D01*
X195996291Y-94039946D01*
X196086884Y-94229096D01*
X196142804Y-94419327D01*
X196160666Y-94594808D01*
X196139858Y-94804510D01*
X196078860Y-95008731D01*
X195979813Y-95202472D01*
X195844859Y-95380733D01*
X195806582Y-95421458D01*
X195691255Y-95527039D01*
X195542005Y-95644553D01*
X195364381Y-95770639D01*
X195163935Y-95901937D01*
X194946216Y-96035086D01*
X194716776Y-96166727D01*
X194481165Y-96293500D01*
X194244934Y-96412044D01*
X194013633Y-96519000D01*
X193942910Y-96549656D01*
X193801067Y-96608915D01*
X193662493Y-96664082D01*
X193523921Y-96716011D01*
X193382082Y-96765554D01*
X193233709Y-96813563D01*
X193075535Y-96860891D01*
X192904291Y-96908392D01*
X192716709Y-96956916D01*
X192509523Y-97007317D01*
X192279463Y-97060448D01*
X192023263Y-97117160D01*
X191737654Y-97178307D01*
X191419369Y-97244741D01*
X191065140Y-97317315D01*
X190776613Y-97375742D01*
X190391913Y-97453771D01*
X190044424Y-97525365D01*
X189729722Y-97591743D01*
X189443385Y-97654122D01*
X189180986Y-97713720D01*
X188938102Y-97771755D01*
X188710308Y-97829444D01*
X188493181Y-97888006D01*
X188282295Y-97948656D01*
X188073228Y-98012615D01*
X187861554Y-98081098D01*
X187642849Y-98155323D01*
X187412689Y-98236510D01*
X187166650Y-98325874D01*
X186900307Y-98424634D01*
X186720333Y-98492135D01*
X186385927Y-98617432D01*
X186085881Y-98728518D01*
X185815265Y-98826939D01*
X185569149Y-98914241D01*
X185342600Y-98991972D01*
X185130689Y-99061678D01*
X184928485Y-99124905D01*
X184731058Y-99183200D01*
X184533475Y-99238110D01*
X184330808Y-99291180D01*
X184118124Y-99343958D01*
X183890494Y-99397990D01*
X183672333Y-99448160D01*
X183371142Y-99515111D01*
X183069525Y-99578965D01*
X182764054Y-99640263D01*
X182451297Y-99699549D01*
X182127824Y-99757367D01*
X181790206Y-99814259D01*
X181435011Y-99870769D01*
X181058811Y-99927439D01*
X180658174Y-99984812D01*
X180229672Y-100043432D01*
X179769872Y-100103841D01*
X179275346Y-100166582D01*
X178742664Y-100232200D01*
X178645250Y-100244021D01*
X178451413Y-100267874D01*
X178237641Y-100294829D01*
X178017278Y-100323160D01*
X177803668Y-100351140D01*
X177610155Y-100377045D01*
X177502250Y-100391844D01*
X177084590Y-100445414D01*
X176697275Y-100486001D01*
X176342255Y-100513486D01*
X176021483Y-100527746D01*
X175736909Y-100528663D01*
X175491416Y-100516193D01*
X175331656Y-100499922D01*
X175157523Y-100477720D01*
X174989221Y-100452349D01*
X174871732Y-100431504D01*
X174787083Y-100414582D01*
X174737568Y-100401977D01*
X174716727Y-100390126D01*
X174718100Y-100375468D01*
X174734149Y-100355640D01*
X174775260Y-100315446D01*
X174843839Y-100254590D01*
X174933723Y-100178122D01*
X175038750Y-100091093D01*
X175152758Y-99998552D01*
X175269584Y-99905549D01*
X175383066Y-99817135D01*
X175487040Y-99738359D01*
X175491068Y-99735366D01*
X175662502Y-99610663D01*
X175826903Y-99497072D01*
X175989764Y-99391587D01*
X176156580Y-99291203D01*
X176332845Y-99192916D01*
X176524053Y-99093722D01*
X176735698Y-98990615D01*
X176973275Y-98880591D01*
X177242277Y-98760645D01*
X177396416Y-98693348D01*
X177598716Y-98605336D01*
X177795453Y-98519293D01*
X177988998Y-98434123D01*
X178181724Y-98348727D01*
X178376004Y-98262009D01*
X178574210Y-98172870D01*
X178778715Y-98080214D01*
X178991891Y-97982942D01*
X179216111Y-97879957D01*
X179453747Y-97770162D01*
X179707173Y-97652459D01*
X179978759Y-97525751D01*
X180270880Y-97388939D01*
X180585907Y-97240928D01*
X180926213Y-97080618D01*
X181294171Y-96906913D01*
X181692153Y-96718715D01*
X182122532Y-96514926D01*
X182587680Y-96294450D01*
X182804500Y-96191620D01*
X183529337Y-95849203D01*
X184217881Y-95526829D01*
X184870945Y-95224158D01*
X185489337Y-94940850D01*
X186073869Y-94676565D01*
X186625352Y-94430963D01*
X187144595Y-94203703D01*
X187632411Y-93994445D01*
X188089609Y-93802850D01*
X188517000Y-93628576D01*
X188915396Y-93471285D01*
X189285606Y-93330636D01*
X189628441Y-93206288D01*
X189944712Y-93097902D01*
X190235230Y-93005137D01*
X190500806Y-92927654D01*
X190720833Y-92870297D01*
X191222190Y-92762278D01*
X191703028Y-92688754D01*
X192167841Y-92650067D01*
X192621123Y-92646559D01*
X193067368Y-92678572D01*
G36*
X170284971Y-84997383D02*
G01*
X170389972Y-84999565D01*
X170477912Y-85003048D01*
X170552398Y-85007832D01*
X170597487Y-85011857D01*
X170986333Y-85069737D01*
X171352685Y-85163372D01*
X171697453Y-85293244D01*
X172021552Y-85459835D01*
X172325892Y-85663627D01*
X172611387Y-85905101D01*
X172878949Y-86184740D01*
X172928479Y-86243000D01*
X173058854Y-86407301D01*
X173185314Y-86584172D01*
X173313881Y-86782500D01*
X173450577Y-87011169D01*
X173459237Y-87026166D01*
X173629585Y-87308305D01*
X173794276Y-87552366D01*
X173956498Y-87761673D01*
X174119438Y-87939545D01*
X174286285Y-88089306D01*
X174460225Y-88214277D01*
X174644448Y-88317779D01*
X174741804Y-88362688D01*
X174937292Y-88438905D01*
X175104632Y-88486147D01*
X175246476Y-88504488D01*
X175365472Y-88493997D01*
X175464271Y-88454747D01*
X175545522Y-88386809D01*
X175547605Y-88384456D01*
X175583680Y-88339497D01*
X175601856Y-88299673D01*
X175606652Y-88248571D01*
X175603428Y-88181736D01*
X175575856Y-88034444D01*
X175523762Y-87894000D01*
X175481559Y-87782205D01*
X175457511Y-87680697D01*
X175452671Y-87597465D01*
X175468094Y-87540503D01*
X175475827Y-87530706D01*
X175501080Y-87524625D01*
X175548858Y-87539183D01*
X175624587Y-87576182D01*
X175643396Y-87586341D01*
X175876486Y-87731699D01*
X176101247Y-87909298D01*
X176320165Y-88121575D01*
X176535723Y-88370968D01*
X176750407Y-88659913D01*
X176776894Y-88698333D01*
X176825434Y-88771493D01*
X176888961Y-88870562D01*
X176964216Y-88990164D01*
X177047941Y-89124929D01*
X177136876Y-89269481D01*
X177227764Y-89418448D01*
X177317345Y-89566457D01*
X177402361Y-89708135D01*
X177479552Y-89838107D01*
X177545661Y-89951002D01*
X177597429Y-90041445D01*
X177631596Y-90104064D01*
X177641028Y-90123187D01*
X177675982Y-90232067D01*
X177673630Y-90326944D01*
X177634541Y-90413048D01*
X177559179Y-90501934D01*
X177477155Y-90552705D01*
X177381297Y-90569577D01*
X177368366Y-90569521D01*
X177294295Y-90556005D01*
X177188466Y-90518620D01*
X177053265Y-90458525D01*
X176891078Y-90376877D01*
X176704290Y-90274834D01*
X176495288Y-90153556D01*
X176426827Y-90112516D01*
X175984152Y-89859744D01*
X175533071Y-89631546D01*
X175070518Y-89427098D01*
X174593424Y-89245578D01*
X174098722Y-89086163D01*
X173583343Y-88948028D01*
X173044220Y-88830352D01*
X172478285Y-88732310D01*
X171882470Y-88653080D01*
X171253707Y-88591838D01*
X170596897Y-88548180D01*
X170419959Y-88541007D01*
X170210083Y-88536060D01*
X169974574Y-88533248D01*
X169720739Y-88532481D01*
X169455881Y-88533668D01*
X169187307Y-88536719D01*
X168922321Y-88541544D01*
X168668228Y-88548052D01*
X168432333Y-88556153D01*
X168221943Y-88565755D01*
X168044361Y-88576770D01*
X167998416Y-88580349D01*
X167738345Y-88602982D01*
X167471503Y-88628583D01*
X167195456Y-88657498D01*
X166907771Y-88690074D01*
X166606017Y-88726657D01*
X166287759Y-88767591D01*
X165950564Y-88813224D01*
X165592001Y-88863901D01*
X165209634Y-88919969D01*
X164801033Y-88981773D01*
X164363763Y-89049659D01*
X163895392Y-89123973D01*
X163393486Y-89205061D01*
X162855613Y-89293270D01*
X162279339Y-89388944D01*
X162092916Y-89420107D01*
X160993864Y-89609038D01*
X159934607Y-89801273D01*
X158912697Y-89997345D01*
X157925689Y-90197784D01*
X156971134Y-90403123D01*
X156046585Y-90613894D01*
X155149595Y-90830627D01*
X154277717Y-91053856D01*
X153428503Y-91284111D01*
X153139416Y-91365538D01*
X152490052Y-91553921D01*
X151879748Y-91738836D01*
X151305495Y-91921530D01*
X150764281Y-92103250D01*
X150253096Y-92285242D01*
X149768932Y-92468752D01*
X149308777Y-92655027D01*
X148869622Y-92845313D01*
X148448456Y-93040857D01*
X148042270Y-93242904D01*
X147648053Y-93452702D01*
X147262795Y-93671496D01*
X146883487Y-93900533D01*
X146630732Y-94060628D01*
X146442674Y-94178982D01*
X146283111Y-94272256D01*
X146147686Y-94342071D01*
X146032044Y-94390047D01*
X145931827Y-94417804D01*
X145842679Y-94426964D01*
X145760245Y-94419146D01*
X145705387Y-94404825D01*
X145607580Y-94365938D01*
X145510490Y-94311085D01*
X145406644Y-94235104D01*
X145288569Y-94132834D01*
X145224366Y-94072624D01*
X144997021Y-93839297D01*
X144808245Y-93609435D01*
X144655115Y-93378087D01*
X144534712Y-93140306D01*
X144444115Y-92891141D01*
X144385137Y-92650457D01*
X144367579Y-92554139D01*
X144353865Y-92466608D01*
X144345902Y-92400695D01*
X144344666Y-92378490D01*
X144363545Y-92276290D01*
X144415498Y-92191944D01*
X144493498Y-92129741D01*
X144590516Y-92093969D01*
X144699526Y-92088916D01*
X144786966Y-92108571D01*
X144828355Y-92130325D01*
X144894027Y-92173276D01*
X144975645Y-92231637D01*
X145064874Y-92299620D01*
X145084262Y-92314946D01*
X145293564Y-92472901D01*
X145488360Y-92600494D01*
X145677658Y-92702562D01*
X145870465Y-92783946D01*
X146075790Y-92849484D01*
X146083065Y-92851482D01*
X146156224Y-92870029D01*
X146224530Y-92883139D01*
X146297692Y-92891659D01*
X146385423Y-92896435D01*
X146497434Y-92898311D01*
X146620083Y-92898254D01*
X146798489Y-92894529D01*
X146962401Y-92883985D01*
X147118444Y-92864964D01*
X147273243Y-92835808D01*
X147433423Y-92794859D01*
X147605610Y-92740458D01*
X147796428Y-92670949D01*
X148012503Y-92584672D01*
X148217018Y-92498609D01*
X148565040Y-92346957D01*
X148927749Y-92183431D01*
X149306654Y-92007246D01*
X149703265Y-91817615D01*
X150119092Y-91613754D01*
X150555646Y-91394876D01*
X151014435Y-91160196D01*
X151496971Y-90908929D01*
X152004764Y-90640288D01*
X152539322Y-90353488D01*
X153102157Y-90047743D01*
X153694778Y-89722268D01*
X154318696Y-89376277D01*
X154975420Y-89008985D01*
X155594750Y-88660136D01*
X156063131Y-88396204D01*
X156497533Y-88152968D01*
X156900233Y-87929272D01*
X157273510Y-87723963D01*
X157619643Y-87535886D01*
X157940910Y-87363886D01*
X158239590Y-87206809D01*
X158517962Y-87063499D01*
X158778303Y-86932803D01*
X159022892Y-86813565D01*
X159254008Y-86704632D01*
X159473930Y-86604847D01*
X159684935Y-86513058D01*
X159889303Y-86428109D01*
X160089312Y-86348845D01*
X160287241Y-86274112D01*
X160345178Y-86252903D01*
X160948046Y-86047705D01*
X161573634Y-85862447D01*
X162224060Y-85696733D01*
X162901440Y-85550165D01*
X163607893Y-85422345D01*
X164345536Y-85312875D01*
X165116486Y-85221357D01*
X165922861Y-85147395D01*
X166421500Y-85111478D01*
X166645374Y-85097352D01*
X166860875Y-85084758D01*
X167073368Y-85073494D01*
X167288214Y-85063360D01*
X167510780Y-85054156D01*
X167746428Y-85045681D01*
X168000523Y-85037735D01*
X168278429Y-85030117D01*
X168585509Y-85022627D01*
X168927127Y-85015064D01*
X169094653Y-85011560D01*
X169377780Y-85005954D01*
X169622201Y-85001645D01*
X169831522Y-84998632D01*
X170009353Y-84996917D01*
X170159300Y-84996501D01*
X170284971Y-84997383D01*
G37*
X170284971Y-84997383D02*
X170389972Y-84999565D01*
X170477912Y-85003048D01*
X170552398Y-85007832D01*
X170597487Y-85011857D01*
X170986333Y-85069737D01*
X171352685Y-85163372D01*
X171697453Y-85293244D01*
X172021552Y-85459835D01*
X172325892Y-85663627D01*
X172611387Y-85905101D01*
X172878949Y-86184740D01*
X172928479Y-86243000D01*
X173058854Y-86407301D01*
X173185314Y-86584172D01*
X173313881Y-86782500D01*
X173450577Y-87011169D01*
X173459237Y-87026166D01*
X173629585Y-87308305D01*
X173794276Y-87552366D01*
X173956498Y-87761673D01*
X174119438Y-87939545D01*
X174286285Y-88089306D01*
X174460225Y-88214277D01*
X174644448Y-88317779D01*
X174741804Y-88362688D01*
X174937292Y-88438905D01*
X175104632Y-88486147D01*
X175246476Y-88504488D01*
X175365472Y-88493997D01*
X175464271Y-88454747D01*
X175545522Y-88386809D01*
X175547605Y-88384456D01*
X175583680Y-88339497D01*
X175601856Y-88299673D01*
X175606652Y-88248571D01*
X175603428Y-88181736D01*
X175575856Y-88034444D01*
X175523762Y-87894000D01*
X175481559Y-87782205D01*
X175457511Y-87680697D01*
X175452671Y-87597465D01*
X175468094Y-87540503D01*
X175475827Y-87530706D01*
X175501080Y-87524625D01*
X175548858Y-87539183D01*
X175624587Y-87576182D01*
X175643396Y-87586341D01*
X175876486Y-87731699D01*
X176101247Y-87909298D01*
X176320165Y-88121575D01*
X176535723Y-88370968D01*
X176750407Y-88659913D01*
X176776894Y-88698333D01*
X176825434Y-88771493D01*
X176888961Y-88870562D01*
X176964216Y-88990164D01*
X177047941Y-89124929D01*
X177136876Y-89269481D01*
X177227764Y-89418448D01*
X177317345Y-89566457D01*
X177402361Y-89708135D01*
X177479552Y-89838107D01*
X177545661Y-89951002D01*
X177597429Y-90041445D01*
X177631596Y-90104064D01*
X177641028Y-90123187D01*
X177675982Y-90232067D01*
X177673630Y-90326944D01*
X177634541Y-90413048D01*
X177559179Y-90501934D01*
X177477155Y-90552705D01*
X177381297Y-90569577D01*
X177368366Y-90569521D01*
X177294295Y-90556005D01*
X177188466Y-90518620D01*
X177053265Y-90458525D01*
X176891078Y-90376877D01*
X176704290Y-90274834D01*
X176495288Y-90153556D01*
X176426827Y-90112516D01*
X175984152Y-89859744D01*
X175533071Y-89631546D01*
X175070518Y-89427098D01*
X174593424Y-89245578D01*
X174098722Y-89086163D01*
X173583343Y-88948028D01*
X173044220Y-88830352D01*
X172478285Y-88732310D01*
X171882470Y-88653080D01*
X171253707Y-88591838D01*
X170596897Y-88548180D01*
X170419959Y-88541007D01*
X170210083Y-88536060D01*
X169974574Y-88533248D01*
X169720739Y-88532481D01*
X169455881Y-88533668D01*
X169187307Y-88536719D01*
X168922321Y-88541544D01*
X168668228Y-88548052D01*
X168432333Y-88556153D01*
X168221943Y-88565755D01*
X168044361Y-88576770D01*
X167998416Y-88580349D01*
X167738345Y-88602982D01*
X167471503Y-88628583D01*
X167195456Y-88657498D01*
X166907771Y-88690074D01*
X166606017Y-88726657D01*
X166287759Y-88767591D01*
X165950564Y-88813224D01*
X165592001Y-88863901D01*
X165209634Y-88919969D01*
X164801033Y-88981773D01*
X164363763Y-89049659D01*
X163895392Y-89123973D01*
X163393486Y-89205061D01*
X162855613Y-89293270D01*
X162279339Y-89388944D01*
X162092916Y-89420107D01*
X160993864Y-89609038D01*
X159934607Y-89801273D01*
X158912697Y-89997345D01*
X157925689Y-90197784D01*
X156971134Y-90403123D01*
X156046585Y-90613894D01*
X155149595Y-90830627D01*
X154277717Y-91053856D01*
X153428503Y-91284111D01*
X153139416Y-91365538D01*
X152490052Y-91553921D01*
X151879748Y-91738836D01*
X151305495Y-91921530D01*
X150764281Y-92103250D01*
X150253096Y-92285242D01*
X149768932Y-92468752D01*
X149308777Y-92655027D01*
X148869622Y-92845313D01*
X148448456Y-93040857D01*
X148042270Y-93242904D01*
X147648053Y-93452702D01*
X147262795Y-93671496D01*
X146883487Y-93900533D01*
X146630732Y-94060628D01*
X146442674Y-94178982D01*
X146283111Y-94272256D01*
X146147686Y-94342071D01*
X146032044Y-94390047D01*
X145931827Y-94417804D01*
X145842679Y-94426964D01*
X145760245Y-94419146D01*
X145705387Y-94404825D01*
X145607580Y-94365938D01*
X145510490Y-94311085D01*
X145406644Y-94235104D01*
X145288569Y-94132834D01*
X145224366Y-94072624D01*
X144997021Y-93839297D01*
X144808245Y-93609435D01*
X144655115Y-93378087D01*
X144534712Y-93140306D01*
X144444115Y-92891141D01*
X144385137Y-92650457D01*
X144367579Y-92554139D01*
X144353865Y-92466608D01*
X144345902Y-92400695D01*
X144344666Y-92378490D01*
X144363545Y-92276290D01*
X144415498Y-92191944D01*
X144493498Y-92129741D01*
X144590516Y-92093969D01*
X144699526Y-92088916D01*
X144786966Y-92108571D01*
X144828355Y-92130325D01*
X144894027Y-92173276D01*
X144975645Y-92231637D01*
X145064874Y-92299620D01*
X145084262Y-92314946D01*
X145293564Y-92472901D01*
X145488360Y-92600494D01*
X145677658Y-92702562D01*
X145870465Y-92783946D01*
X146075790Y-92849484D01*
X146083065Y-92851482D01*
X146156224Y-92870029D01*
X146224530Y-92883139D01*
X146297692Y-92891659D01*
X146385423Y-92896435D01*
X146497434Y-92898311D01*
X146620083Y-92898254D01*
X146798489Y-92894529D01*
X146962401Y-92883985D01*
X147118444Y-92864964D01*
X147273243Y-92835808D01*
X147433423Y-92794859D01*
X147605610Y-92740458D01*
X147796428Y-92670949D01*
X148012503Y-92584672D01*
X148217018Y-92498609D01*
X148565040Y-92346957D01*
X148927749Y-92183431D01*
X149306654Y-92007246D01*
X149703265Y-91817615D01*
X150119092Y-91613754D01*
X150555646Y-91394876D01*
X151014435Y-91160196D01*
X151496971Y-90908929D01*
X152004764Y-90640288D01*
X152539322Y-90353488D01*
X153102157Y-90047743D01*
X153694778Y-89722268D01*
X154318696Y-89376277D01*
X154975420Y-89008985D01*
X155594750Y-88660136D01*
X156063131Y-88396204D01*
X156497533Y-88152968D01*
X156900233Y-87929272D01*
X157273510Y-87723963D01*
X157619643Y-87535886D01*
X157940910Y-87363886D01*
X158239590Y-87206809D01*
X158517962Y-87063499D01*
X158778303Y-86932803D01*
X159022892Y-86813565D01*
X159254008Y-86704632D01*
X159473930Y-86604847D01*
X159684935Y-86513058D01*
X159889303Y-86428109D01*
X160089312Y-86348845D01*
X160287241Y-86274112D01*
X160345178Y-86252903D01*
X160948046Y-86047705D01*
X161573634Y-85862447D01*
X162224060Y-85696733D01*
X162901440Y-85550165D01*
X163607893Y-85422345D01*
X164345536Y-85312875D01*
X165116486Y-85221357D01*
X165922861Y-85147395D01*
X166421500Y-85111478D01*
X166645374Y-85097352D01*
X166860875Y-85084758D01*
X167073368Y-85073494D01*
X167288214Y-85063360D01*
X167510780Y-85054156D01*
X167746428Y-85045681D01*
X168000523Y-85037735D01*
X168278429Y-85030117D01*
X168585509Y-85022627D01*
X168927127Y-85015064D01*
X169094653Y-85011560D01*
X169377780Y-85005954D01*
X169622201Y-85001645D01*
X169831522Y-84998632D01*
X170009353Y-84996917D01*
X170159300Y-84996501D01*
X170284971Y-84997383D01*
G36*
X159789204Y-50075594D02*
G01*
X159886863Y-50123328D01*
X159975041Y-50208559D01*
X160002020Y-50243922D01*
X160020260Y-50276567D01*
X160054300Y-50345006D01*
X160102802Y-50446327D01*
X160164427Y-50577617D01*
X160237836Y-50735961D01*
X160321691Y-50918446D01*
X160414653Y-51122159D01*
X160515382Y-51344187D01*
X160622541Y-51581616D01*
X160734790Y-51831532D01*
X160850792Y-52091022D01*
X160851048Y-52091597D01*
X160996580Y-52417926D01*
X161125994Y-52708080D01*
X161240434Y-52964536D01*
X161341044Y-53189774D01*
X161428968Y-53386273D01*
X161505349Y-53556511D01*
X161571330Y-53702967D01*
X161628055Y-53828120D01*
X161676669Y-53934448D01*
X161718315Y-54024430D01*
X161754135Y-54100544D01*
X161785275Y-54165271D01*
X161812878Y-54221087D01*
X161838086Y-54270473D01*
X161862045Y-54315906D01*
X161885898Y-54359866D01*
X161910788Y-54404831D01*
X161937858Y-54453280D01*
X161954151Y-54482416D01*
X162148610Y-54806814D01*
X162350198Y-55095376D01*
X162563558Y-55354527D01*
X162657358Y-55455690D01*
X162791005Y-55588793D01*
X162906437Y-55688938D01*
X163008606Y-55758601D01*
X163102465Y-55800256D01*
X163192965Y-55816379D01*
X163285058Y-55809443D01*
X163339150Y-55796416D01*
X163453904Y-55746139D01*
X163534367Y-55671373D01*
X163581637Y-55570861D01*
X163593807Y-55504872D01*
X163595755Y-55466588D01*
X163597802Y-55389364D01*
X163599910Y-55276593D01*
X163602044Y-55131667D01*
X163604166Y-54957981D01*
X163606239Y-54758926D01*
X163608228Y-54537896D01*
X163610094Y-54298284D01*
X163611801Y-54043483D01*
X163613313Y-53776885D01*
X163613956Y-53646333D01*
X163615914Y-53282098D01*
X163618198Y-52958884D01*
X163620833Y-52675378D01*
X163623841Y-52430268D01*
X163627244Y-52222243D01*
X163631068Y-52049991D01*
X163635333Y-51912199D01*
X163640065Y-51807556D01*
X163645285Y-51734749D01*
X163648125Y-51709583D01*
X163702253Y-51413840D01*
X163780761Y-51133595D01*
X163880942Y-50877341D01*
X163967817Y-50707485D01*
X164002957Y-50650025D01*
X164029986Y-50612664D01*
X164042020Y-50603631D01*
X164052253Y-50630179D01*
X164067717Y-50690163D01*
X164086726Y-50775255D01*
X164107592Y-50877127D01*
X164128626Y-50987452D01*
X164148141Y-51097900D01*
X164164450Y-51200145D01*
X164168282Y-51226665D01*
X164178735Y-51310615D01*
X164191434Y-51427678D01*
X164205490Y-51568749D01*
X164220014Y-51724724D01*
X164234117Y-51886500D01*
X164241729Y-51979076D01*
X164254682Y-52137124D01*
X164267874Y-52291954D01*
X164280549Y-52435136D01*
X164291951Y-52558244D01*
X164301324Y-52652851D01*
X164305824Y-52693833D01*
X164369551Y-53086541D01*
X164465915Y-53466754D01*
X164592983Y-53828703D01*
X164748818Y-54166617D01*
X164872385Y-54383196D01*
X164922224Y-54461951D01*
X164971015Y-54535255D01*
X165022782Y-54608270D01*
X165081547Y-54686160D01*
X165151334Y-54774087D01*
X165236168Y-54877215D01*
X165340072Y-55000706D01*
X165467069Y-55149723D01*
X165497226Y-55184949D01*
X165651052Y-55365275D01*
X165811474Y-55554707D01*
X165976321Y-55750585D01*
X166143421Y-55950251D01*
X166310602Y-56151046D01*
X166475694Y-56350311D01*
X166636525Y-56545387D01*
X166790923Y-56733616D01*
X166936717Y-56912338D01*
X167071735Y-57078895D01*
X167193806Y-57230628D01*
X167300758Y-57364878D01*
X167390420Y-57478987D01*
X167460621Y-57570294D01*
X167509189Y-57636142D01*
X167533952Y-57673872D01*
X167536481Y-57681907D01*
X167515152Y-57676464D01*
X167461776Y-57655370D01*
X167382487Y-57621263D01*
X167283417Y-57576783D01*
X167170699Y-57524566D01*
X167169832Y-57524159D01*
X167040094Y-57463992D01*
X166907811Y-57404043D01*
X166783937Y-57349183D01*
X166679430Y-57304279D01*
X166622583Y-57280949D01*
X166484482Y-57229135D01*
X166379569Y-57197983D01*
X166303694Y-57188200D01*
X166252709Y-57200494D01*
X166222464Y-57235572D01*
X166208811Y-57294143D01*
X166206934Y-57351851D01*
X166212043Y-57457474D01*
X166225568Y-57562421D01*
X166249219Y-57671053D01*
X166284702Y-57787730D01*
X166333725Y-57916813D01*
X166397996Y-58062664D01*
X166479224Y-58229642D01*
X166579115Y-58422110D01*
X166699377Y-58644427D01*
X166746861Y-58730573D01*
X166814515Y-58855570D01*
X166878305Y-58978455D01*
X166933957Y-59090611D01*
X166977197Y-59183423D01*
X167003754Y-59248274D01*
X167004061Y-59249156D01*
X167031555Y-59338235D01*
X167053519Y-59427732D01*
X167068468Y-59508666D01*
X167074916Y-59572059D01*
X167071378Y-59608931D01*
X167064518Y-59614650D01*
X167039225Y-59603073D01*
X166989355Y-59573089D01*
X166924882Y-59530754D01*
X166913146Y-59522736D01*
X166804303Y-59444482D01*
X166702037Y-59362784D01*
X166602715Y-59273590D01*
X166502701Y-59172846D01*
X166398363Y-59056502D01*
X166286066Y-58920504D01*
X166162176Y-58760801D01*
X166023060Y-58573340D01*
X165865086Y-58354075D01*
X165725753Y-58159639D01*
X165606097Y-57995246D01*
X165502083Y-57855868D01*
X165409676Y-57736478D01*
X165324842Y-57632050D01*
X165243544Y-57537555D01*
X165161749Y-57447967D01*
X165075421Y-57358258D01*
X165025322Y-57307819D01*
X164878193Y-57169492D01*
X164748107Y-57066496D01*
X164631425Y-56997224D01*
X164524510Y-56960072D01*
X164423723Y-56953431D01*
X164325426Y-56975696D01*
X164298199Y-56986738D01*
X164177958Y-57059378D01*
X164053602Y-57171695D01*
X163926717Y-57321417D01*
X163798886Y-57506274D01*
X163671695Y-57723995D01*
X163546729Y-57972308D01*
X163437508Y-58219981D01*
X163372338Y-58369531D01*
X163315459Y-58482125D01*
X163264046Y-58561653D01*
X163215274Y-58612007D01*
X163166315Y-58637076D01*
X163131261Y-58641666D01*
X163069470Y-58624641D01*
X163023383Y-58571830D01*
X162992291Y-58487255D01*
X162955408Y-58365904D01*
X162900129Y-58216430D01*
X162830186Y-58046803D01*
X162749308Y-57864991D01*
X162661224Y-57678964D01*
X162569663Y-57496690D01*
X162478356Y-57326141D01*
X162391031Y-57175283D01*
X162341421Y-57096500D01*
X162095511Y-56756100D01*
X161827212Y-56451198D01*
X161535559Y-56180778D01*
X161295057Y-55995833D01*
X161174735Y-55907417D01*
X161087115Y-55833845D01*
X161027785Y-55769603D01*
X160992329Y-55709175D01*
X160976334Y-55647048D01*
X160974477Y-55595310D01*
X160976463Y-55541511D01*
X160979861Y-55454901D01*
X160984290Y-55344967D01*
X160989368Y-55221193D01*
X160992945Y-55135211D01*
X160998232Y-54984090D01*
X160999558Y-54864002D01*
X160996515Y-54763795D01*
X160988692Y-54672317D01*
X160975682Y-54578418D01*
X160971586Y-54553355D01*
X160940685Y-54388845D01*
X160902954Y-54228680D01*
X160856345Y-54067495D01*
X160798809Y-53899927D01*
X160728297Y-53720612D01*
X160642761Y-53524186D01*
X160540152Y-53305287D01*
X160418421Y-53058550D01*
X160346177Y-52916083D01*
X160224526Y-52675361D01*
X160113353Y-52449277D01*
X160008954Y-52229633D01*
X159907623Y-52008232D01*
X159805656Y-51776877D01*
X159699348Y-51527373D01*
X159584994Y-51251522D01*
X159504273Y-51053416D01*
X159429093Y-50865738D01*
X159370074Y-50712273D01*
X159326232Y-50588527D01*
X159296579Y-50490009D01*
X159280130Y-50412226D01*
X159275899Y-50350686D01*
X159282898Y-50300897D01*
X159300142Y-50258366D01*
X159322269Y-50224364D01*
X159396793Y-50154428D01*
X159498115Y-50099929D01*
X159611604Y-50067604D01*
X159675493Y-50061692D01*
X159789204Y-50075594D01*
G37*
X159789204Y-50075594D02*
X159886863Y-50123328D01*
X159975041Y-50208559D01*
X160002020Y-50243922D01*
X160020260Y-50276567D01*
X160054300Y-50345006D01*
X160102802Y-50446327D01*
X160164427Y-50577617D01*
X160237836Y-50735961D01*
X160321691Y-50918446D01*
X160414653Y-51122159D01*
X160515382Y-51344187D01*
X160622541Y-51581616D01*
X160734790Y-51831532D01*
X160850792Y-52091022D01*
X160851048Y-52091597D01*
X160996580Y-52417926D01*
X161125994Y-52708080D01*
X161240434Y-52964536D01*
X161341044Y-53189774D01*
X161428968Y-53386273D01*
X161505349Y-53556511D01*
X161571330Y-53702967D01*
X161628055Y-53828120D01*
X161676669Y-53934448D01*
X161718315Y-54024430D01*
X161754135Y-54100544D01*
X161785275Y-54165271D01*
X161812878Y-54221087D01*
X161838086Y-54270473D01*
X161862045Y-54315906D01*
X161885898Y-54359866D01*
X161910788Y-54404831D01*
X161937858Y-54453280D01*
X161954151Y-54482416D01*
X162148610Y-54806814D01*
X162350198Y-55095376D01*
X162563558Y-55354527D01*
X162657358Y-55455690D01*
X162791005Y-55588793D01*
X162906437Y-55688938D01*
X163008606Y-55758601D01*
X163102465Y-55800256D01*
X163192965Y-55816379D01*
X163285058Y-55809443D01*
X163339150Y-55796416D01*
X163453904Y-55746139D01*
X163534367Y-55671373D01*
X163581637Y-55570861D01*
X163593807Y-55504872D01*
X163595755Y-55466588D01*
X163597802Y-55389364D01*
X163599910Y-55276593D01*
X163602044Y-55131667D01*
X163604166Y-54957981D01*
X163606239Y-54758926D01*
X163608228Y-54537896D01*
X163610094Y-54298284D01*
X163611801Y-54043483D01*
X163613313Y-53776885D01*
X163613956Y-53646333D01*
X163615914Y-53282098D01*
X163618198Y-52958884D01*
X163620833Y-52675378D01*
X163623841Y-52430268D01*
X163627244Y-52222243D01*
X163631068Y-52049991D01*
X163635333Y-51912199D01*
X163640065Y-51807556D01*
X163645285Y-51734749D01*
X163648125Y-51709583D01*
X163702253Y-51413840D01*
X163780761Y-51133595D01*
X163880942Y-50877341D01*
X163967817Y-50707485D01*
X164002957Y-50650025D01*
X164029986Y-50612664D01*
X164042020Y-50603631D01*
X164052253Y-50630179D01*
X164067717Y-50690163D01*
X164086726Y-50775255D01*
X164107592Y-50877127D01*
X164128626Y-50987452D01*
X164148141Y-51097900D01*
X164164450Y-51200145D01*
X164168282Y-51226665D01*
X164178735Y-51310615D01*
X164191434Y-51427678D01*
X164205490Y-51568749D01*
X164220014Y-51724724D01*
X164234117Y-51886500D01*
X164241729Y-51979076D01*
X164254682Y-52137124D01*
X164267874Y-52291954D01*
X164280549Y-52435136D01*
X164291951Y-52558244D01*
X164301324Y-52652851D01*
X164305824Y-52693833D01*
X164369551Y-53086541D01*
X164465915Y-53466754D01*
X164592983Y-53828703D01*
X164748818Y-54166617D01*
X164872385Y-54383196D01*
X164922224Y-54461951D01*
X164971015Y-54535255D01*
X165022782Y-54608270D01*
X165081547Y-54686160D01*
X165151334Y-54774087D01*
X165236168Y-54877215D01*
X165340072Y-55000706D01*
X165467069Y-55149723D01*
X165497226Y-55184949D01*
X165651052Y-55365275D01*
X165811474Y-55554707D01*
X165976321Y-55750585D01*
X166143421Y-55950251D01*
X166310602Y-56151046D01*
X166475694Y-56350311D01*
X166636525Y-56545387D01*
X166790923Y-56733616D01*
X166936717Y-56912338D01*
X167071735Y-57078895D01*
X167193806Y-57230628D01*
X167300758Y-57364878D01*
X167390420Y-57478987D01*
X167460621Y-57570294D01*
X167509189Y-57636142D01*
X167533952Y-57673872D01*
X167536481Y-57681907D01*
X167515152Y-57676464D01*
X167461776Y-57655370D01*
X167382487Y-57621263D01*
X167283417Y-57576783D01*
X167170699Y-57524566D01*
X167169832Y-57524159D01*
X167040094Y-57463992D01*
X166907811Y-57404043D01*
X166783937Y-57349183D01*
X166679430Y-57304279D01*
X166622583Y-57280949D01*
X166484482Y-57229135D01*
X166379569Y-57197983D01*
X166303694Y-57188200D01*
X166252709Y-57200494D01*
X166222464Y-57235572D01*
X166208811Y-57294143D01*
X166206934Y-57351851D01*
X166212043Y-57457474D01*
X166225568Y-57562421D01*
X166249219Y-57671053D01*
X166284702Y-57787730D01*
X166333725Y-57916813D01*
X166397996Y-58062664D01*
X166479224Y-58229642D01*
X166579115Y-58422110D01*
X166699377Y-58644427D01*
X166746861Y-58730573D01*
X166814515Y-58855570D01*
X166878305Y-58978455D01*
X166933957Y-59090611D01*
X166977197Y-59183423D01*
X167003754Y-59248274D01*
X167004061Y-59249156D01*
X167031555Y-59338235D01*
X167053519Y-59427732D01*
X167068468Y-59508666D01*
X167074916Y-59572059D01*
X167071378Y-59608931D01*
X167064518Y-59614650D01*
X167039225Y-59603073D01*
X166989355Y-59573089D01*
X166924882Y-59530754D01*
X166913146Y-59522736D01*
X166804303Y-59444482D01*
X166702037Y-59362784D01*
X166602715Y-59273590D01*
X166502701Y-59172846D01*
X166398363Y-59056502D01*
X166286066Y-58920504D01*
X166162176Y-58760801D01*
X166023060Y-58573340D01*
X165865086Y-58354075D01*
X165725753Y-58159639D01*
X165606097Y-57995246D01*
X165502083Y-57855868D01*
X165409676Y-57736478D01*
X165324842Y-57632050D01*
X165243544Y-57537555D01*
X165161749Y-57447967D01*
X165075421Y-57358258D01*
X165025322Y-57307819D01*
X164878193Y-57169492D01*
X164748107Y-57066496D01*
X164631425Y-56997224D01*
X164524510Y-56960072D01*
X164423723Y-56953431D01*
X164325426Y-56975696D01*
X164298199Y-56986738D01*
X164177958Y-57059378D01*
X164053602Y-57171695D01*
X163926717Y-57321417D01*
X163798886Y-57506274D01*
X163671695Y-57723995D01*
X163546729Y-57972308D01*
X163437508Y-58219981D01*
X163372338Y-58369531D01*
X163315459Y-58482125D01*
X163264046Y-58561653D01*
X163215274Y-58612007D01*
X163166315Y-58637076D01*
X163131261Y-58641666D01*
X163069470Y-58624641D01*
X163023383Y-58571830D01*
X162992291Y-58487255D01*
X162955408Y-58365904D01*
X162900129Y-58216430D01*
X162830186Y-58046803D01*
X162749308Y-57864991D01*
X162661224Y-57678964D01*
X162569663Y-57496690D01*
X162478356Y-57326141D01*
X162391031Y-57175283D01*
X162341421Y-57096500D01*
X162095511Y-56756100D01*
X161827212Y-56451198D01*
X161535559Y-56180778D01*
X161295057Y-55995833D01*
X161174735Y-55907417D01*
X161087115Y-55833845D01*
X161027785Y-55769603D01*
X160992329Y-55709175D01*
X160976334Y-55647048D01*
X160974477Y-55595310D01*
X160976463Y-55541511D01*
X160979861Y-55454901D01*
X160984290Y-55344967D01*
X160989368Y-55221193D01*
X160992945Y-55135211D01*
X160998232Y-54984090D01*
X160999558Y-54864002D01*
X160996515Y-54763795D01*
X160988692Y-54672317D01*
X160975682Y-54578418D01*
X160971586Y-54553355D01*
X160940685Y-54388845D01*
X160902954Y-54228680D01*
X160856345Y-54067495D01*
X160798809Y-53899927D01*
X160728297Y-53720612D01*
X160642761Y-53524186D01*
X160540152Y-53305287D01*
X160418421Y-53058550D01*
X160346177Y-52916083D01*
X160224526Y-52675361D01*
X160113353Y-52449277D01*
X160008954Y-52229633D01*
X159907623Y-52008232D01*
X159805656Y-51776877D01*
X159699348Y-51527373D01*
X159584994Y-51251522D01*
X159504273Y-51053416D01*
X159429093Y-50865738D01*
X159370074Y-50712273D01*
X159326232Y-50588527D01*
X159296579Y-50490009D01*
X159280130Y-50412226D01*
X159275899Y-50350686D01*
X159282898Y-50300897D01*
X159300142Y-50258366D01*
X159322269Y-50224364D01*
X159396793Y-50154428D01*
X159498115Y-50099929D01*
X159611604Y-50067604D01*
X159675493Y-50061692D01*
X159789204Y-50075594D01*
M02*
