G04 #@! TF.GenerationSoftware,KiCad,Pcbnew,(5.1.7)-1*
G04 #@! TF.CreationDate,2020-12-19T00:30:41-03:00*
G04 #@! TF.ProjectId,Sorting Hat,536f7274-696e-4672-9048-61742e6b6963,rev?*
G04 #@! TF.SameCoordinates,Original*
G04 #@! TF.FileFunction,Copper,L1,Top*
G04 #@! TF.FilePolarity,Positive*
%FSLAX46Y46*%
G04 Gerber Fmt 4.6, Leading zero omitted, Abs format (unit mm)*
G04 Created by KiCad (PCBNEW (5.1.7)-1) date 2020-12-19 00:30:41*
%MOMM*%
%LPD*%
G01*
G04 APERTURE LIST*
G04 #@! TA.AperFunction,NonConductor*
%ADD10C,0.254000*%
G04 #@! TD*
G04 #@! TA.AperFunction,NonConductor*
%ADD11C,0.100000*%
G04 #@! TD*
G04 APERTURE END LIST*
D10*
X167083874Y-46527557D02*
X167269543Y-46558727D01*
X167446661Y-46609503D01*
X167518588Y-46636412D01*
X167611900Y-46675533D01*
X167692792Y-46714284D01*
X167766898Y-46756420D01*
X167841140Y-46806668D01*
X167921987Y-46870076D01*
X168014950Y-46951311D01*
X168125011Y-47054532D01*
X168256914Y-47183485D01*
X168344345Y-47270543D01*
X168346325Y-47272473D01*
X168609683Y-47523528D01*
X168615079Y-47528385D01*
X168872758Y-47747333D01*
X168879387Y-47752596D01*
X169141331Y-47946672D01*
X169148557Y-47951648D01*
X169424711Y-48128091D01*
X169431637Y-48132213D01*
X169731945Y-48298259D01*
X169735771Y-48300290D01*
X169814720Y-48340490D01*
X169818128Y-48342162D01*
X170117125Y-48483321D01*
X170122644Y-48485768D01*
X170435300Y-48615583D01*
X170440720Y-48617689D01*
X170772205Y-48737847D01*
X170777264Y-48739561D01*
X171132750Y-48851745D01*
X171137262Y-48853078D01*
X171521918Y-48958974D01*
X171525785Y-48959973D01*
X171944782Y-49061265D01*
X171947303Y-49061847D01*
X172187980Y-49114865D01*
X172188078Y-49114887D01*
X172857340Y-49261758D01*
X173486941Y-49408132D01*
X174081073Y-49555190D01*
X174643286Y-49703973D01*
X175177088Y-49855508D01*
X175686008Y-50010824D01*
X176173675Y-50170986D01*
X176643611Y-50337025D01*
X177099439Y-50510012D01*
X177545374Y-50691268D01*
X177615587Y-50720918D01*
X177759604Y-50783786D01*
X177928778Y-50860520D01*
X178116368Y-50947837D01*
X178315363Y-51042331D01*
X178518145Y-51140298D01*
X178718076Y-51238500D01*
X178907813Y-51333358D01*
X179080109Y-51421330D01*
X179227843Y-51498929D01*
X179344120Y-51562767D01*
X179349357Y-51565752D01*
X179502364Y-51656401D01*
X179670366Y-51761384D01*
X179844103Y-51874512D01*
X180013473Y-51989054D01*
X180168412Y-52098264D01*
X180299228Y-52195620D01*
X180337132Y-52225395D01*
X180451766Y-52322376D01*
X180579732Y-52439447D01*
X180712685Y-52568315D01*
X180841590Y-52699961D01*
X180957429Y-52825258D01*
X181051721Y-52935525D01*
X181080139Y-52971758D01*
X181210626Y-53165032D01*
X181298787Y-53341750D01*
X181347444Y-53502245D01*
X181359634Y-53646651D01*
X181338345Y-53778164D01*
X181283579Y-53902203D01*
X181189900Y-54025141D01*
X181140085Y-54073725D01*
X181040407Y-54149318D01*
X180901641Y-54231673D01*
X180727295Y-54318236D01*
X180523285Y-54405810D01*
X180294919Y-54491913D01*
X180047265Y-54574322D01*
X179784371Y-54651204D01*
X179718964Y-54668745D01*
X179429656Y-54740271D01*
X179138616Y-54802475D01*
X178839163Y-54856361D01*
X178525199Y-54902761D01*
X178190569Y-54942484D01*
X177829511Y-54976284D01*
X177435772Y-55004961D01*
X177119567Y-55023345D01*
X177063176Y-55025731D01*
X176967163Y-55029054D01*
X176836419Y-55033158D01*
X176836419Y-55033157D01*
X176674050Y-55037958D01*
X176484550Y-55043329D01*
X176271576Y-55049168D01*
X176038619Y-55055379D01*
X175789767Y-55061848D01*
X175528665Y-55068474D01*
X175258945Y-55075156D01*
X175186119Y-55076933D01*
X175186097Y-55076933D01*
X174629516Y-55090611D01*
X174629441Y-55090613D01*
X174110249Y-55103677D01*
X174110163Y-55103679D01*
X173628777Y-55116118D01*
X173628678Y-55116121D01*
X173185512Y-55127920D01*
X173185393Y-55127923D01*
X172780865Y-55139072D01*
X172780722Y-55139076D01*
X172415247Y-55149561D01*
X172415069Y-55149566D01*
X172089064Y-55159375D01*
X172088838Y-55159382D01*
X171802718Y-55168503D01*
X171802416Y-55168513D01*
X171556599Y-55176933D01*
X171556179Y-55176949D01*
X171351079Y-55184655D01*
X171350445Y-55184680D01*
X171186480Y-55191660D01*
X171185415Y-55191710D01*
X171063000Y-55197952D01*
X171061035Y-55198067D01*
X170988985Y-55202861D01*
X170982218Y-55203494D01*
X170790349Y-55226622D01*
X170775838Y-55229233D01*
X170621720Y-55266316D01*
X170599476Y-55273905D01*
X170480117Y-55327416D01*
X170451154Y-55345418D01*
X170363558Y-55417830D01*
X170346016Y-55435497D01*
X170336888Y-55448231D01*
X170278062Y-55542015D01*
X170263384Y-55575145D01*
X170230333Y-55692774D01*
X170225923Y-55718055D01*
X170215653Y-55861435D01*
X170215367Y-55873639D01*
X170217223Y-55948906D01*
X170217581Y-55955814D01*
X170223819Y-56034482D01*
X170224530Y-56041182D01*
X170236233Y-56129197D01*
X170237062Y-56134552D01*
X170255313Y-56237862D01*
X170256032Y-56241605D01*
X170281912Y-56366155D01*
X170282433Y-56368546D01*
X170317025Y-56520284D01*
X170317357Y-56521705D01*
X170361743Y-56706578D01*
X170361881Y-56707146D01*
X170376861Y-56768297D01*
X170412767Y-56916236D01*
X170447560Y-57062970D01*
X170479116Y-57199279D01*
X170505191Y-57315417D01*
X170523658Y-57402109D01*
X170526425Y-57416039D01*
X170547495Y-57560812D01*
X170559243Y-57721543D01*
X170561657Y-57886873D01*
X170554751Y-58042418D01*
X170538917Y-58174733D01*
X170527224Y-58230200D01*
X170474201Y-58399521D01*
X170405391Y-58555232D01*
X170317831Y-58701549D01*
X170207869Y-58842665D01*
X170071555Y-58982150D01*
X169905126Y-59122893D01*
X169705302Y-59267344D01*
X169469137Y-59417885D01*
X169193269Y-59577322D01*
X169148367Y-59602115D01*
X168927481Y-59723765D01*
X168927051Y-59724003D01*
X168739720Y-59828121D01*
X168738961Y-59828547D01*
X168581393Y-59917541D01*
X168580160Y-59918246D01*
X168448566Y-59994523D01*
X168446682Y-59995637D01*
X168337269Y-60061602D01*
X168334542Y-60063293D01*
X168243522Y-60121354D01*
X168239850Y-60123787D01*
X168163432Y-60176349D01*
X168158942Y-60179584D01*
X168093334Y-60229055D01*
X168088529Y-60232863D01*
X168029942Y-60281648D01*
X168025611Y-60285424D01*
X167970254Y-60335930D01*
X167967267Y-60338745D01*
X167919676Y-60385071D01*
X167913273Y-60391777D01*
X167790916Y-60529650D01*
X167778232Y-60546600D01*
X167693500Y-60682065D01*
X167681677Y-60706401D01*
X167631055Y-60847039D01*
X167624619Y-60873611D01*
X167604594Y-61027003D01*
X167603549Y-61040982D01*
X167602905Y-61074215D01*
X167602940Y-61080552D01*
X167605649Y-61169271D01*
X167606449Y-61180139D01*
X167616478Y-61265942D01*
X167618551Y-61278331D01*
X167637936Y-61366970D01*
X167640925Y-61378163D01*
X167671702Y-61475392D01*
X167674709Y-61483843D01*
X167718911Y-61595415D01*
X167721305Y-61601056D01*
X167780969Y-61732724D01*
X167782596Y-61736175D01*
X167859757Y-61893693D01*
X167860684Y-61895548D01*
X167943257Y-62057370D01*
X167943431Y-62057708D01*
X168063128Y-62290559D01*
X168178081Y-62516618D01*
X168289649Y-62738843D01*
X168399037Y-62959895D01*
X168507195Y-63181918D01*
X168615559Y-63408049D01*
X168725009Y-63640276D01*
X168837044Y-63881896D01*
X168952535Y-64134861D01*
X169072794Y-64402078D01*
X169198947Y-64686050D01*
X169332249Y-64989566D01*
X169473480Y-65314334D01*
X169624375Y-65664255D01*
X169785521Y-66040575D01*
X169958535Y-66446936D01*
X170144194Y-66885016D01*
X170343904Y-67357967D01*
X170509859Y-67751973D01*
X170509972Y-67752238D01*
X170646207Y-68073642D01*
X170646535Y-68074409D01*
X170769849Y-68360096D01*
X170770295Y-68361118D01*
X170882553Y-68615038D01*
X170883148Y-68616364D01*
X170986216Y-68842465D01*
X170986990Y-68844131D01*
X171082735Y-69046364D01*
X171083713Y-69048382D01*
X171174002Y-69230696D01*
X171175188Y-69233031D01*
X171261885Y-69399376D01*
X171263256Y-69401935D01*
X171348228Y-69556259D01*
X171349644Y-69558762D01*
X171426653Y-69691423D01*
X171428512Y-69694524D01*
X171616468Y-69998066D01*
X171619303Y-70002441D01*
X171810152Y-70284129D01*
X171813483Y-70288813D01*
X172015411Y-70559605D01*
X172018854Y-70564017D01*
X172240047Y-70834873D01*
X172243173Y-70838554D01*
X172491818Y-71120432D01*
X172493212Y-71121987D01*
X172502612Y-71132297D01*
X172629358Y-71273051D01*
X172729915Y-71389618D01*
X172809576Y-71488775D01*
X172873818Y-71577413D01*
X172928638Y-71663260D01*
X172980337Y-71755146D01*
X172995094Y-71783276D01*
X173077814Y-71958463D01*
X173133882Y-72115847D01*
X173169669Y-72274800D01*
X173189784Y-72455552D01*
X173194332Y-72544946D01*
X173195977Y-72731413D01*
X173184856Y-72890072D01*
X173158922Y-73039418D01*
X173114842Y-73198805D01*
X173065761Y-73340274D01*
X172979799Y-73576571D01*
X172979145Y-73578413D01*
X172908055Y-73783606D01*
X172907062Y-73786591D01*
X172849624Y-73966681D01*
X172848322Y-73971029D01*
X172802997Y-74132907D01*
X172801548Y-74138584D01*
X172766793Y-74289143D01*
X172765462Y-74295688D01*
X172739736Y-74441817D01*
X172738759Y-74448366D01*
X172720522Y-74596957D01*
X172719959Y-74602576D01*
X172707669Y-74760521D01*
X172707416Y-74764631D01*
X172699532Y-74938820D01*
X172699463Y-74940622D01*
X172697893Y-74991207D01*
X172697848Y-74993150D01*
X172694556Y-75202517D01*
X172694560Y-75206763D01*
X172697993Y-75400575D01*
X172698206Y-75406011D01*
X172709447Y-75591427D01*
X172709966Y-75597542D01*
X172730098Y-75781721D01*
X172730909Y-75787786D01*
X172761014Y-75977887D01*
X172761979Y-75983238D01*
X172803140Y-76186419D01*
X172804078Y-76190672D01*
X172857375Y-76414094D01*
X172858153Y-76417180D01*
X172924671Y-76667999D01*
X172925164Y-76669807D01*
X172980123Y-76865347D01*
X172980912Y-76868038D01*
X173306501Y-77935403D01*
X173307838Y-77939532D01*
X173675455Y-79011935D01*
X173676882Y-79015886D01*
X174086524Y-80093321D01*
X174088028Y-80097092D01*
X174539690Y-81179552D01*
X174541254Y-81183145D01*
X175034934Y-82270622D01*
X175036547Y-82274037D01*
X175572240Y-83366525D01*
X175573888Y-83369768D01*
X176151591Y-84467260D01*
X176153263Y-84470334D01*
X176772972Y-85572822D01*
X176774659Y-85575732D01*
X177436372Y-86683210D01*
X177438065Y-86685963D01*
X178141776Y-87798423D01*
X178143467Y-87801026D01*
X178889174Y-88918463D01*
X178890857Y-88920922D01*
X179678555Y-90043327D01*
X179679763Y-90045018D01*
X180042976Y-90544968D01*
X180181471Y-90742245D01*
X180300759Y-90932064D01*
X180404926Y-91122597D01*
X180497288Y-91321199D01*
X180580996Y-91535352D01*
X180658936Y-91772306D01*
X180733847Y-92039062D01*
X180808559Y-92342918D01*
X180812240Y-92358788D01*
X180812677Y-92360609D01*
X180868588Y-92586472D01*
X180869650Y-92590479D01*
X180928179Y-92797676D01*
X180929590Y-92802331D01*
X180988858Y-92985081D01*
X180990990Y-92991128D01*
X181049116Y-93143652D01*
X181052982Y-93152722D01*
X181108085Y-93269237D01*
X181111715Y-93276329D01*
X181114007Y-93280480D01*
X181118351Y-93287762D01*
X181245551Y-93485654D01*
X181257167Y-93501023D01*
X181396848Y-93659285D01*
X181413912Y-93675351D01*
X181567416Y-93795195D01*
X181589695Y-93809138D01*
X181758362Y-93891773D01*
X181774024Y-93898190D01*
X181821107Y-93913907D01*
X181833957Y-93917459D01*
X181950570Y-93943188D01*
X181967888Y-93945773D01*
X182100655Y-93956307D01*
X182115067Y-93956630D01*
X182265811Y-93951443D01*
X182277280Y-93950527D01*
X182447821Y-93929094D01*
X182456750Y-93927647D01*
X182648910Y-93889442D01*
X182655806Y-93887870D01*
X182871408Y-93832368D01*
X182876733Y-93830873D01*
X183117597Y-93757548D01*
X183121722Y-93756215D01*
X183389671Y-93664542D01*
X183392881Y-93663395D01*
X183689736Y-93552847D01*
X183692244Y-93551883D01*
X184019827Y-93421936D01*
X184021794Y-93421137D01*
X184381927Y-93271264D01*
X184383471Y-93270609D01*
X184777975Y-93100285D01*
X184778782Y-93099933D01*
X184892364Y-93049958D01*
X185151614Y-92936054D01*
X185379658Y-92837235D01*
X185583450Y-92750640D01*
X185769962Y-92673392D01*
X185946825Y-92602340D01*
X186121182Y-92534543D01*
X186300401Y-92466977D01*
X186374776Y-92439461D01*
X187217013Y-92151611D01*
X188074638Y-91902293D01*
X188946789Y-91691564D01*
X189831200Y-91519954D01*
X190726330Y-91387875D01*
X191184260Y-91336135D01*
X191398453Y-91314849D01*
X191590659Y-91296911D01*
X191766685Y-91282095D01*
X191933106Y-91270096D01*
X192096637Y-91260609D01*
X192263776Y-91253343D01*
X192441463Y-91248001D01*
X192635980Y-91244314D01*
X192854245Y-91242001D01*
X193102060Y-91240788D01*
X193371568Y-91240397D01*
X193615183Y-91240371D01*
X193820906Y-91240585D01*
X193992096Y-91241185D01*
X194133511Y-91242322D01*
X194248654Y-91244135D01*
X194341819Y-91246755D01*
X194416887Y-91250288D01*
X194477937Y-91254811D01*
X194529595Y-91260429D01*
X194576824Y-91267347D01*
X194624820Y-91275935D01*
X194670845Y-91285049D01*
X195038379Y-91380301D01*
X195388114Y-91512597D01*
X195721957Y-91682059D01*
X196038805Y-91888109D01*
X196338158Y-92130775D01*
X196539199Y-92325114D01*
X196803400Y-92627455D01*
X197030662Y-92946950D01*
X197221036Y-93283040D01*
X197374001Y-93634582D01*
X197489643Y-94002532D01*
X197522912Y-94143825D01*
X197545313Y-94276436D01*
X197562936Y-94437771D01*
X197575024Y-94615459D01*
X197580897Y-94795887D01*
X197580048Y-94965441D01*
X197572135Y-95111396D01*
X197565302Y-95172163D01*
X197511609Y-95456138D01*
X197432663Y-95723493D01*
X197326456Y-95978641D01*
X197190809Y-96225171D01*
X197023278Y-96466464D01*
X196821367Y-96705538D01*
X196582681Y-96945118D01*
X196304927Y-97187812D01*
X196015767Y-97413935D01*
X195682063Y-97642597D01*
X195309219Y-97859667D01*
X194897308Y-98065062D01*
X194447549Y-98257997D01*
X193960333Y-98438054D01*
X193765900Y-98502836D01*
X193677624Y-98531085D01*
X193581193Y-98561262D01*
X193473889Y-98594148D01*
X193353806Y-98630279D01*
X193217942Y-98670528D01*
X193063083Y-98715825D01*
X192887877Y-98766555D01*
X192887877Y-98766554D01*
X192688521Y-98823815D01*
X192688521Y-98823816D01*
X192463350Y-98888090D01*
X192209038Y-98960335D01*
X191923528Y-99041148D01*
X191603799Y-99131400D01*
X191247543Y-99231758D01*
X191019242Y-99295992D01*
X191019242Y-99295991D01*
X190312844Y-99494710D01*
X190312830Y-99494714D01*
X189618360Y-99690163D01*
X189618346Y-99690167D01*
X188939403Y-99881331D01*
X188939388Y-99881335D01*
X188279576Y-100067200D01*
X188279560Y-100067205D01*
X187642477Y-100246755D01*
X187642460Y-100246760D01*
X187031710Y-100418981D01*
X187031692Y-100418986D01*
X186450874Y-100582863D01*
X186450852Y-100582869D01*
X185903567Y-100737387D01*
X185903543Y-100737394D01*
X185393394Y-100881538D01*
X185393389Y-100881539D01*
X185388764Y-100882846D01*
X185388752Y-100882850D01*
X184921924Y-101014822D01*
X184921922Y-101014822D01*
X184493979Y-101135809D01*
X184103053Y-101246322D01*
X184103053Y-101246323D01*
X183747311Y-101346860D01*
X183424867Y-101437936D01*
X183424867Y-101437935D01*
X183133826Y-101520065D01*
X182872462Y-101593720D01*
X182638700Y-101659466D01*
X182638700Y-101659467D01*
X182430993Y-101717724D01*
X182247225Y-101769070D01*
X182085637Y-101813984D01*
X181944085Y-101853051D01*
X181821629Y-101886526D01*
X181715204Y-101915246D01*
X181623942Y-101939451D01*
X181545609Y-101959750D01*
X181478478Y-101976621D01*
X181420590Y-101990600D01*
X181370195Y-102002175D01*
X181325211Y-102011910D01*
X181283824Y-102020305D01*
X181243647Y-102027967D01*
X181202760Y-102035401D01*
X181159471Y-102043075D01*
X181111824Y-102051510D01*
X181111571Y-102051555D01*
X181083369Y-102056607D01*
X180924768Y-102084100D01*
X180771292Y-102108195D01*
X180618551Y-102129226D01*
X180462796Y-102147406D01*
X180300314Y-102162935D01*
X180127317Y-102176003D01*
X179940052Y-102186791D01*
X179734847Y-102195471D01*
X179508193Y-102202203D01*
X179256551Y-102207162D01*
X178976151Y-102210525D01*
X178663439Y-102212468D01*
X178315000Y-102213169D01*
X177983348Y-102212915D01*
X177646252Y-102212567D01*
X177646000Y-102212567D01*
X177346299Y-102212853D01*
X177345924Y-102212854D01*
X177078684Y-102213897D01*
X177078161Y-102213900D01*
X176838449Y-102215823D01*
X176837759Y-102215830D01*
X176620638Y-102218752D01*
X176619772Y-102218767D01*
X176420309Y-102222812D01*
X176419289Y-102222837D01*
X176232550Y-102228125D01*
X176231426Y-102228162D01*
X176052475Y-102234816D01*
X176051329Y-102234863D01*
X175875233Y-102243004D01*
X175874159Y-102243059D01*
X175695982Y-102252809D01*
X175695063Y-102252862D01*
X175509872Y-102264343D01*
X175509160Y-102264390D01*
X175312019Y-102277724D01*
X175311714Y-102277744D01*
X175286176Y-102279533D01*
X175284628Y-102279651D01*
X174552127Y-102339970D01*
X174549178Y-102340248D01*
X173801087Y-102419458D01*
X173798256Y-102419790D01*
X173032838Y-102518248D01*
X173030141Y-102518624D01*
X172245664Y-102636684D01*
X172243109Y-102637095D01*
X171437839Y-102775116D01*
X171435434Y-102775552D01*
X170607637Y-102933890D01*
X170605385Y-102934342D01*
X169753326Y-103113352D01*
X169751227Y-103113812D01*
X168873172Y-103313852D01*
X168871225Y-103314312D01*
X167965442Y-103535738D01*
X167963642Y-103536192D01*
X167028395Y-103779360D01*
X167026738Y-103779803D01*
X166060294Y-104045070D01*
X166058773Y-104045497D01*
X165059398Y-104333219D01*
X165058337Y-104333530D01*
X164537937Y-104488272D01*
X164537463Y-104488414D01*
X164280795Y-104565824D01*
X164280512Y-104565909D01*
X164025037Y-104643608D01*
X164024735Y-104643701D01*
X163767696Y-104722575D01*
X163767384Y-104722671D01*
X163506021Y-104803607D01*
X163505711Y-104803703D01*
X163237266Y-104887586D01*
X163236965Y-104887681D01*
X162958680Y-104975398D01*
X162958397Y-104975487D01*
X162667513Y-105067923D01*
X162667252Y-105068006D01*
X162361012Y-105166048D01*
X162360779Y-105166123D01*
X162036423Y-105270656D01*
X162036216Y-105270723D01*
X161690986Y-105382634D01*
X161690808Y-105382692D01*
X161321947Y-105502867D01*
X161321795Y-105502917D01*
X160926543Y-105632241D01*
X160926415Y-105632283D01*
X160502014Y-105771643D01*
X160501908Y-105771678D01*
X160045600Y-105921959D01*
X160045513Y-105921987D01*
X159554539Y-106084076D01*
X159554470Y-106084099D01*
X159041564Y-106253754D01*
X158772837Y-106342485D01*
X158499500Y-106432316D01*
X158499500Y-106432315D01*
X158226085Y-106521778D01*
X157958407Y-106608991D01*
X157701026Y-106692476D01*
X157459814Y-106770332D01*
X157239190Y-106841128D01*
X157045247Y-106902894D01*
X156882548Y-106954151D01*
X156790301Y-106982791D01*
X155217867Y-107447875D01*
X153651367Y-107873131D01*
X152085567Y-108259718D01*
X150515889Y-108608605D01*
X148937768Y-108920753D01*
X147346576Y-109197139D01*
X145737566Y-109438752D01*
X144217624Y-109633507D01*
X143815176Y-109680058D01*
X143433065Y-109722366D01*
X143065620Y-109760897D01*
X142705209Y-109796331D01*
X142345530Y-109829211D01*
X141979544Y-109860146D01*
X141600621Y-109889713D01*
X141201850Y-109918511D01*
X140776202Y-109947144D01*
X140317123Y-109976184D01*
X140162451Y-109985633D01*
X140098924Y-109988283D01*
X139996060Y-109990978D01*
X139857315Y-109993674D01*
X139686485Y-109996337D01*
X139488233Y-109998932D01*
X139265384Y-110001447D01*
X139021755Y-110003861D01*
X138761348Y-110006148D01*
X138487539Y-110008294D01*
X138203922Y-110010275D01*
X137914087Y-110012075D01*
X137914087Y-110012076D01*
X137621946Y-110013671D01*
X137330738Y-110015045D01*
X137044373Y-110016176D01*
X136766497Y-110017045D01*
X136766497Y-110017044D01*
X136500389Y-110017631D01*
X136250046Y-110017916D01*
X136019133Y-110017879D01*
X135810791Y-110017500D01*
X135629397Y-110016761D01*
X135477820Y-110015642D01*
X135360946Y-110014136D01*
X135283667Y-110012294D01*
X134443778Y-109976942D01*
X133639350Y-109930020D01*
X132865317Y-109870958D01*
X132116138Y-109799157D01*
X131386579Y-109714042D01*
X130670980Y-109614989D01*
X129964108Y-109501422D01*
X129260073Y-109372655D01*
X128924901Y-109305942D01*
X128250669Y-109161484D01*
X127616878Y-109011400D01*
X127020874Y-108854721D01*
X126460500Y-108690598D01*
X125933424Y-108518143D01*
X125437358Y-108336485D01*
X124969961Y-108144740D01*
X124528940Y-107942042D01*
X124111848Y-107727447D01*
X123716373Y-107500070D01*
X123340089Y-107258945D01*
X122980110Y-107002746D01*
X122775155Y-106844652D01*
X122617643Y-106714382D01*
X122455845Y-106571121D01*
X122295380Y-106420503D01*
X122142410Y-106268699D01*
X122002923Y-106121784D01*
X121883181Y-105986230D01*
X121788930Y-105868146D01*
X121749383Y-105811783D01*
X121617342Y-105582700D01*
X121523678Y-105357978D01*
X121466592Y-105133507D01*
X121445173Y-104905335D01*
X121459350Y-104669119D01*
X121509872Y-104420935D01*
X121597804Y-104157699D01*
X121724831Y-103875263D01*
X121752743Y-103820741D01*
X121980090Y-103425788D01*
X122238459Y-103053104D01*
X122530326Y-102699328D01*
X122857180Y-102362983D01*
X123220574Y-102042636D01*
X123622099Y-101736911D01*
X124018973Y-101472194D01*
X124157199Y-101389378D01*
X124328164Y-101293460D01*
X124523213Y-101188951D01*
X124733916Y-101080151D01*
X124952305Y-100971088D01*
X125169998Y-100865980D01*
X125379143Y-100768776D01*
X125571786Y-100683466D01*
X125653642Y-100648925D01*
X126259773Y-100417611D01*
X126877156Y-100221025D01*
X127510919Y-100057740D01*
X128164863Y-99926861D01*
X128843680Y-99827382D01*
X129184896Y-99790050D01*
X129352034Y-99776585D01*
X129553793Y-99765082D01*
X129781635Y-99755725D01*
X130026906Y-99748675D01*
X130280645Y-99744085D01*
X130534577Y-99742084D01*
X130779821Y-99742802D01*
X131008119Y-99746361D01*
X131210662Y-99752870D01*
X131303593Y-99757489D01*
X131547436Y-99772572D01*
X131780833Y-99789459D01*
X132007815Y-99808738D01*
X132232868Y-99831034D01*
X132460361Y-99856966D01*
X132694712Y-99887163D01*
X132940193Y-99922244D01*
X133201249Y-99962852D01*
X133481988Y-100009581D01*
X133786976Y-100063096D01*
X134120523Y-100124026D01*
X134486316Y-100192878D01*
X134889517Y-100270432D01*
X134916607Y-100275689D01*
X134916763Y-100275719D01*
X135322369Y-100353902D01*
X135322792Y-100353983D01*
X135691010Y-100423668D01*
X135691574Y-100423774D01*
X136026356Y-100485564D01*
X136027087Y-100485696D01*
X136332387Y-100540200D01*
X136333309Y-100540361D01*
X136613081Y-100588182D01*
X136614209Y-100588370D01*
X136872407Y-100630116D01*
X136873742Y-100630324D01*
X137114319Y-100666599D01*
X137115839Y-100666819D01*
X137342748Y-100698231D01*
X137344409Y-100698450D01*
X137561604Y-100725603D01*
X137563329Y-100725807D01*
X137774765Y-100749307D01*
X137776461Y-100749484D01*
X137986089Y-100769937D01*
X137987659Y-100770080D01*
X138199435Y-100788093D01*
X138200531Y-100788182D01*
X138324782Y-100797667D01*
X138327417Y-100797840D01*
X138491775Y-100806954D01*
X138495126Y-100807096D01*
X138682970Y-100812543D01*
X138685430Y-100812590D01*
X138888298Y-100814540D01*
X138890354Y-100814543D01*
X139099784Y-100813166D01*
X139101724Y-100813139D01*
X139309254Y-100808604D01*
X139311321Y-100808542D01*
X139508491Y-100801020D01*
X139510999Y-100800899D01*
X139689346Y-100790560D01*
X139692874Y-100790306D01*
X139843937Y-100777319D01*
X139849012Y-100776780D01*
X139941504Y-100765069D01*
X139950004Y-100763699D01*
X140339498Y-100687275D01*
X140350622Y-100684566D01*
X140708533Y-100580122D01*
X140720749Y-100575871D01*
X141047429Y-100443178D01*
X141060400Y-100437034D01*
X141356197Y-100275863D01*
X141369354Y-100267613D01*
X141634622Y-100077735D01*
X141647228Y-100067428D01*
X141882316Y-99848614D01*
X141893622Y-99836630D01*
X142098881Y-99588652D01*
X142108321Y-99575655D01*
X142284102Y-99298282D01*
X142289143Y-99289585D01*
X142337799Y-99197407D01*
X142341569Y-99189635D01*
X142456543Y-98930543D01*
X142461237Y-98918294D01*
X142549287Y-98647450D01*
X142552631Y-98635072D01*
X142615281Y-98345841D01*
X142617203Y-98334506D01*
X142655975Y-98020251D01*
X142656733Y-98011795D01*
X142671053Y-97755853D01*
X142671222Y-97751451D01*
X142674610Y-97591711D01*
X142674639Y-97588874D01*
X142674460Y-97430855D01*
X142674417Y-97427700D01*
X142670250Y-97267361D01*
X142670125Y-97264135D01*
X142661549Y-97097434D01*
X142661355Y-97094372D01*
X142647948Y-96917268D01*
X142647712Y-96914541D01*
X142629052Y-96722994D01*
X142628806Y-96720692D01*
X142604472Y-96510659D01*
X142604242Y-96508797D01*
X142573811Y-96276239D01*
X142573613Y-96274790D01*
X142536665Y-96015663D01*
X142536505Y-96014569D01*
X142492617Y-95724834D01*
X142492493Y-95724036D01*
X142441244Y-95399651D01*
X142441165Y-95399157D01*
X142400163Y-95146112D01*
X142400161Y-95146097D01*
X142334985Y-94744151D01*
X142277289Y-94381312D01*
X142226564Y-94053445D01*
X142182484Y-93757548D01*
X142144769Y-93491000D01*
X142112931Y-93249721D01*
X142086687Y-93031145D01*
X142065631Y-92831792D01*
X142049385Y-92648437D01*
X142037568Y-92477844D01*
X142029794Y-92316562D01*
X142025687Y-92161269D01*
X142024885Y-92008653D01*
X142027044Y-91854610D01*
X142027476Y-91836340D01*
X142035082Y-91611762D01*
X142046683Y-91419723D01*
X142063578Y-91248248D01*
X142087143Y-91085114D01*
X142118945Y-90917839D01*
X142160783Y-90733666D01*
X142163456Y-90722629D01*
X142282907Y-90318226D01*
X142440567Y-89927274D01*
X142636346Y-89549314D01*
X142778867Y-89319237D01*
X142860943Y-89197141D01*
X142937171Y-89088983D01*
X143012902Y-88988127D01*
X143094771Y-88886177D01*
X143189295Y-88775047D01*
X143302880Y-88646848D01*
X143417222Y-88520726D01*
X143417499Y-88520419D01*
X143515400Y-88411723D01*
X143516322Y-88410689D01*
X143617316Y-88296069D01*
X143618166Y-88295094D01*
X143713394Y-88184773D01*
X143714437Y-88183549D01*
X143795036Y-88087749D01*
X143796359Y-88086150D01*
X143834429Y-88039369D01*
X143838185Y-88034519D01*
X144160939Y-87596274D01*
X144166452Y-87588148D01*
X144453472Y-87127737D01*
X144458333Y-87119225D01*
X144708788Y-86638436D01*
X144712966Y-86629600D01*
X144926028Y-86130218D01*
X144929503Y-86121123D01*
X145104342Y-85604936D01*
X145107099Y-85595646D01*
X145242887Y-85064440D01*
X145244178Y-85058866D01*
X145265126Y-84958221D01*
X145265528Y-84956208D01*
X145301653Y-84767400D01*
X145302162Y-84764567D01*
X145332133Y-84586096D01*
X145332645Y-84582780D01*
X145357849Y-84403873D01*
X145358262Y-84400641D01*
X145380088Y-84210526D01*
X145380365Y-84207868D01*
X145400202Y-83995774D01*
X145400357Y-83993975D01*
X145417400Y-83778808D01*
X145446965Y-83442534D01*
X145483849Y-83142253D01*
X145530054Y-82868522D01*
X145587536Y-82612677D01*
X145658404Y-82365756D01*
X145744933Y-82118767D01*
X145849596Y-81862648D01*
X145941858Y-81658468D01*
X145942431Y-81657182D01*
X146110002Y-81275111D01*
X146112637Y-81268622D01*
X146249416Y-80903212D01*
X146251958Y-80895717D01*
X146360945Y-80538129D01*
X146363100Y-80530132D01*
X146447296Y-80171529D01*
X146448179Y-80167472D01*
X146449063Y-80163064D01*
X146449209Y-80162322D01*
X146481063Y-79998425D01*
X146481488Y-79996126D01*
X146506621Y-79852773D01*
X146507202Y-79849155D01*
X146526382Y-79717531D01*
X146526965Y-79712945D01*
X146540959Y-79584237D01*
X146541383Y-79579520D01*
X146550957Y-79444912D01*
X146551177Y-79440936D01*
X146557100Y-79291615D01*
X146557180Y-79288814D01*
X146560219Y-79115967D01*
X146560238Y-79114304D01*
X146561159Y-78909115D01*
X146561160Y-78908562D01*
X146561164Y-78878692D01*
X146561163Y-78878162D01*
X146560458Y-78703742D01*
X146560444Y-78702310D01*
X146557981Y-78541541D01*
X146557930Y-78539387D01*
X146553055Y-78388420D01*
X146552931Y-78385577D01*
X146544992Y-78240564D01*
X146544762Y-78237183D01*
X146533108Y-78094278D01*
X146532756Y-78090619D01*
X146516734Y-77945974D01*
X146516278Y-77942339D01*
X146495235Y-77792106D01*
X146494722Y-77788765D01*
X146468007Y-77629096D01*
X146467492Y-77626224D01*
X146434453Y-77453273D01*
X146433985Y-77450940D01*
X146393968Y-77260858D01*
X146393575Y-77259056D01*
X146345930Y-77047996D01*
X146345621Y-77046662D01*
X146289694Y-76810777D01*
X146289467Y-76809836D01*
X146224607Y-76545278D01*
X146224451Y-76544647D01*
X146150005Y-76247568D01*
X146149906Y-76247178D01*
X146065222Y-75913731D01*
X146065186Y-75913587D01*
X146049516Y-75852187D01*
X145938276Y-75414396D01*
X145838182Y-75015402D01*
X145748573Y-74651840D01*
X145669073Y-74321506D01*
X145599319Y-74022248D01*
X145538720Y-73750982D01*
X145486913Y-73505622D01*
X145443405Y-73283519D01*
X145407725Y-73082155D01*
X145379398Y-72899059D01*
X145357941Y-72731744D01*
X145342834Y-72577514D01*
X145333580Y-72433808D01*
X145329673Y-72297787D01*
X145330645Y-72166689D01*
X145336067Y-72037550D01*
X145343035Y-71937963D01*
X145395912Y-71526325D01*
X145485949Y-71133535D01*
X145613667Y-70756386D01*
X145779471Y-70393768D01*
X145983888Y-70044648D01*
X146227717Y-69707858D01*
X146477712Y-69418653D01*
X146532777Y-69362596D01*
X146614253Y-69283826D01*
X146712949Y-69191179D01*
X146820760Y-69092294D01*
X146929890Y-68994492D01*
X146931190Y-68993343D01*
X146933268Y-68991464D01*
X147279630Y-68671223D01*
X147284264Y-68666715D01*
X147594117Y-68349498D01*
X147599169Y-68344013D01*
X147877319Y-68023614D01*
X147882438Y-68017322D01*
X148133691Y-67687536D01*
X148138493Y-67680787D01*
X148367656Y-67335408D01*
X148371832Y-67328667D01*
X148583710Y-66961489D01*
X148586729Y-66955942D01*
X148738447Y-66659936D01*
X148740291Y-66656187D01*
X148855816Y-66411266D01*
X148857441Y-66407680D01*
X148960946Y-66169364D01*
X148962657Y-66165226D01*
X149056507Y-65926434D01*
X149058127Y-65922079D01*
X149144686Y-65675728D01*
X149146076Y-65671540D01*
X149227709Y-65410549D01*
X149228806Y-65406844D01*
X149307877Y-65124131D01*
X149308686Y-65121095D01*
X149387558Y-64809577D01*
X149388095Y-64807374D01*
X149459011Y-64504660D01*
X149621667Y-63854573D01*
X149816840Y-63190256D01*
X150042477Y-62517452D01*
X150296053Y-61843671D01*
X150575392Y-61175546D01*
X150623883Y-61066168D01*
X150718474Y-60859318D01*
X150803777Y-60683928D01*
X150885158Y-60529789D01*
X150968094Y-60386575D01*
X151058544Y-60243370D01*
X151101070Y-60179427D01*
X151312490Y-59895472D01*
X151536401Y-59651993D01*
X151776279Y-59444658D01*
X152034615Y-59270959D01*
X152317307Y-59127053D01*
X152319507Y-59126095D01*
X152405048Y-59091609D01*
X152500970Y-59058419D01*
X152615228Y-59024221D01*
X152753952Y-58987448D01*
X152923058Y-58946552D01*
X153128206Y-58900000D01*
X153150406Y-58895088D01*
X153161569Y-58892079D01*
X153369815Y-58825638D01*
X153392032Y-58816137D01*
X153582009Y-58712502D01*
X153601698Y-58699233D01*
X153774382Y-58557691D01*
X153789786Y-58542716D01*
X153946154Y-58362557D01*
X153954131Y-58352359D01*
X154009194Y-58274048D01*
X154012335Y-58269363D01*
X154071668Y-58176471D01*
X154074676Y-58171516D01*
X154128676Y-58077805D01*
X154131736Y-58072172D01*
X154183374Y-57971088D01*
X154185904Y-57965840D01*
X154238151Y-57850828D01*
X154239946Y-57846683D01*
X154295774Y-57711189D01*
X154296919Y-57708312D01*
X154359298Y-57545779D01*
X154359969Y-57543988D01*
X154431870Y-57347864D01*
X154432094Y-57347251D01*
X154435226Y-57338570D01*
X154435414Y-57338044D01*
X154498245Y-57161465D01*
X154498642Y-57160333D01*
X154559320Y-56984567D01*
X154559744Y-56983319D01*
X154619276Y-56804889D01*
X154619698Y-56803599D01*
X154679093Y-56619033D01*
X154679491Y-56617773D01*
X154739758Y-56423595D01*
X154740115Y-56422426D01*
X154802262Y-56215163D01*
X154802569Y-56214123D01*
X154867605Y-55990299D01*
X154867860Y-55989409D01*
X154936793Y-55745551D01*
X154936999Y-55744813D01*
X155010837Y-55477447D01*
X155011000Y-55476852D01*
X155090753Y-55182502D01*
X155090879Y-55182033D01*
X155177554Y-54857225D01*
X155177650Y-54856866D01*
X155272256Y-54498127D01*
X155272326Y-54497859D01*
X155375872Y-54101714D01*
X155375902Y-54101599D01*
X155383662Y-54071798D01*
X155516944Y-53563397D01*
X155641547Y-53095584D01*
X155758159Y-52665956D01*
X155867159Y-52273256D01*
X155969126Y-51915520D01*
X156064290Y-51591995D01*
X156153244Y-51300653D01*
X156236386Y-51040130D01*
X156314134Y-50808962D01*
X156386894Y-50605685D01*
X156455082Y-50428771D01*
X156507423Y-50303406D01*
X156683108Y-49947959D01*
X156887305Y-49622187D01*
X157119963Y-49324998D01*
X157380161Y-49057205D01*
X157667108Y-48819586D01*
X157981108Y-48612316D01*
X158185510Y-48501476D01*
X158349400Y-48425639D01*
X158553100Y-48342157D01*
X158792362Y-48252603D01*
X159063154Y-48158318D01*
X159361387Y-48060607D01*
X159683404Y-47960596D01*
X160025590Y-47859395D01*
X160383960Y-47758218D01*
X160754906Y-47658159D01*
X161135031Y-47560259D01*
X161520264Y-47465733D01*
X161892877Y-47378871D01*
X162214490Y-47308028D01*
X162571943Y-47233183D01*
X162959052Y-47155514D01*
X163369624Y-47076205D01*
X163797117Y-46996506D01*
X164235300Y-46917601D01*
X164677932Y-46840681D01*
X165039515Y-46779974D01*
X165226669Y-46748778D01*
X165226979Y-46748726D01*
X165425916Y-46715060D01*
X165426184Y-46715014D01*
X165625970Y-46680764D01*
X165626245Y-46680716D01*
X165815944Y-46647766D01*
X165816279Y-46647708D01*
X165984954Y-46617944D01*
X165985422Y-46617860D01*
X166108845Y-46595604D01*
X166399608Y-46548927D01*
X166654819Y-46522318D01*
X166881033Y-46515321D01*
X167083874Y-46527557D01*
G04 #@! TA.AperFunction,NonConductor*
D11*
G36*
X167083874Y-46527557D02*
G01*
X167269543Y-46558727D01*
X167446661Y-46609503D01*
X167518588Y-46636412D01*
X167611900Y-46675533D01*
X167692792Y-46714284D01*
X167766898Y-46756420D01*
X167841140Y-46806668D01*
X167921987Y-46870076D01*
X168014950Y-46951311D01*
X168125011Y-47054532D01*
X168256914Y-47183485D01*
X168344345Y-47270543D01*
X168346325Y-47272473D01*
X168609683Y-47523528D01*
X168615079Y-47528385D01*
X168872758Y-47747333D01*
X168879387Y-47752596D01*
X169141331Y-47946672D01*
X169148557Y-47951648D01*
X169424711Y-48128091D01*
X169431637Y-48132213D01*
X169731945Y-48298259D01*
X169735771Y-48300290D01*
X169814720Y-48340490D01*
X169818128Y-48342162D01*
X170117125Y-48483321D01*
X170122644Y-48485768D01*
X170435300Y-48615583D01*
X170440720Y-48617689D01*
X170772205Y-48737847D01*
X170777264Y-48739561D01*
X171132750Y-48851745D01*
X171137262Y-48853078D01*
X171521918Y-48958974D01*
X171525785Y-48959973D01*
X171944782Y-49061265D01*
X171947303Y-49061847D01*
X172187980Y-49114865D01*
X172188078Y-49114887D01*
X172857340Y-49261758D01*
X173486941Y-49408132D01*
X174081073Y-49555190D01*
X174643286Y-49703973D01*
X175177088Y-49855508D01*
X175686008Y-50010824D01*
X176173675Y-50170986D01*
X176643611Y-50337025D01*
X177099439Y-50510012D01*
X177545374Y-50691268D01*
X177615587Y-50720918D01*
X177759604Y-50783786D01*
X177928778Y-50860520D01*
X178116368Y-50947837D01*
X178315363Y-51042331D01*
X178518145Y-51140298D01*
X178718076Y-51238500D01*
X178907813Y-51333358D01*
X179080109Y-51421330D01*
X179227843Y-51498929D01*
X179344120Y-51562767D01*
X179349357Y-51565752D01*
X179502364Y-51656401D01*
X179670366Y-51761384D01*
X179844103Y-51874512D01*
X180013473Y-51989054D01*
X180168412Y-52098264D01*
X180299228Y-52195620D01*
X180337132Y-52225395D01*
X180451766Y-52322376D01*
X180579732Y-52439447D01*
X180712685Y-52568315D01*
X180841590Y-52699961D01*
X180957429Y-52825258D01*
X181051721Y-52935525D01*
X181080139Y-52971758D01*
X181210626Y-53165032D01*
X181298787Y-53341750D01*
X181347444Y-53502245D01*
X181359634Y-53646651D01*
X181338345Y-53778164D01*
X181283579Y-53902203D01*
X181189900Y-54025141D01*
X181140085Y-54073725D01*
X181040407Y-54149318D01*
X180901641Y-54231673D01*
X180727295Y-54318236D01*
X180523285Y-54405810D01*
X180294919Y-54491913D01*
X180047265Y-54574322D01*
X179784371Y-54651204D01*
X179718964Y-54668745D01*
X179429656Y-54740271D01*
X179138616Y-54802475D01*
X178839163Y-54856361D01*
X178525199Y-54902761D01*
X178190569Y-54942484D01*
X177829511Y-54976284D01*
X177435772Y-55004961D01*
X177119567Y-55023345D01*
X177063176Y-55025731D01*
X176967163Y-55029054D01*
X176836419Y-55033158D01*
X176836419Y-55033157D01*
X176674050Y-55037958D01*
X176484550Y-55043329D01*
X176271576Y-55049168D01*
X176038619Y-55055379D01*
X175789767Y-55061848D01*
X175528665Y-55068474D01*
X175258945Y-55075156D01*
X175186119Y-55076933D01*
X175186097Y-55076933D01*
X174629516Y-55090611D01*
X174629441Y-55090613D01*
X174110249Y-55103677D01*
X174110163Y-55103679D01*
X173628777Y-55116118D01*
X173628678Y-55116121D01*
X173185512Y-55127920D01*
X173185393Y-55127923D01*
X172780865Y-55139072D01*
X172780722Y-55139076D01*
X172415247Y-55149561D01*
X172415069Y-55149566D01*
X172089064Y-55159375D01*
X172088838Y-55159382D01*
X171802718Y-55168503D01*
X171802416Y-55168513D01*
X171556599Y-55176933D01*
X171556179Y-55176949D01*
X171351079Y-55184655D01*
X171350445Y-55184680D01*
X171186480Y-55191660D01*
X171185415Y-55191710D01*
X171063000Y-55197952D01*
X171061035Y-55198067D01*
X170988985Y-55202861D01*
X170982218Y-55203494D01*
X170790349Y-55226622D01*
X170775838Y-55229233D01*
X170621720Y-55266316D01*
X170599476Y-55273905D01*
X170480117Y-55327416D01*
X170451154Y-55345418D01*
X170363558Y-55417830D01*
X170346016Y-55435497D01*
X170336888Y-55448231D01*
X170278062Y-55542015D01*
X170263384Y-55575145D01*
X170230333Y-55692774D01*
X170225923Y-55718055D01*
X170215653Y-55861435D01*
X170215367Y-55873639D01*
X170217223Y-55948906D01*
X170217581Y-55955814D01*
X170223819Y-56034482D01*
X170224530Y-56041182D01*
X170236233Y-56129197D01*
X170237062Y-56134552D01*
X170255313Y-56237862D01*
X170256032Y-56241605D01*
X170281912Y-56366155D01*
X170282433Y-56368546D01*
X170317025Y-56520284D01*
X170317357Y-56521705D01*
X170361743Y-56706578D01*
X170361881Y-56707146D01*
X170376861Y-56768297D01*
X170412767Y-56916236D01*
X170447560Y-57062970D01*
X170479116Y-57199279D01*
X170505191Y-57315417D01*
X170523658Y-57402109D01*
X170526425Y-57416039D01*
X170547495Y-57560812D01*
X170559243Y-57721543D01*
X170561657Y-57886873D01*
X170554751Y-58042418D01*
X170538917Y-58174733D01*
X170527224Y-58230200D01*
X170474201Y-58399521D01*
X170405391Y-58555232D01*
X170317831Y-58701549D01*
X170207869Y-58842665D01*
X170071555Y-58982150D01*
X169905126Y-59122893D01*
X169705302Y-59267344D01*
X169469137Y-59417885D01*
X169193269Y-59577322D01*
X169148367Y-59602115D01*
X168927481Y-59723765D01*
X168927051Y-59724003D01*
X168739720Y-59828121D01*
X168738961Y-59828547D01*
X168581393Y-59917541D01*
X168580160Y-59918246D01*
X168448566Y-59994523D01*
X168446682Y-59995637D01*
X168337269Y-60061602D01*
X168334542Y-60063293D01*
X168243522Y-60121354D01*
X168239850Y-60123787D01*
X168163432Y-60176349D01*
X168158942Y-60179584D01*
X168093334Y-60229055D01*
X168088529Y-60232863D01*
X168029942Y-60281648D01*
X168025611Y-60285424D01*
X167970254Y-60335930D01*
X167967267Y-60338745D01*
X167919676Y-60385071D01*
X167913273Y-60391777D01*
X167790916Y-60529650D01*
X167778232Y-60546600D01*
X167693500Y-60682065D01*
X167681677Y-60706401D01*
X167631055Y-60847039D01*
X167624619Y-60873611D01*
X167604594Y-61027003D01*
X167603549Y-61040982D01*
X167602905Y-61074215D01*
X167602940Y-61080552D01*
X167605649Y-61169271D01*
X167606449Y-61180139D01*
X167616478Y-61265942D01*
X167618551Y-61278331D01*
X167637936Y-61366970D01*
X167640925Y-61378163D01*
X167671702Y-61475392D01*
X167674709Y-61483843D01*
X167718911Y-61595415D01*
X167721305Y-61601056D01*
X167780969Y-61732724D01*
X167782596Y-61736175D01*
X167859757Y-61893693D01*
X167860684Y-61895548D01*
X167943257Y-62057370D01*
X167943431Y-62057708D01*
X168063128Y-62290559D01*
X168178081Y-62516618D01*
X168289649Y-62738843D01*
X168399037Y-62959895D01*
X168507195Y-63181918D01*
X168615559Y-63408049D01*
X168725009Y-63640276D01*
X168837044Y-63881896D01*
X168952535Y-64134861D01*
X169072794Y-64402078D01*
X169198947Y-64686050D01*
X169332249Y-64989566D01*
X169473480Y-65314334D01*
X169624375Y-65664255D01*
X169785521Y-66040575D01*
X169958535Y-66446936D01*
X170144194Y-66885016D01*
X170343904Y-67357967D01*
X170509859Y-67751973D01*
X170509972Y-67752238D01*
X170646207Y-68073642D01*
X170646535Y-68074409D01*
X170769849Y-68360096D01*
X170770295Y-68361118D01*
X170882553Y-68615038D01*
X170883148Y-68616364D01*
X170986216Y-68842465D01*
X170986990Y-68844131D01*
X171082735Y-69046364D01*
X171083713Y-69048382D01*
X171174002Y-69230696D01*
X171175188Y-69233031D01*
X171261885Y-69399376D01*
X171263256Y-69401935D01*
X171348228Y-69556259D01*
X171349644Y-69558762D01*
X171426653Y-69691423D01*
X171428512Y-69694524D01*
X171616468Y-69998066D01*
X171619303Y-70002441D01*
X171810152Y-70284129D01*
X171813483Y-70288813D01*
X172015411Y-70559605D01*
X172018854Y-70564017D01*
X172240047Y-70834873D01*
X172243173Y-70838554D01*
X172491818Y-71120432D01*
X172493212Y-71121987D01*
X172502612Y-71132297D01*
X172629358Y-71273051D01*
X172729915Y-71389618D01*
X172809576Y-71488775D01*
X172873818Y-71577413D01*
X172928638Y-71663260D01*
X172980337Y-71755146D01*
X172995094Y-71783276D01*
X173077814Y-71958463D01*
X173133882Y-72115847D01*
X173169669Y-72274800D01*
X173189784Y-72455552D01*
X173194332Y-72544946D01*
X173195977Y-72731413D01*
X173184856Y-72890072D01*
X173158922Y-73039418D01*
X173114842Y-73198805D01*
X173065761Y-73340274D01*
X172979799Y-73576571D01*
X172979145Y-73578413D01*
X172908055Y-73783606D01*
X172907062Y-73786591D01*
X172849624Y-73966681D01*
X172848322Y-73971029D01*
X172802997Y-74132907D01*
X172801548Y-74138584D01*
X172766793Y-74289143D01*
X172765462Y-74295688D01*
X172739736Y-74441817D01*
X172738759Y-74448366D01*
X172720522Y-74596957D01*
X172719959Y-74602576D01*
X172707669Y-74760521D01*
X172707416Y-74764631D01*
X172699532Y-74938820D01*
X172699463Y-74940622D01*
X172697893Y-74991207D01*
X172697848Y-74993150D01*
X172694556Y-75202517D01*
X172694560Y-75206763D01*
X172697993Y-75400575D01*
X172698206Y-75406011D01*
X172709447Y-75591427D01*
X172709966Y-75597542D01*
X172730098Y-75781721D01*
X172730909Y-75787786D01*
X172761014Y-75977887D01*
X172761979Y-75983238D01*
X172803140Y-76186419D01*
X172804078Y-76190672D01*
X172857375Y-76414094D01*
X172858153Y-76417180D01*
X172924671Y-76667999D01*
X172925164Y-76669807D01*
X172980123Y-76865347D01*
X172980912Y-76868038D01*
X173306501Y-77935403D01*
X173307838Y-77939532D01*
X173675455Y-79011935D01*
X173676882Y-79015886D01*
X174086524Y-80093321D01*
X174088028Y-80097092D01*
X174539690Y-81179552D01*
X174541254Y-81183145D01*
X175034934Y-82270622D01*
X175036547Y-82274037D01*
X175572240Y-83366525D01*
X175573888Y-83369768D01*
X176151591Y-84467260D01*
X176153263Y-84470334D01*
X176772972Y-85572822D01*
X176774659Y-85575732D01*
X177436372Y-86683210D01*
X177438065Y-86685963D01*
X178141776Y-87798423D01*
X178143467Y-87801026D01*
X178889174Y-88918463D01*
X178890857Y-88920922D01*
X179678555Y-90043327D01*
X179679763Y-90045018D01*
X180042976Y-90544968D01*
X180181471Y-90742245D01*
X180300759Y-90932064D01*
X180404926Y-91122597D01*
X180497288Y-91321199D01*
X180580996Y-91535352D01*
X180658936Y-91772306D01*
X180733847Y-92039062D01*
X180808559Y-92342918D01*
X180812240Y-92358788D01*
X180812677Y-92360609D01*
X180868588Y-92586472D01*
X180869650Y-92590479D01*
X180928179Y-92797676D01*
X180929590Y-92802331D01*
X180988858Y-92985081D01*
X180990990Y-92991128D01*
X181049116Y-93143652D01*
X181052982Y-93152722D01*
X181108085Y-93269237D01*
X181111715Y-93276329D01*
X181114007Y-93280480D01*
X181118351Y-93287762D01*
X181245551Y-93485654D01*
X181257167Y-93501023D01*
X181396848Y-93659285D01*
X181413912Y-93675351D01*
X181567416Y-93795195D01*
X181589695Y-93809138D01*
X181758362Y-93891773D01*
X181774024Y-93898190D01*
X181821107Y-93913907D01*
X181833957Y-93917459D01*
X181950570Y-93943188D01*
X181967888Y-93945773D01*
X182100655Y-93956307D01*
X182115067Y-93956630D01*
X182265811Y-93951443D01*
X182277280Y-93950527D01*
X182447821Y-93929094D01*
X182456750Y-93927647D01*
X182648910Y-93889442D01*
X182655806Y-93887870D01*
X182871408Y-93832368D01*
X182876733Y-93830873D01*
X183117597Y-93757548D01*
X183121722Y-93756215D01*
X183389671Y-93664542D01*
X183392881Y-93663395D01*
X183689736Y-93552847D01*
X183692244Y-93551883D01*
X184019827Y-93421936D01*
X184021794Y-93421137D01*
X184381927Y-93271264D01*
X184383471Y-93270609D01*
X184777975Y-93100285D01*
X184778782Y-93099933D01*
X184892364Y-93049958D01*
X185151614Y-92936054D01*
X185379658Y-92837235D01*
X185583450Y-92750640D01*
X185769962Y-92673392D01*
X185946825Y-92602340D01*
X186121182Y-92534543D01*
X186300401Y-92466977D01*
X186374776Y-92439461D01*
X187217013Y-92151611D01*
X188074638Y-91902293D01*
X188946789Y-91691564D01*
X189831200Y-91519954D01*
X190726330Y-91387875D01*
X191184260Y-91336135D01*
X191398453Y-91314849D01*
X191590659Y-91296911D01*
X191766685Y-91282095D01*
X191933106Y-91270096D01*
X192096637Y-91260609D01*
X192263776Y-91253343D01*
X192441463Y-91248001D01*
X192635980Y-91244314D01*
X192854245Y-91242001D01*
X193102060Y-91240788D01*
X193371568Y-91240397D01*
X193615183Y-91240371D01*
X193820906Y-91240585D01*
X193992096Y-91241185D01*
X194133511Y-91242322D01*
X194248654Y-91244135D01*
X194341819Y-91246755D01*
X194416887Y-91250288D01*
X194477937Y-91254811D01*
X194529595Y-91260429D01*
X194576824Y-91267347D01*
X194624820Y-91275935D01*
X194670845Y-91285049D01*
X195038379Y-91380301D01*
X195388114Y-91512597D01*
X195721957Y-91682059D01*
X196038805Y-91888109D01*
X196338158Y-92130775D01*
X196539199Y-92325114D01*
X196803400Y-92627455D01*
X197030662Y-92946950D01*
X197221036Y-93283040D01*
X197374001Y-93634582D01*
X197489643Y-94002532D01*
X197522912Y-94143825D01*
X197545313Y-94276436D01*
X197562936Y-94437771D01*
X197575024Y-94615459D01*
X197580897Y-94795887D01*
X197580048Y-94965441D01*
X197572135Y-95111396D01*
X197565302Y-95172163D01*
X197511609Y-95456138D01*
X197432663Y-95723493D01*
X197326456Y-95978641D01*
X197190809Y-96225171D01*
X197023278Y-96466464D01*
X196821367Y-96705538D01*
X196582681Y-96945118D01*
X196304927Y-97187812D01*
X196015767Y-97413935D01*
X195682063Y-97642597D01*
X195309219Y-97859667D01*
X194897308Y-98065062D01*
X194447549Y-98257997D01*
X193960333Y-98438054D01*
X193765900Y-98502836D01*
X193677624Y-98531085D01*
X193581193Y-98561262D01*
X193473889Y-98594148D01*
X193353806Y-98630279D01*
X193217942Y-98670528D01*
X193063083Y-98715825D01*
X192887877Y-98766555D01*
X192887877Y-98766554D01*
X192688521Y-98823815D01*
X192688521Y-98823816D01*
X192463350Y-98888090D01*
X192209038Y-98960335D01*
X191923528Y-99041148D01*
X191603799Y-99131400D01*
X191247543Y-99231758D01*
X191019242Y-99295992D01*
X191019242Y-99295991D01*
X190312844Y-99494710D01*
X190312830Y-99494714D01*
X189618360Y-99690163D01*
X189618346Y-99690167D01*
X188939403Y-99881331D01*
X188939388Y-99881335D01*
X188279576Y-100067200D01*
X188279560Y-100067205D01*
X187642477Y-100246755D01*
X187642460Y-100246760D01*
X187031710Y-100418981D01*
X187031692Y-100418986D01*
X186450874Y-100582863D01*
X186450852Y-100582869D01*
X185903567Y-100737387D01*
X185903543Y-100737394D01*
X185393394Y-100881538D01*
X185393389Y-100881539D01*
X185388764Y-100882846D01*
X185388752Y-100882850D01*
X184921924Y-101014822D01*
X184921922Y-101014822D01*
X184493979Y-101135809D01*
X184103053Y-101246322D01*
X184103053Y-101246323D01*
X183747311Y-101346860D01*
X183424867Y-101437936D01*
X183424867Y-101437935D01*
X183133826Y-101520065D01*
X182872462Y-101593720D01*
X182638700Y-101659466D01*
X182638700Y-101659467D01*
X182430993Y-101717724D01*
X182247225Y-101769070D01*
X182085637Y-101813984D01*
X181944085Y-101853051D01*
X181821629Y-101886526D01*
X181715204Y-101915246D01*
X181623942Y-101939451D01*
X181545609Y-101959750D01*
X181478478Y-101976621D01*
X181420590Y-101990600D01*
X181370195Y-102002175D01*
X181325211Y-102011910D01*
X181283824Y-102020305D01*
X181243647Y-102027967D01*
X181202760Y-102035401D01*
X181159471Y-102043075D01*
X181111824Y-102051510D01*
X181111571Y-102051555D01*
X181083369Y-102056607D01*
X180924768Y-102084100D01*
X180771292Y-102108195D01*
X180618551Y-102129226D01*
X180462796Y-102147406D01*
X180300314Y-102162935D01*
X180127317Y-102176003D01*
X179940052Y-102186791D01*
X179734847Y-102195471D01*
X179508193Y-102202203D01*
X179256551Y-102207162D01*
X178976151Y-102210525D01*
X178663439Y-102212468D01*
X178315000Y-102213169D01*
X177983348Y-102212915D01*
X177646252Y-102212567D01*
X177646000Y-102212567D01*
X177346299Y-102212853D01*
X177345924Y-102212854D01*
X177078684Y-102213897D01*
X177078161Y-102213900D01*
X176838449Y-102215823D01*
X176837759Y-102215830D01*
X176620638Y-102218752D01*
X176619772Y-102218767D01*
X176420309Y-102222812D01*
X176419289Y-102222837D01*
X176232550Y-102228125D01*
X176231426Y-102228162D01*
X176052475Y-102234816D01*
X176051329Y-102234863D01*
X175875233Y-102243004D01*
X175874159Y-102243059D01*
X175695982Y-102252809D01*
X175695063Y-102252862D01*
X175509872Y-102264343D01*
X175509160Y-102264390D01*
X175312019Y-102277724D01*
X175311714Y-102277744D01*
X175286176Y-102279533D01*
X175284628Y-102279651D01*
X174552127Y-102339970D01*
X174549178Y-102340248D01*
X173801087Y-102419458D01*
X173798256Y-102419790D01*
X173032838Y-102518248D01*
X173030141Y-102518624D01*
X172245664Y-102636684D01*
X172243109Y-102637095D01*
X171437839Y-102775116D01*
X171435434Y-102775552D01*
X170607637Y-102933890D01*
X170605385Y-102934342D01*
X169753326Y-103113352D01*
X169751227Y-103113812D01*
X168873172Y-103313852D01*
X168871225Y-103314312D01*
X167965442Y-103535738D01*
X167963642Y-103536192D01*
X167028395Y-103779360D01*
X167026738Y-103779803D01*
X166060294Y-104045070D01*
X166058773Y-104045497D01*
X165059398Y-104333219D01*
X165058337Y-104333530D01*
X164537937Y-104488272D01*
X164537463Y-104488414D01*
X164280795Y-104565824D01*
X164280512Y-104565909D01*
X164025037Y-104643608D01*
X164024735Y-104643701D01*
X163767696Y-104722575D01*
X163767384Y-104722671D01*
X163506021Y-104803607D01*
X163505711Y-104803703D01*
X163237266Y-104887586D01*
X163236965Y-104887681D01*
X162958680Y-104975398D01*
X162958397Y-104975487D01*
X162667513Y-105067923D01*
X162667252Y-105068006D01*
X162361012Y-105166048D01*
X162360779Y-105166123D01*
X162036423Y-105270656D01*
X162036216Y-105270723D01*
X161690986Y-105382634D01*
X161690808Y-105382692D01*
X161321947Y-105502867D01*
X161321795Y-105502917D01*
X160926543Y-105632241D01*
X160926415Y-105632283D01*
X160502014Y-105771643D01*
X160501908Y-105771678D01*
X160045600Y-105921959D01*
X160045513Y-105921987D01*
X159554539Y-106084076D01*
X159554470Y-106084099D01*
X159041564Y-106253754D01*
X158772837Y-106342485D01*
X158499500Y-106432316D01*
X158499500Y-106432315D01*
X158226085Y-106521778D01*
X157958407Y-106608991D01*
X157701026Y-106692476D01*
X157459814Y-106770332D01*
X157239190Y-106841128D01*
X157045247Y-106902894D01*
X156882548Y-106954151D01*
X156790301Y-106982791D01*
X155217867Y-107447875D01*
X153651367Y-107873131D01*
X152085567Y-108259718D01*
X150515889Y-108608605D01*
X148937768Y-108920753D01*
X147346576Y-109197139D01*
X145737566Y-109438752D01*
X144217624Y-109633507D01*
X143815176Y-109680058D01*
X143433065Y-109722366D01*
X143065620Y-109760897D01*
X142705209Y-109796331D01*
X142345530Y-109829211D01*
X141979544Y-109860146D01*
X141600621Y-109889713D01*
X141201850Y-109918511D01*
X140776202Y-109947144D01*
X140317123Y-109976184D01*
X140162451Y-109985633D01*
X140098924Y-109988283D01*
X139996060Y-109990978D01*
X139857315Y-109993674D01*
X139686485Y-109996337D01*
X139488233Y-109998932D01*
X139265384Y-110001447D01*
X139021755Y-110003861D01*
X138761348Y-110006148D01*
X138487539Y-110008294D01*
X138203922Y-110010275D01*
X137914087Y-110012075D01*
X137914087Y-110012076D01*
X137621946Y-110013671D01*
X137330738Y-110015045D01*
X137044373Y-110016176D01*
X136766497Y-110017045D01*
X136766497Y-110017044D01*
X136500389Y-110017631D01*
X136250046Y-110017916D01*
X136019133Y-110017879D01*
X135810791Y-110017500D01*
X135629397Y-110016761D01*
X135477820Y-110015642D01*
X135360946Y-110014136D01*
X135283667Y-110012294D01*
X134443778Y-109976942D01*
X133639350Y-109930020D01*
X132865317Y-109870958D01*
X132116138Y-109799157D01*
X131386579Y-109714042D01*
X130670980Y-109614989D01*
X129964108Y-109501422D01*
X129260073Y-109372655D01*
X128924901Y-109305942D01*
X128250669Y-109161484D01*
X127616878Y-109011400D01*
X127020874Y-108854721D01*
X126460500Y-108690598D01*
X125933424Y-108518143D01*
X125437358Y-108336485D01*
X124969961Y-108144740D01*
X124528940Y-107942042D01*
X124111848Y-107727447D01*
X123716373Y-107500070D01*
X123340089Y-107258945D01*
X122980110Y-107002746D01*
X122775155Y-106844652D01*
X122617643Y-106714382D01*
X122455845Y-106571121D01*
X122295380Y-106420503D01*
X122142410Y-106268699D01*
X122002923Y-106121784D01*
X121883181Y-105986230D01*
X121788930Y-105868146D01*
X121749383Y-105811783D01*
X121617342Y-105582700D01*
X121523678Y-105357978D01*
X121466592Y-105133507D01*
X121445173Y-104905335D01*
X121459350Y-104669119D01*
X121509872Y-104420935D01*
X121597804Y-104157699D01*
X121724831Y-103875263D01*
X121752743Y-103820741D01*
X121980090Y-103425788D01*
X122238459Y-103053104D01*
X122530326Y-102699328D01*
X122857180Y-102362983D01*
X123220574Y-102042636D01*
X123622099Y-101736911D01*
X124018973Y-101472194D01*
X124157199Y-101389378D01*
X124328164Y-101293460D01*
X124523213Y-101188951D01*
X124733916Y-101080151D01*
X124952305Y-100971088D01*
X125169998Y-100865980D01*
X125379143Y-100768776D01*
X125571786Y-100683466D01*
X125653642Y-100648925D01*
X126259773Y-100417611D01*
X126877156Y-100221025D01*
X127510919Y-100057740D01*
X128164863Y-99926861D01*
X128843680Y-99827382D01*
X129184896Y-99790050D01*
X129352034Y-99776585D01*
X129553793Y-99765082D01*
X129781635Y-99755725D01*
X130026906Y-99748675D01*
X130280645Y-99744085D01*
X130534577Y-99742084D01*
X130779821Y-99742802D01*
X131008119Y-99746361D01*
X131210662Y-99752870D01*
X131303593Y-99757489D01*
X131547436Y-99772572D01*
X131780833Y-99789459D01*
X132007815Y-99808738D01*
X132232868Y-99831034D01*
X132460361Y-99856966D01*
X132694712Y-99887163D01*
X132940193Y-99922244D01*
X133201249Y-99962852D01*
X133481988Y-100009581D01*
X133786976Y-100063096D01*
X134120523Y-100124026D01*
X134486316Y-100192878D01*
X134889517Y-100270432D01*
X134916607Y-100275689D01*
X134916763Y-100275719D01*
X135322369Y-100353902D01*
X135322792Y-100353983D01*
X135691010Y-100423668D01*
X135691574Y-100423774D01*
X136026356Y-100485564D01*
X136027087Y-100485696D01*
X136332387Y-100540200D01*
X136333309Y-100540361D01*
X136613081Y-100588182D01*
X136614209Y-100588370D01*
X136872407Y-100630116D01*
X136873742Y-100630324D01*
X137114319Y-100666599D01*
X137115839Y-100666819D01*
X137342748Y-100698231D01*
X137344409Y-100698450D01*
X137561604Y-100725603D01*
X137563329Y-100725807D01*
X137774765Y-100749307D01*
X137776461Y-100749484D01*
X137986089Y-100769937D01*
X137987659Y-100770080D01*
X138199435Y-100788093D01*
X138200531Y-100788182D01*
X138324782Y-100797667D01*
X138327417Y-100797840D01*
X138491775Y-100806954D01*
X138495126Y-100807096D01*
X138682970Y-100812543D01*
X138685430Y-100812590D01*
X138888298Y-100814540D01*
X138890354Y-100814543D01*
X139099784Y-100813166D01*
X139101724Y-100813139D01*
X139309254Y-100808604D01*
X139311321Y-100808542D01*
X139508491Y-100801020D01*
X139510999Y-100800899D01*
X139689346Y-100790560D01*
X139692874Y-100790306D01*
X139843937Y-100777319D01*
X139849012Y-100776780D01*
X139941504Y-100765069D01*
X139950004Y-100763699D01*
X140339498Y-100687275D01*
X140350622Y-100684566D01*
X140708533Y-100580122D01*
X140720749Y-100575871D01*
X141047429Y-100443178D01*
X141060400Y-100437034D01*
X141356197Y-100275863D01*
X141369354Y-100267613D01*
X141634622Y-100077735D01*
X141647228Y-100067428D01*
X141882316Y-99848614D01*
X141893622Y-99836630D01*
X142098881Y-99588652D01*
X142108321Y-99575655D01*
X142284102Y-99298282D01*
X142289143Y-99289585D01*
X142337799Y-99197407D01*
X142341569Y-99189635D01*
X142456543Y-98930543D01*
X142461237Y-98918294D01*
X142549287Y-98647450D01*
X142552631Y-98635072D01*
X142615281Y-98345841D01*
X142617203Y-98334506D01*
X142655975Y-98020251D01*
X142656733Y-98011795D01*
X142671053Y-97755853D01*
X142671222Y-97751451D01*
X142674610Y-97591711D01*
X142674639Y-97588874D01*
X142674460Y-97430855D01*
X142674417Y-97427700D01*
X142670250Y-97267361D01*
X142670125Y-97264135D01*
X142661549Y-97097434D01*
X142661355Y-97094372D01*
X142647948Y-96917268D01*
X142647712Y-96914541D01*
X142629052Y-96722994D01*
X142628806Y-96720692D01*
X142604472Y-96510659D01*
X142604242Y-96508797D01*
X142573811Y-96276239D01*
X142573613Y-96274790D01*
X142536665Y-96015663D01*
X142536505Y-96014569D01*
X142492617Y-95724834D01*
X142492493Y-95724036D01*
X142441244Y-95399651D01*
X142441165Y-95399157D01*
X142400163Y-95146112D01*
X142400161Y-95146097D01*
X142334985Y-94744151D01*
X142277289Y-94381312D01*
X142226564Y-94053445D01*
X142182484Y-93757548D01*
X142144769Y-93491000D01*
X142112931Y-93249721D01*
X142086687Y-93031145D01*
X142065631Y-92831792D01*
X142049385Y-92648437D01*
X142037568Y-92477844D01*
X142029794Y-92316562D01*
X142025687Y-92161269D01*
X142024885Y-92008653D01*
X142027044Y-91854610D01*
X142027476Y-91836340D01*
X142035082Y-91611762D01*
X142046683Y-91419723D01*
X142063578Y-91248248D01*
X142087143Y-91085114D01*
X142118945Y-90917839D01*
X142160783Y-90733666D01*
X142163456Y-90722629D01*
X142282907Y-90318226D01*
X142440567Y-89927274D01*
X142636346Y-89549314D01*
X142778867Y-89319237D01*
X142860943Y-89197141D01*
X142937171Y-89088983D01*
X143012902Y-88988127D01*
X143094771Y-88886177D01*
X143189295Y-88775047D01*
X143302880Y-88646848D01*
X143417222Y-88520726D01*
X143417499Y-88520419D01*
X143515400Y-88411723D01*
X143516322Y-88410689D01*
X143617316Y-88296069D01*
X143618166Y-88295094D01*
X143713394Y-88184773D01*
X143714437Y-88183549D01*
X143795036Y-88087749D01*
X143796359Y-88086150D01*
X143834429Y-88039369D01*
X143838185Y-88034519D01*
X144160939Y-87596274D01*
X144166452Y-87588148D01*
X144453472Y-87127737D01*
X144458333Y-87119225D01*
X144708788Y-86638436D01*
X144712966Y-86629600D01*
X144926028Y-86130218D01*
X144929503Y-86121123D01*
X145104342Y-85604936D01*
X145107099Y-85595646D01*
X145242887Y-85064440D01*
X145244178Y-85058866D01*
X145265126Y-84958221D01*
X145265528Y-84956208D01*
X145301653Y-84767400D01*
X145302162Y-84764567D01*
X145332133Y-84586096D01*
X145332645Y-84582780D01*
X145357849Y-84403873D01*
X145358262Y-84400641D01*
X145380088Y-84210526D01*
X145380365Y-84207868D01*
X145400202Y-83995774D01*
X145400357Y-83993975D01*
X145417400Y-83778808D01*
X145446965Y-83442534D01*
X145483849Y-83142253D01*
X145530054Y-82868522D01*
X145587536Y-82612677D01*
X145658404Y-82365756D01*
X145744933Y-82118767D01*
X145849596Y-81862648D01*
X145941858Y-81658468D01*
X145942431Y-81657182D01*
X146110002Y-81275111D01*
X146112637Y-81268622D01*
X146249416Y-80903212D01*
X146251958Y-80895717D01*
X146360945Y-80538129D01*
X146363100Y-80530132D01*
X146447296Y-80171529D01*
X146448179Y-80167472D01*
X146449063Y-80163064D01*
X146449209Y-80162322D01*
X146481063Y-79998425D01*
X146481488Y-79996126D01*
X146506621Y-79852773D01*
X146507202Y-79849155D01*
X146526382Y-79717531D01*
X146526965Y-79712945D01*
X146540959Y-79584237D01*
X146541383Y-79579520D01*
X146550957Y-79444912D01*
X146551177Y-79440936D01*
X146557100Y-79291615D01*
X146557180Y-79288814D01*
X146560219Y-79115967D01*
X146560238Y-79114304D01*
X146561159Y-78909115D01*
X146561160Y-78908562D01*
X146561164Y-78878692D01*
X146561163Y-78878162D01*
X146560458Y-78703742D01*
X146560444Y-78702310D01*
X146557981Y-78541541D01*
X146557930Y-78539387D01*
X146553055Y-78388420D01*
X146552931Y-78385577D01*
X146544992Y-78240564D01*
X146544762Y-78237183D01*
X146533108Y-78094278D01*
X146532756Y-78090619D01*
X146516734Y-77945974D01*
X146516278Y-77942339D01*
X146495235Y-77792106D01*
X146494722Y-77788765D01*
X146468007Y-77629096D01*
X146467492Y-77626224D01*
X146434453Y-77453273D01*
X146433985Y-77450940D01*
X146393968Y-77260858D01*
X146393575Y-77259056D01*
X146345930Y-77047996D01*
X146345621Y-77046662D01*
X146289694Y-76810777D01*
X146289467Y-76809836D01*
X146224607Y-76545278D01*
X146224451Y-76544647D01*
X146150005Y-76247568D01*
X146149906Y-76247178D01*
X146065222Y-75913731D01*
X146065186Y-75913587D01*
X146049516Y-75852187D01*
X145938276Y-75414396D01*
X145838182Y-75015402D01*
X145748573Y-74651840D01*
X145669073Y-74321506D01*
X145599319Y-74022248D01*
X145538720Y-73750982D01*
X145486913Y-73505622D01*
X145443405Y-73283519D01*
X145407725Y-73082155D01*
X145379398Y-72899059D01*
X145357941Y-72731744D01*
X145342834Y-72577514D01*
X145333580Y-72433808D01*
X145329673Y-72297787D01*
X145330645Y-72166689D01*
X145336067Y-72037550D01*
X145343035Y-71937963D01*
X145395912Y-71526325D01*
X145485949Y-71133535D01*
X145613667Y-70756386D01*
X145779471Y-70393768D01*
X145983888Y-70044648D01*
X146227717Y-69707858D01*
X146477712Y-69418653D01*
X146532777Y-69362596D01*
X146614253Y-69283826D01*
X146712949Y-69191179D01*
X146820760Y-69092294D01*
X146929890Y-68994492D01*
X146931190Y-68993343D01*
X146933268Y-68991464D01*
X147279630Y-68671223D01*
X147284264Y-68666715D01*
X147594117Y-68349498D01*
X147599169Y-68344013D01*
X147877319Y-68023614D01*
X147882438Y-68017322D01*
X148133691Y-67687536D01*
X148138493Y-67680787D01*
X148367656Y-67335408D01*
X148371832Y-67328667D01*
X148583710Y-66961489D01*
X148586729Y-66955942D01*
X148738447Y-66659936D01*
X148740291Y-66656187D01*
X148855816Y-66411266D01*
X148857441Y-66407680D01*
X148960946Y-66169364D01*
X148962657Y-66165226D01*
X149056507Y-65926434D01*
X149058127Y-65922079D01*
X149144686Y-65675728D01*
X149146076Y-65671540D01*
X149227709Y-65410549D01*
X149228806Y-65406844D01*
X149307877Y-65124131D01*
X149308686Y-65121095D01*
X149387558Y-64809577D01*
X149388095Y-64807374D01*
X149459011Y-64504660D01*
X149621667Y-63854573D01*
X149816840Y-63190256D01*
X150042477Y-62517452D01*
X150296053Y-61843671D01*
X150575392Y-61175546D01*
X150623883Y-61066168D01*
X150718474Y-60859318D01*
X150803777Y-60683928D01*
X150885158Y-60529789D01*
X150968094Y-60386575D01*
X151058544Y-60243370D01*
X151101070Y-60179427D01*
X151312490Y-59895472D01*
X151536401Y-59651993D01*
X151776279Y-59444658D01*
X152034615Y-59270959D01*
X152317307Y-59127053D01*
X152319507Y-59126095D01*
X152405048Y-59091609D01*
X152500970Y-59058419D01*
X152615228Y-59024221D01*
X152753952Y-58987448D01*
X152923058Y-58946552D01*
X153128206Y-58900000D01*
X153150406Y-58895088D01*
X153161569Y-58892079D01*
X153369815Y-58825638D01*
X153392032Y-58816137D01*
X153582009Y-58712502D01*
X153601698Y-58699233D01*
X153774382Y-58557691D01*
X153789786Y-58542716D01*
X153946154Y-58362557D01*
X153954131Y-58352359D01*
X154009194Y-58274048D01*
X154012335Y-58269363D01*
X154071668Y-58176471D01*
X154074676Y-58171516D01*
X154128676Y-58077805D01*
X154131736Y-58072172D01*
X154183374Y-57971088D01*
X154185904Y-57965840D01*
X154238151Y-57850828D01*
X154239946Y-57846683D01*
X154295774Y-57711189D01*
X154296919Y-57708312D01*
X154359298Y-57545779D01*
X154359969Y-57543988D01*
X154431870Y-57347864D01*
X154432094Y-57347251D01*
X154435226Y-57338570D01*
X154435414Y-57338044D01*
X154498245Y-57161465D01*
X154498642Y-57160333D01*
X154559320Y-56984567D01*
X154559744Y-56983319D01*
X154619276Y-56804889D01*
X154619698Y-56803599D01*
X154679093Y-56619033D01*
X154679491Y-56617773D01*
X154739758Y-56423595D01*
X154740115Y-56422426D01*
X154802262Y-56215163D01*
X154802569Y-56214123D01*
X154867605Y-55990299D01*
X154867860Y-55989409D01*
X154936793Y-55745551D01*
X154936999Y-55744813D01*
X155010837Y-55477447D01*
X155011000Y-55476852D01*
X155090753Y-55182502D01*
X155090879Y-55182033D01*
X155177554Y-54857225D01*
X155177650Y-54856866D01*
X155272256Y-54498127D01*
X155272326Y-54497859D01*
X155375872Y-54101714D01*
X155375902Y-54101599D01*
X155383662Y-54071798D01*
X155516944Y-53563397D01*
X155641547Y-53095584D01*
X155758159Y-52665956D01*
X155867159Y-52273256D01*
X155969126Y-51915520D01*
X156064290Y-51591995D01*
X156153244Y-51300653D01*
X156236386Y-51040130D01*
X156314134Y-50808962D01*
X156386894Y-50605685D01*
X156455082Y-50428771D01*
X156507423Y-50303406D01*
X156683108Y-49947959D01*
X156887305Y-49622187D01*
X157119963Y-49324998D01*
X157380161Y-49057205D01*
X157667108Y-48819586D01*
X157981108Y-48612316D01*
X158185510Y-48501476D01*
X158349400Y-48425639D01*
X158553100Y-48342157D01*
X158792362Y-48252603D01*
X159063154Y-48158318D01*
X159361387Y-48060607D01*
X159683404Y-47960596D01*
X160025590Y-47859395D01*
X160383960Y-47758218D01*
X160754906Y-47658159D01*
X161135031Y-47560259D01*
X161520264Y-47465733D01*
X161892877Y-47378871D01*
X162214490Y-47308028D01*
X162571943Y-47233183D01*
X162959052Y-47155514D01*
X163369624Y-47076205D01*
X163797117Y-46996506D01*
X164235300Y-46917601D01*
X164677932Y-46840681D01*
X165039515Y-46779974D01*
X165226669Y-46748778D01*
X165226979Y-46748726D01*
X165425916Y-46715060D01*
X165426184Y-46715014D01*
X165625970Y-46680764D01*
X165626245Y-46680716D01*
X165815944Y-46647766D01*
X165816279Y-46647708D01*
X165984954Y-46617944D01*
X165985422Y-46617860D01*
X166108845Y-46595604D01*
X166399608Y-46548927D01*
X166654819Y-46522318D01*
X166881033Y-46515321D01*
X167083874Y-46527557D01*
G37*
G04 #@! TD.AperFunction*
M02*
