G04 #@! TF.GenerationSoftware,KiCad,Pcbnew,(5.1.7)-1*
G04 #@! TF.CreationDate,2020-12-19T00:30:41-03:00*
G04 #@! TF.ProjectId,Sorting Hat,536f7274-696e-4672-9048-61742e6b6963,rev?*
G04 #@! TF.SameCoordinates,Original*
G04 #@! TF.FileFunction,Soldermask,Bot*
G04 #@! TF.FilePolarity,Negative*
%FSLAX46Y46*%
G04 Gerber Fmt 4.6, Leading zero omitted, Abs format (unit mm)*
G04 Created by KiCad (PCBNEW (5.1.7)-1) date 2020-12-19 00:30:41*
%MOMM*%
%LPD*%
G01*
G04 APERTURE LIST*
%ADD10C,0.010000*%
%ADD11C,18.180000*%
G04 APERTURE END LIST*
D10*
G36*
X153228099Y-67281394D02*
G01*
X153659338Y-67335713D01*
X154082171Y-67429415D01*
X154498968Y-67562755D01*
X154744612Y-67660809D01*
X155077619Y-67819920D01*
X155423316Y-68016630D01*
X155779149Y-68249043D01*
X156142566Y-68515265D01*
X156511013Y-68813399D01*
X156881936Y-69141552D01*
X157252781Y-69497828D01*
X157344310Y-69590182D01*
X157463526Y-69712603D01*
X157576580Y-69830989D01*
X157686590Y-69948964D01*
X157796672Y-70070150D01*
X157909943Y-70198169D01*
X158029519Y-70336645D01*
X158158517Y-70489200D01*
X158300054Y-70659457D01*
X158457246Y-70851038D01*
X158633210Y-71067566D01*
X158831063Y-71312665D01*
X158901467Y-71400158D01*
X159301809Y-71895670D01*
X159679369Y-72358121D01*
X160035583Y-72789170D01*
X160371885Y-73190479D01*
X160689712Y-73563707D01*
X160990497Y-73910517D01*
X161275677Y-74232569D01*
X161546685Y-74531523D01*
X161804958Y-74809041D01*
X162051930Y-75066782D01*
X162200166Y-75217539D01*
X162357994Y-75374476D01*
X162493221Y-75504135D01*
X162611297Y-75610942D01*
X162717670Y-75699325D01*
X162817790Y-75773711D01*
X162917105Y-75838529D01*
X163021066Y-75898206D01*
X163069443Y-75923851D01*
X163247583Y-76007891D01*
X163411339Y-76064851D01*
X163575478Y-76098347D01*
X163754771Y-76111996D01*
X163840583Y-76112660D01*
X163967364Y-76109724D01*
X164067544Y-76101994D01*
X164156771Y-76087401D01*
X164250688Y-76063876D01*
X164285083Y-76053887D01*
X164360975Y-76030271D01*
X164436165Y-76004290D01*
X164512934Y-75974577D01*
X164593569Y-75939767D01*
X164680353Y-75898491D01*
X164775571Y-75849383D01*
X164881507Y-75791077D01*
X165000445Y-75722206D01*
X165134670Y-75641402D01*
X165286465Y-75547298D01*
X165458116Y-75438529D01*
X165651906Y-75313727D01*
X165870120Y-75171526D01*
X166115042Y-75010558D01*
X166388956Y-74829457D01*
X166694147Y-74626855D01*
X166909750Y-74483404D01*
X167265239Y-74246912D01*
X167587637Y-74032897D01*
X167878928Y-73840131D01*
X168141098Y-73667389D01*
X168376130Y-73513444D01*
X168586009Y-73377069D01*
X168772720Y-73257038D01*
X168938246Y-73152124D01*
X169084573Y-73061102D01*
X169213684Y-72982744D01*
X169327565Y-72915824D01*
X169428199Y-72859115D01*
X169517572Y-72811392D01*
X169597667Y-72771427D01*
X169670470Y-72737994D01*
X169737964Y-72709867D01*
X169802135Y-72685818D01*
X169838585Y-72673265D01*
X170007034Y-72637698D01*
X170179841Y-72639252D01*
X170345951Y-72677253D01*
X170421252Y-72708827D01*
X170557121Y-72793589D01*
X170687177Y-72907183D01*
X170799536Y-73037614D01*
X170882315Y-73172888D01*
X170883502Y-73175380D01*
X170918980Y-73255490D01*
X170939786Y-73321563D01*
X170949681Y-73391376D01*
X170952429Y-73482708D01*
X170952456Y-73501166D01*
X170951492Y-73572417D01*
X170947109Y-73631950D01*
X170936904Y-73689269D01*
X170918473Y-73753877D01*
X170889411Y-73835279D01*
X170847315Y-73942979D01*
X170829316Y-73988000D01*
X170782459Y-74099987D01*
X170721232Y-74238992D01*
X170650522Y-74394332D01*
X170575215Y-74555323D01*
X170500196Y-74711282D01*
X170475960Y-74760583D01*
X170328393Y-75049895D01*
X170187900Y-75305164D01*
X170049919Y-75533048D01*
X169909885Y-75740204D01*
X169763233Y-75933292D01*
X169605400Y-76118970D01*
X169431821Y-76303895D01*
X169386921Y-76349297D01*
X169209892Y-76520488D01*
X169043053Y-76667257D01*
X168873724Y-76799551D01*
X168689223Y-76927319D01*
X168492050Y-77051321D01*
X168219242Y-77222153D01*
X167985780Y-77379770D01*
X167791786Y-77524075D01*
X167637381Y-77654966D01*
X167522686Y-77772344D01*
X167447823Y-77876108D01*
X167421295Y-77934062D01*
X167394720Y-78029091D01*
X167388286Y-78110498D01*
X167401775Y-78198304D01*
X167417774Y-78257147D01*
X167459179Y-78357856D01*
X167529648Y-78482750D01*
X167626411Y-78628109D01*
X167746697Y-78790214D01*
X167887734Y-78965346D01*
X168046753Y-79149786D01*
X168220982Y-79339814D01*
X168237092Y-79356829D01*
X168336171Y-79463170D01*
X168407951Y-79545234D01*
X168456050Y-79607661D01*
X168484089Y-79655089D01*
X168494905Y-79687363D01*
X168501586Y-79755126D01*
X168489058Y-79800383D01*
X168453191Y-79824497D01*
X168389854Y-79828835D01*
X168294919Y-79814761D01*
X168186311Y-79789344D01*
X168076084Y-79758296D01*
X167960819Y-79719613D01*
X167834671Y-79670853D01*
X167691795Y-79609572D01*
X167526345Y-79533326D01*
X167332476Y-79439673D01*
X167237833Y-79392902D01*
X167068636Y-79307528D01*
X166908305Y-79223594D01*
X166751413Y-79137867D01*
X166592534Y-79047117D01*
X166426241Y-78948114D01*
X166247110Y-78837626D01*
X166049713Y-78712422D01*
X165828624Y-78569272D01*
X165578417Y-78404944D01*
X165576890Y-78403936D01*
X165420421Y-78301777D01*
X165263662Y-78201535D01*
X165112974Y-78107126D01*
X164974717Y-78022464D01*
X164855251Y-77951467D01*
X164760938Y-77898051D01*
X164721406Y-77877239D01*
X164399850Y-77735428D01*
X164077209Y-77633567D01*
X163751151Y-77571547D01*
X163419345Y-77549257D01*
X163079458Y-77566588D01*
X162729157Y-77623430D01*
X162366112Y-77719671D01*
X162242500Y-77760269D01*
X161920945Y-77877360D01*
X161596992Y-78008953D01*
X161267829Y-78156634D01*
X160930642Y-78321988D01*
X160582620Y-78506601D01*
X160220951Y-78712060D01*
X159842822Y-78939950D01*
X159445420Y-79191856D01*
X159025935Y-79469366D01*
X158581552Y-79774064D01*
X158220833Y-80028071D01*
X158070692Y-80134111D01*
X157920956Y-80238442D01*
X157777819Y-80336852D01*
X157647471Y-80425129D01*
X157536108Y-80499061D01*
X157449920Y-80554436D01*
X157419465Y-80573097D01*
X157096022Y-80746698D01*
X156776055Y-80878956D01*
X156457750Y-80970532D01*
X156205693Y-81014619D01*
X156097782Y-81024079D01*
X155961436Y-81030084D01*
X155810418Y-81032587D01*
X155658489Y-81031543D01*
X155519410Y-81026908D01*
X155406943Y-81018634D01*
X155395083Y-81017299D01*
X155289250Y-81004750D01*
X155363333Y-80949626D01*
X155394434Y-80927374D01*
X155456892Y-80883457D01*
X155547244Y-80820287D01*
X155662027Y-80740273D01*
X155797776Y-80645826D01*
X155951029Y-80539357D01*
X156118321Y-80423277D01*
X156296190Y-80299996D01*
X156400500Y-80227761D01*
X156620053Y-80075762D01*
X156861311Y-79908733D01*
X157115860Y-79732499D01*
X157375290Y-79552883D01*
X157631188Y-79375710D01*
X157875141Y-79206803D01*
X158098739Y-79051987D01*
X158242000Y-78952793D01*
X158417633Y-78830622D01*
X158585619Y-78712698D01*
X158742134Y-78601780D01*
X158883354Y-78500626D01*
X159005457Y-78411994D01*
X159104619Y-78338642D01*
X159177017Y-78283328D01*
X159218827Y-78248810D01*
X159221905Y-78245908D01*
X159331238Y-78118251D01*
X159400733Y-77984432D01*
X159432884Y-77838815D01*
X159435772Y-77762315D01*
X159415900Y-77599276D01*
X159360628Y-77458323D01*
X159269099Y-77338207D01*
X159140453Y-77237682D01*
X159036752Y-77182359D01*
X158990131Y-77165130D01*
X158906214Y-77138793D01*
X158788804Y-77104397D01*
X158641702Y-77062995D01*
X158468710Y-77015636D01*
X158273628Y-76963371D01*
X158060259Y-76907251D01*
X157832403Y-76848327D01*
X157776333Y-76833974D01*
X157557122Y-76777546D01*
X157344450Y-76721996D01*
X157142946Y-76668588D01*
X156957240Y-76618583D01*
X156791961Y-76573247D01*
X156651739Y-76533840D01*
X156541203Y-76501627D01*
X156464983Y-76477871D01*
X156442833Y-76470172D01*
X156099346Y-76322173D01*
X155784806Y-76143421D01*
X155499398Y-75934064D01*
X155243305Y-75694253D01*
X155016713Y-75424139D01*
X154852300Y-75178895D01*
X154805351Y-75095643D01*
X154747672Y-74984905D01*
X154685013Y-74858189D01*
X154623121Y-74727004D01*
X154590089Y-74653964D01*
X154530796Y-74523695D01*
X154467216Y-74389529D01*
X154405232Y-74263529D01*
X154350729Y-74157762D01*
X154326041Y-74112530D01*
X154085513Y-73725753D01*
X153817643Y-73371284D01*
X153522268Y-73048982D01*
X153199226Y-72758706D01*
X152848353Y-72500316D01*
X152469485Y-72273670D01*
X152062460Y-72078628D01*
X151889396Y-72008529D01*
X151718030Y-71938724D01*
X151583002Y-71874321D01*
X151479227Y-71812001D01*
X151401618Y-71748443D01*
X151345087Y-71680329D01*
X151319571Y-71636680D01*
X151283254Y-71524442D01*
X151285437Y-71403800D01*
X151326512Y-71272857D01*
X151406868Y-71129717D01*
X151431054Y-71094720D01*
X151464853Y-71055398D01*
X151525709Y-70992830D01*
X151608804Y-70911634D01*
X151709324Y-70816426D01*
X151822453Y-70711824D01*
X151943375Y-70602445D01*
X151959553Y-70587993D01*
X152137907Y-70426621D01*
X152285319Y-70287514D01*
X152404443Y-70167184D01*
X152497933Y-70062139D01*
X152568444Y-69968890D01*
X152618630Y-69883945D01*
X152651145Y-69803816D01*
X152668643Y-69725012D01*
X152673772Y-69648833D01*
X152653310Y-69521043D01*
X152590756Y-69396412D01*
X152486246Y-69275144D01*
X152339918Y-69157439D01*
X152339059Y-69156844D01*
X152299209Y-69132948D01*
X152226220Y-69092917D01*
X152124954Y-69039275D01*
X152000274Y-68974545D01*
X151857041Y-68901249D01*
X151700118Y-68821910D01*
X151534365Y-68739052D01*
X151524143Y-68733972D01*
X151341158Y-68642228D01*
X151175066Y-68557268D01*
X151029609Y-68481100D01*
X150908529Y-68415735D01*
X150815566Y-68363180D01*
X150754463Y-68325445D01*
X150732716Y-68308987D01*
X150664117Y-68216890D01*
X150630894Y-68111297D01*
X150630966Y-67998433D01*
X150662249Y-67884523D01*
X150722660Y-67775794D01*
X150810118Y-67678470D01*
X150922540Y-67598777D01*
X150979654Y-67570783D01*
X151070787Y-67537304D01*
X151195154Y-67499875D01*
X151344098Y-67460647D01*
X151508962Y-67421766D01*
X151681089Y-67385383D01*
X151851821Y-67353646D01*
X151860250Y-67352206D01*
X152330925Y-67289894D01*
X152786085Y-67266206D01*
X153228099Y-67281394D01*
G37*
X153228099Y-67281394D02*
X153659338Y-67335713D01*
X154082171Y-67429415D01*
X154498968Y-67562755D01*
X154744612Y-67660809D01*
X155077619Y-67819920D01*
X155423316Y-68016630D01*
X155779149Y-68249043D01*
X156142566Y-68515265D01*
X156511013Y-68813399D01*
X156881936Y-69141552D01*
X157252781Y-69497828D01*
X157344310Y-69590182D01*
X157463526Y-69712603D01*
X157576580Y-69830989D01*
X157686590Y-69948964D01*
X157796672Y-70070150D01*
X157909943Y-70198169D01*
X158029519Y-70336645D01*
X158158517Y-70489200D01*
X158300054Y-70659457D01*
X158457246Y-70851038D01*
X158633210Y-71067566D01*
X158831063Y-71312665D01*
X158901467Y-71400158D01*
X159301809Y-71895670D01*
X159679369Y-72358121D01*
X160035583Y-72789170D01*
X160371885Y-73190479D01*
X160689712Y-73563707D01*
X160990497Y-73910517D01*
X161275677Y-74232569D01*
X161546685Y-74531523D01*
X161804958Y-74809041D01*
X162051930Y-75066782D01*
X162200166Y-75217539D01*
X162357994Y-75374476D01*
X162493221Y-75504135D01*
X162611297Y-75610942D01*
X162717670Y-75699325D01*
X162817790Y-75773711D01*
X162917105Y-75838529D01*
X163021066Y-75898206D01*
X163069443Y-75923851D01*
X163247583Y-76007891D01*
X163411339Y-76064851D01*
X163575478Y-76098347D01*
X163754771Y-76111996D01*
X163840583Y-76112660D01*
X163967364Y-76109724D01*
X164067544Y-76101994D01*
X164156771Y-76087401D01*
X164250688Y-76063876D01*
X164285083Y-76053887D01*
X164360975Y-76030271D01*
X164436165Y-76004290D01*
X164512934Y-75974577D01*
X164593569Y-75939767D01*
X164680353Y-75898491D01*
X164775571Y-75849383D01*
X164881507Y-75791077D01*
X165000445Y-75722206D01*
X165134670Y-75641402D01*
X165286465Y-75547298D01*
X165458116Y-75438529D01*
X165651906Y-75313727D01*
X165870120Y-75171526D01*
X166115042Y-75010558D01*
X166388956Y-74829457D01*
X166694147Y-74626855D01*
X166909750Y-74483404D01*
X167265239Y-74246912D01*
X167587637Y-74032897D01*
X167878928Y-73840131D01*
X168141098Y-73667389D01*
X168376130Y-73513444D01*
X168586009Y-73377069D01*
X168772720Y-73257038D01*
X168938246Y-73152124D01*
X169084573Y-73061102D01*
X169213684Y-72982744D01*
X169327565Y-72915824D01*
X169428199Y-72859115D01*
X169517572Y-72811392D01*
X169597667Y-72771427D01*
X169670470Y-72737994D01*
X169737964Y-72709867D01*
X169802135Y-72685818D01*
X169838585Y-72673265D01*
X170007034Y-72637698D01*
X170179841Y-72639252D01*
X170345951Y-72677253D01*
X170421252Y-72708827D01*
X170557121Y-72793589D01*
X170687177Y-72907183D01*
X170799536Y-73037614D01*
X170882315Y-73172888D01*
X170883502Y-73175380D01*
X170918980Y-73255490D01*
X170939786Y-73321563D01*
X170949681Y-73391376D01*
X170952429Y-73482708D01*
X170952456Y-73501166D01*
X170951492Y-73572417D01*
X170947109Y-73631950D01*
X170936904Y-73689269D01*
X170918473Y-73753877D01*
X170889411Y-73835279D01*
X170847315Y-73942979D01*
X170829316Y-73988000D01*
X170782459Y-74099987D01*
X170721232Y-74238992D01*
X170650522Y-74394332D01*
X170575215Y-74555323D01*
X170500196Y-74711282D01*
X170475960Y-74760583D01*
X170328393Y-75049895D01*
X170187900Y-75305164D01*
X170049919Y-75533048D01*
X169909885Y-75740204D01*
X169763233Y-75933292D01*
X169605400Y-76118970D01*
X169431821Y-76303895D01*
X169386921Y-76349297D01*
X169209892Y-76520488D01*
X169043053Y-76667257D01*
X168873724Y-76799551D01*
X168689223Y-76927319D01*
X168492050Y-77051321D01*
X168219242Y-77222153D01*
X167985780Y-77379770D01*
X167791786Y-77524075D01*
X167637381Y-77654966D01*
X167522686Y-77772344D01*
X167447823Y-77876108D01*
X167421295Y-77934062D01*
X167394720Y-78029091D01*
X167388286Y-78110498D01*
X167401775Y-78198304D01*
X167417774Y-78257147D01*
X167459179Y-78357856D01*
X167529648Y-78482750D01*
X167626411Y-78628109D01*
X167746697Y-78790214D01*
X167887734Y-78965346D01*
X168046753Y-79149786D01*
X168220982Y-79339814D01*
X168237092Y-79356829D01*
X168336171Y-79463170D01*
X168407951Y-79545234D01*
X168456050Y-79607661D01*
X168484089Y-79655089D01*
X168494905Y-79687363D01*
X168501586Y-79755126D01*
X168489058Y-79800383D01*
X168453191Y-79824497D01*
X168389854Y-79828835D01*
X168294919Y-79814761D01*
X168186311Y-79789344D01*
X168076084Y-79758296D01*
X167960819Y-79719613D01*
X167834671Y-79670853D01*
X167691795Y-79609572D01*
X167526345Y-79533326D01*
X167332476Y-79439673D01*
X167237833Y-79392902D01*
X167068636Y-79307528D01*
X166908305Y-79223594D01*
X166751413Y-79137867D01*
X166592534Y-79047117D01*
X166426241Y-78948114D01*
X166247110Y-78837626D01*
X166049713Y-78712422D01*
X165828624Y-78569272D01*
X165578417Y-78404944D01*
X165576890Y-78403936D01*
X165420421Y-78301777D01*
X165263662Y-78201535D01*
X165112974Y-78107126D01*
X164974717Y-78022464D01*
X164855251Y-77951467D01*
X164760938Y-77898051D01*
X164721406Y-77877239D01*
X164399850Y-77735428D01*
X164077209Y-77633567D01*
X163751151Y-77571547D01*
X163419345Y-77549257D01*
X163079458Y-77566588D01*
X162729157Y-77623430D01*
X162366112Y-77719671D01*
X162242500Y-77760269D01*
X161920945Y-77877360D01*
X161596992Y-78008953D01*
X161267829Y-78156634D01*
X160930642Y-78321988D01*
X160582620Y-78506601D01*
X160220951Y-78712060D01*
X159842822Y-78939950D01*
X159445420Y-79191856D01*
X159025935Y-79469366D01*
X158581552Y-79774064D01*
X158220833Y-80028071D01*
X158070692Y-80134111D01*
X157920956Y-80238442D01*
X157777819Y-80336852D01*
X157647471Y-80425129D01*
X157536108Y-80499061D01*
X157449920Y-80554436D01*
X157419465Y-80573097D01*
X157096022Y-80746698D01*
X156776055Y-80878956D01*
X156457750Y-80970532D01*
X156205693Y-81014619D01*
X156097782Y-81024079D01*
X155961436Y-81030084D01*
X155810418Y-81032587D01*
X155658489Y-81031543D01*
X155519410Y-81026908D01*
X155406943Y-81018634D01*
X155395083Y-81017299D01*
X155289250Y-81004750D01*
X155363333Y-80949626D01*
X155394434Y-80927374D01*
X155456892Y-80883457D01*
X155547244Y-80820287D01*
X155662027Y-80740273D01*
X155797776Y-80645826D01*
X155951029Y-80539357D01*
X156118321Y-80423277D01*
X156296190Y-80299996D01*
X156400500Y-80227761D01*
X156620053Y-80075762D01*
X156861311Y-79908733D01*
X157115860Y-79732499D01*
X157375290Y-79552883D01*
X157631188Y-79375710D01*
X157875141Y-79206803D01*
X158098739Y-79051987D01*
X158242000Y-78952793D01*
X158417633Y-78830622D01*
X158585619Y-78712698D01*
X158742134Y-78601780D01*
X158883354Y-78500626D01*
X159005457Y-78411994D01*
X159104619Y-78338642D01*
X159177017Y-78283328D01*
X159218827Y-78248810D01*
X159221905Y-78245908D01*
X159331238Y-78118251D01*
X159400733Y-77984432D01*
X159432884Y-77838815D01*
X159435772Y-77762315D01*
X159415900Y-77599276D01*
X159360628Y-77458323D01*
X159269099Y-77338207D01*
X159140453Y-77237682D01*
X159036752Y-77182359D01*
X158990131Y-77165130D01*
X158906214Y-77138793D01*
X158788804Y-77104397D01*
X158641702Y-77062995D01*
X158468710Y-77015636D01*
X158273628Y-76963371D01*
X158060259Y-76907251D01*
X157832403Y-76848327D01*
X157776333Y-76833974D01*
X157557122Y-76777546D01*
X157344450Y-76721996D01*
X157142946Y-76668588D01*
X156957240Y-76618583D01*
X156791961Y-76573247D01*
X156651739Y-76533840D01*
X156541203Y-76501627D01*
X156464983Y-76477871D01*
X156442833Y-76470172D01*
X156099346Y-76322173D01*
X155784806Y-76143421D01*
X155499398Y-75934064D01*
X155243305Y-75694253D01*
X155016713Y-75424139D01*
X154852300Y-75178895D01*
X154805351Y-75095643D01*
X154747672Y-74984905D01*
X154685013Y-74858189D01*
X154623121Y-74727004D01*
X154590089Y-74653964D01*
X154530796Y-74523695D01*
X154467216Y-74389529D01*
X154405232Y-74263529D01*
X154350729Y-74157762D01*
X154326041Y-74112530D01*
X154085513Y-73725753D01*
X153817643Y-73371284D01*
X153522268Y-73048982D01*
X153199226Y-72758706D01*
X152848353Y-72500316D01*
X152469485Y-72273670D01*
X152062460Y-72078628D01*
X151889396Y-72008529D01*
X151718030Y-71938724D01*
X151583002Y-71874321D01*
X151479227Y-71812001D01*
X151401618Y-71748443D01*
X151345087Y-71680329D01*
X151319571Y-71636680D01*
X151283254Y-71524442D01*
X151285437Y-71403800D01*
X151326512Y-71272857D01*
X151406868Y-71129717D01*
X151431054Y-71094720D01*
X151464853Y-71055398D01*
X151525709Y-70992830D01*
X151608804Y-70911634D01*
X151709324Y-70816426D01*
X151822453Y-70711824D01*
X151943375Y-70602445D01*
X151959553Y-70587993D01*
X152137907Y-70426621D01*
X152285319Y-70287514D01*
X152404443Y-70167184D01*
X152497933Y-70062139D01*
X152568444Y-69968890D01*
X152618630Y-69883945D01*
X152651145Y-69803816D01*
X152668643Y-69725012D01*
X152673772Y-69648833D01*
X152653310Y-69521043D01*
X152590756Y-69396412D01*
X152486246Y-69275144D01*
X152339918Y-69157439D01*
X152339059Y-69156844D01*
X152299209Y-69132948D01*
X152226220Y-69092917D01*
X152124954Y-69039275D01*
X152000274Y-68974545D01*
X151857041Y-68901249D01*
X151700118Y-68821910D01*
X151534365Y-68739052D01*
X151524143Y-68733972D01*
X151341158Y-68642228D01*
X151175066Y-68557268D01*
X151029609Y-68481100D01*
X150908529Y-68415735D01*
X150815566Y-68363180D01*
X150754463Y-68325445D01*
X150732716Y-68308987D01*
X150664117Y-68216890D01*
X150630894Y-68111297D01*
X150630966Y-67998433D01*
X150662249Y-67884523D01*
X150722660Y-67775794D01*
X150810118Y-67678470D01*
X150922540Y-67598777D01*
X150979654Y-67570783D01*
X151070787Y-67537304D01*
X151195154Y-67499875D01*
X151344098Y-67460647D01*
X151508962Y-67421766D01*
X151681089Y-67385383D01*
X151851821Y-67353646D01*
X151860250Y-67352206D01*
X152330925Y-67289894D01*
X152786085Y-67266206D01*
X153228099Y-67281394D01*
G36*
G01*
X160599999Y-51800000D02*
X160599999Y-50700000D01*
G75*
G02*
X160799999Y-50500000I200000J0D01*
G01*
X162299999Y-50500000D01*
G75*
G02*
X162499999Y-50700000I0J-200000D01*
G01*
X162499999Y-51800000D01*
G75*
G02*
X162299999Y-52000000I-200000J0D01*
G01*
X160799999Y-52000000D01*
G75*
G02*
X160599999Y-51800000I0J200000D01*
G01*
G37*
G36*
G01*
X169500001Y-51800000D02*
X169500001Y-50700000D01*
G75*
G02*
X169700001Y-50500000I200000J0D01*
G01*
X171200001Y-50500000D01*
G75*
G02*
X171400001Y-50700000I0J-200000D01*
G01*
X171400001Y-51800000D01*
G75*
G02*
X171200001Y-52000000I-200000J0D01*
G01*
X169700001Y-52000000D01*
G75*
G02*
X169500001Y-51800000I0J200000D01*
G01*
G37*
G36*
G01*
X148170000Y-94040001D02*
X148170000Y-88959999D01*
G75*
G02*
X148369999Y-88760000I199999J0D01*
G01*
X151160001Y-88760000D01*
G75*
G02*
X151360000Y-88959999I0J-199999D01*
G01*
X151360000Y-94040001D01*
G75*
G02*
X151160001Y-94240000I-199999J0D01*
G01*
X148369999Y-94240000D01*
G75*
G02*
X148170000Y-94040001I0J199999D01*
G01*
G37*
G36*
G01*
X170140000Y-94040001D02*
X170140000Y-88959999D01*
G75*
G02*
X170339999Y-88760000I199999J0D01*
G01*
X173130001Y-88760000D01*
G75*
G02*
X173330000Y-88959999I0J-199999D01*
G01*
X173330000Y-94040001D01*
G75*
G02*
X173130001Y-94240000I-199999J0D01*
G01*
X170339999Y-94240000D01*
G75*
G02*
X170140000Y-94040001I0J199999D01*
G01*
G37*
D11*
X160750000Y-91500000D03*
G36*
G01*
X162245175Y-66350000D02*
X163754825Y-66350000D01*
G75*
G02*
X164075000Y-66670175I0J-320175D01*
G01*
X164075000Y-67854825D01*
G75*
G02*
X163754825Y-68175000I-320175J0D01*
G01*
X162245175Y-68175000D01*
G75*
G02*
X161925000Y-67854825I0J320175D01*
G01*
X161925000Y-66670175D01*
G75*
G02*
X162245175Y-66350000I320175J0D01*
G01*
G37*
G36*
G01*
X162245175Y-69325000D02*
X163754825Y-69325000D01*
G75*
G02*
X164075000Y-69645175I0J-320175D01*
G01*
X164075000Y-70829825D01*
G75*
G02*
X163754825Y-71150000I-320175J0D01*
G01*
X162245175Y-71150000D01*
G75*
G02*
X161925000Y-70829825I0J320175D01*
G01*
X161925000Y-69645175D01*
G75*
G02*
X162245175Y-69325000I320175J0D01*
G01*
G37*
G36*
G01*
X159745175Y-66350000D02*
X161254825Y-66350000D01*
G75*
G02*
X161575000Y-66670175I0J-320175D01*
G01*
X161575000Y-67854825D01*
G75*
G02*
X161254825Y-68175000I-320175J0D01*
G01*
X159745175Y-68175000D01*
G75*
G02*
X159425000Y-67854825I0J320175D01*
G01*
X159425000Y-66670175D01*
G75*
G02*
X159745175Y-66350000I320175J0D01*
G01*
G37*
G36*
G01*
X159745175Y-69325000D02*
X161254825Y-69325000D01*
G75*
G02*
X161575000Y-69645175I0J-320175D01*
G01*
X161575000Y-70829825D01*
G75*
G02*
X161254825Y-71150000I-320175J0D01*
G01*
X159745175Y-71150000D01*
G75*
G02*
X159425000Y-70829825I0J320175D01*
G01*
X159425000Y-69645175D01*
G75*
G02*
X159745175Y-69325000I320175J0D01*
G01*
G37*
G36*
G01*
X167245175Y-69325000D02*
X168754825Y-69325000D01*
G75*
G02*
X169075000Y-69645175I0J-320175D01*
G01*
X169075000Y-70829825D01*
G75*
G02*
X168754825Y-71150000I-320175J0D01*
G01*
X167245175Y-71150000D01*
G75*
G02*
X166925000Y-70829825I0J320175D01*
G01*
X166925000Y-69645175D01*
G75*
G02*
X167245175Y-69325000I320175J0D01*
G01*
G37*
G36*
G01*
X167245175Y-66350000D02*
X168754825Y-66350000D01*
G75*
G02*
X169075000Y-66670175I0J-320175D01*
G01*
X169075000Y-67854825D01*
G75*
G02*
X168754825Y-68175000I-320175J0D01*
G01*
X167245175Y-68175000D01*
G75*
G02*
X166925000Y-67854825I0J320175D01*
G01*
X166925000Y-66670175D01*
G75*
G02*
X167245175Y-66350000I320175J0D01*
G01*
G37*
G36*
G01*
X164745175Y-69325000D02*
X166254825Y-69325000D01*
G75*
G02*
X166575000Y-69645175I0J-320175D01*
G01*
X166575000Y-70829825D01*
G75*
G02*
X166254825Y-71150000I-320175J0D01*
G01*
X164745175Y-71150000D01*
G75*
G02*
X164425000Y-70829825I0J320175D01*
G01*
X164425000Y-69645175D01*
G75*
G02*
X164745175Y-69325000I320175J0D01*
G01*
G37*
G36*
G01*
X164745175Y-66350000D02*
X166254825Y-66350000D01*
G75*
G02*
X166575000Y-66670175I0J-320175D01*
G01*
X166575000Y-67854825D01*
G75*
G02*
X166254825Y-68175000I-320175J0D01*
G01*
X164745175Y-68175000D01*
G75*
G02*
X164425000Y-67854825I0J320175D01*
G01*
X164425000Y-66670175D01*
G75*
G02*
X164745175Y-66350000I320175J0D01*
G01*
G37*
G36*
G01*
X159780921Y-75373314D02*
X158624462Y-76343698D01*
G75*
G02*
X158173389Y-76304235I-205805J245268D01*
G01*
X157411910Y-75396741D01*
G75*
G02*
X157451373Y-74945668I245268J205805D01*
G01*
X158607832Y-73975284D01*
G75*
G02*
X159058905Y-74014747I205805J-245268D01*
G01*
X159820384Y-74922241D01*
G75*
G02*
X159780921Y-75373314I-245268J-205805D01*
G01*
G37*
G36*
G01*
X157868627Y-73094332D02*
X156712168Y-74064716D01*
G75*
G02*
X156261095Y-74025253I-205805J245268D01*
G01*
X155499616Y-73117759D01*
G75*
G02*
X155539079Y-72666686I245268J205805D01*
G01*
X156695538Y-71696302D01*
G75*
G02*
X157146611Y-71735765I205805J-245268D01*
G01*
X157908090Y-72643259D01*
G75*
G02*
X157868627Y-73094332I-245268J-205805D01*
G01*
G37*
G36*
G01*
X168293480Y-76146786D02*
X167384950Y-74941126D01*
G75*
G02*
X167447967Y-74492737I255703J192686D01*
G01*
X168394071Y-73779797D01*
G75*
G02*
X168842460Y-73842814I192686J-255703D01*
G01*
X169750990Y-75048474D01*
G75*
G02*
X169687973Y-75496863I-255703J-192686D01*
G01*
X168741869Y-76209803D01*
G75*
G02*
X168293480Y-76146786I-192686J255703D01*
G01*
G37*
G36*
G01*
X165917540Y-77937186D02*
X165009010Y-76731526D01*
G75*
G02*
X165072027Y-76283137I255703J192686D01*
G01*
X166018131Y-75570197D01*
G75*
G02*
X166466520Y-75633214I192686J-255703D01*
G01*
X167375050Y-76838874D01*
G75*
G02*
X167312033Y-77287263I-255703J-192686D01*
G01*
X166365929Y-78000203D01*
G75*
G02*
X165917540Y-77937186I-192686J255703D01*
G01*
G37*
G36*
G01*
X156900000Y-60600000D02*
X157700000Y-60600000D01*
G75*
G02*
X157900000Y-60800000I0J-200000D01*
G01*
X157900000Y-61700000D01*
G75*
G02*
X157700000Y-61900000I-200000J0D01*
G01*
X156900000Y-61900000D01*
G75*
G02*
X156700000Y-61700000I0J200000D01*
G01*
X156700000Y-60800000D01*
G75*
G02*
X156900000Y-60600000I200000J0D01*
G01*
G37*
G36*
G01*
X158800000Y-60600000D02*
X159600000Y-60600000D01*
G75*
G02*
X159800000Y-60800000I0J-200000D01*
G01*
X159800000Y-61700000D01*
G75*
G02*
X159600000Y-61900000I-200000J0D01*
G01*
X158800000Y-61900000D01*
G75*
G02*
X158600000Y-61700000I0J200000D01*
G01*
X158600000Y-60800000D01*
G75*
G02*
X158800000Y-60600000I200000J0D01*
G01*
G37*
G36*
G01*
X157850000Y-62600000D02*
X158650000Y-62600000D01*
G75*
G02*
X158850000Y-62800000I0J-200000D01*
G01*
X158850000Y-63700000D01*
G75*
G02*
X158650000Y-63900000I-200000J0D01*
G01*
X157850000Y-63900000D01*
G75*
G02*
X157650000Y-63700000I0J200000D01*
G01*
X157650000Y-62800000D01*
G75*
G02*
X157850000Y-62600000I200000J0D01*
G01*
G37*
G36*
G01*
X166100000Y-56600000D02*
X166900000Y-56600000D01*
G75*
G02*
X167100000Y-56800000I0J-200000D01*
G01*
X167100000Y-57700000D01*
G75*
G02*
X166900000Y-57900000I-200000J0D01*
G01*
X166100000Y-57900000D01*
G75*
G02*
X165900000Y-57700000I0J200000D01*
G01*
X165900000Y-56800000D01*
G75*
G02*
X166100000Y-56600000I200000J0D01*
G01*
G37*
G36*
G01*
X167050000Y-54600000D02*
X167850000Y-54600000D01*
G75*
G02*
X168050000Y-54800000I0J-200000D01*
G01*
X168050000Y-55700000D01*
G75*
G02*
X167850000Y-55900000I-200000J0D01*
G01*
X167050000Y-55900000D01*
G75*
G02*
X166850000Y-55700000I0J200000D01*
G01*
X166850000Y-54800000D01*
G75*
G02*
X167050000Y-54600000I200000J0D01*
G01*
G37*
G36*
G01*
X165150000Y-54600000D02*
X165950000Y-54600000D01*
G75*
G02*
X166150000Y-54800000I0J-200000D01*
G01*
X166150000Y-55700000D01*
G75*
G02*
X165950000Y-55900000I-200000J0D01*
G01*
X165150000Y-55900000D01*
G75*
G02*
X164950000Y-55700000I0J200000D01*
G01*
X164950000Y-54800000D01*
G75*
G02*
X165150000Y-54600000I200000J0D01*
G01*
G37*
G36*
G01*
X156450000Y-57687500D02*
X156450000Y-56312500D01*
G75*
G02*
X156762500Y-56000000I312500J0D01*
G01*
X159137500Y-56000000D01*
G75*
G02*
X159450000Y-56312500I0J-312500D01*
G01*
X159450000Y-57687500D01*
G75*
G02*
X159137500Y-58000000I-312500J0D01*
G01*
X156762500Y-58000000D01*
G75*
G02*
X156450000Y-57687500I0J312500D01*
G01*
G37*
G36*
G01*
X160050000Y-57687500D02*
X160050000Y-56312500D01*
G75*
G02*
X160362500Y-56000000I312500J0D01*
G01*
X162737500Y-56000000D01*
G75*
G02*
X163050000Y-56312500I0J-312500D01*
G01*
X163050000Y-57687500D01*
G75*
G02*
X162737500Y-58000000I-312500J0D01*
G01*
X160362500Y-58000000D01*
G75*
G02*
X160050000Y-57687500I0J312500D01*
G01*
G37*
G36*
G01*
X163450000Y-61312500D02*
X163450000Y-62687500D01*
G75*
G02*
X163137500Y-63000000I-312500J0D01*
G01*
X160762500Y-63000000D01*
G75*
G02*
X160450000Y-62687500I0J312500D01*
G01*
X160450000Y-61312500D01*
G75*
G02*
X160762500Y-61000000I312500J0D01*
G01*
X163137500Y-61000000D01*
G75*
G02*
X163450000Y-61312500I0J-312500D01*
G01*
G37*
G36*
G01*
X167050000Y-61312500D02*
X167050000Y-62687500D01*
G75*
G02*
X166737500Y-63000000I-312500J0D01*
G01*
X164362500Y-63000000D01*
G75*
G02*
X164050000Y-62687500I0J312500D01*
G01*
X164050000Y-61312500D01*
G75*
G02*
X164362500Y-61000000I312500J0D01*
G01*
X166737500Y-61000000D01*
G75*
G02*
X167050000Y-61312500I0J-312500D01*
G01*
G37*
M02*
